<svg width="115" height="115" viewBox="0 0 115 115" fill="none" xmlns="http://www.w3.org/2000/svg">
<path d="M57.75 1.87639L105.546 29.4717C105.701 29.561 105.796 29.7261 105.796 29.9047V85.0953C105.796 85.2739 105.701 85.439 105.546 85.5283L57.75 113.124C57.5953 113.213 57.4047 113.213 57.25 113.124L9.45354 85.5283C9.29884 85.439 9.20354 85.2739 9.20354 85.0953V29.9047C9.20354 29.7261 9.29884 29.561 9.45354 29.4717L57.25 1.87639C57.4047 1.78707 57.5953 1.78707 57.75 1.87639Z" stroke="#4F89FD" stroke-width="3"/>
<g clip-path="url(#clip0_706_164)">
<path d="M39.1844 56.7547C39.1844 57.7593 39.2933 58.5737 39.4832 59.171C39.7243 59.843 40.0146 60.4963 40.3517 61.1256C40.4875 61.3427 40.5416 61.5599 40.5416 61.7501C40.5416 62.0214 40.379 62.2929 40.026 62.5645L38.3158 63.7046C38.0715 63.8677 37.8271 63.949 37.6097 63.949C37.3384 63.949 37.0668 63.8132 36.7952 63.5689C36.4295 63.1758 36.1023 62.7485 35.8181 62.2929C35.5465 61.8318 35.275 61.3155 34.9765 60.6913C32.8589 63.1887 30.1982 64.4377 26.9949 64.4377C24.7147 64.4377 22.8956 63.786 21.5652 62.4832C20.2352 61.1797 19.5565 59.4423 19.5565 57.2706C19.5565 54.9631 20.3709 53.0899 22.027 51.6782C23.6828 50.2665 25.882 49.5606 28.6782 49.5606C29.6012 49.5606 30.5514 49.642 31.5558 49.7778C32.5604 49.9135 33.592 50.1307 34.678 50.375V48.3933C34.678 46.3298 34.2434 44.8912 33.4017 44.0496C32.5332 43.2079 31.067 42.8005 28.9767 42.8005C28.0265 42.8005 27.0494 42.9094 26.0447 43.1538C25.0404 43.3978 24.0629 43.6966 23.1127 44.0768C22.6784 44.2667 22.3527 44.3753 22.1625 44.4297C21.9726 44.4842 21.8368 44.5111 21.7282 44.5111C21.3481 44.5111 21.1581 44.2395 21.1581 43.6694V42.339C21.1581 41.9048 21.2126 41.5791 21.3481 41.3891C21.4839 41.1989 21.7282 41.009 22.1084 40.8191C23.0586 40.3304 24.1987 39.923 25.5288 39.5973C26.8594 39.2444 28.2712 39.0817 29.7642 39.0817C32.995 39.0817 35.3569 39.8144 36.8772 41.2806C38.3703 42.7464 39.1306 44.9726 39.1306 47.959V56.7547H39.185H39.1844ZM28.1623 60.8812C29.0584 60.8812 29.9813 60.7185 30.9585 60.3925C31.9359 60.0668 32.8048 59.4695 33.5375 58.6551C33.9721 58.1395 34.2978 57.5694 34.4605 56.9177C34.6235 56.2663 34.7321 55.4787 34.7321 54.5557V53.4156C33.9088 53.2152 33.0749 53.0611 32.2344 52.9541C31.388 52.8466 30.5357 52.7922 29.6825 52.7911C27.8635 52.7911 26.5334 53.144 25.6376 53.8771C24.7416 54.6102 24.3073 55.6417 24.3073 56.999C24.3073 58.2749 24.633 59.2251 25.3116 59.8769C25.9633 60.5555 26.9136 60.8812 28.1623 60.8812ZM49.9621 63.8132C49.4734 63.8132 49.1477 63.7319 48.9306 63.5416C48.7134 63.3789 48.5232 62.9988 48.3605 62.4832L41.9809 41.4977C41.8176 40.9546 41.7362 40.6016 41.7362 40.4117C41.7362 39.9774 41.9534 39.7328 42.388 39.7328H45.0484C45.564 39.7328 45.9172 39.8144 46.1072 40.0043C46.3243 40.1674 46.4873 40.5475 46.65 41.0631L51.2108 59.0352L55.446 41.0631C55.5818 40.5203 55.7448 40.1674 55.9616 40.0043C56.1791 39.8416 56.5592 39.7331 57.0479 39.7331H59.2196C59.7352 39.7331 60.0885 39.8144 60.3053 40.0043C60.5228 40.1674 60.7127 40.5475 60.8212 41.0631L65.1108 59.2524L69.8071 41.0631C69.9698 40.5203 70.1601 40.1674 70.35 40.0043C70.5671 39.8416 70.9201 39.7331 71.4088 39.7331H73.9334C74.368 39.7331 74.6123 39.9502 74.6123 40.4117C74.6123 40.5475 74.5851 40.6833 74.5579 40.846C74.5307 41.009 74.4766 41.2261 74.368 41.5249L67.825 62.5101C67.6624 63.0532 67.4724 63.4062 67.255 63.5689C67.0378 63.7319 66.6849 63.8404 66.2237 63.8404H63.889C63.3731 63.8404 63.0202 63.7591 62.8027 63.5689C62.5856 63.3789 62.3957 63.026 62.2871 62.4832L58.0789 44.9726L53.8982 62.4556C53.7627 62.9988 53.5997 63.3517 53.3825 63.5416C53.1654 63.7319 52.7852 63.8132 52.2968 63.8132H49.9618H49.9621ZM84.8473 64.5463C83.4355 64.5463 82.0238 64.3833 80.6666 64.0576C79.309 63.7319 78.2505 63.3786 77.5447 62.9719C77.1101 62.7272 76.8113 62.4559 76.703 62.2116C76.5973 61.972 76.5418 61.7132 76.54 61.4513V60.0668C76.54 59.4967 76.7571 59.2252 77.1645 59.2252C77.3308 59.2258 77.4958 59.2533 77.6532 59.3068C77.8159 59.3613 78.0603 59.4695 78.3319 59.5781C79.2907 59.9998 80.2917 60.3184 81.318 60.5283C82.3814 60.7441 83.4637 60.8532 84.5488 60.854C86.259 60.854 87.5893 60.5555 88.5123 59.9582C89.4353 59.3609 89.924 58.4924 89.924 57.3792C89.924 56.6192 89.6797 55.9947 89.191 55.4787C88.7022 54.9631 87.7793 54.5016 86.4492 54.067L82.5126 52.8455C80.5308 52.221 79.0649 51.298 78.1688 50.0762C77.2731 48.8817 76.8116 47.5516 76.8116 46.1399C76.8116 44.9998 77.0559 43.9951 77.5447 43.1262C78.0331 42.2577 78.6848 41.4977 79.4992 40.9004C80.3136 40.2759 81.2366 39.8144 82.3226 39.4887C83.4083 39.163 84.5485 39.0272 85.743 39.0272C86.3403 39.0272 86.9648 39.0544 87.5621 39.1358C88.1866 39.2171 88.7567 39.3257 89.3268 39.4343C89.8696 39.5701 90.3855 39.7059 90.8743 39.8689C91.363 40.0316 91.7428 40.1946 92.0144 40.3573C92.3945 40.5747 92.6658 40.7919 92.8288 41.0362C92.9918 41.2534 93.0732 41.5518 93.0732 41.932V43.2079C93.0732 43.778 92.856 44.0768 92.4487 44.0768C92.2315 44.0768 91.8786 43.9679 91.4174 43.7508C89.8696 43.0449 88.1322 42.692 86.2048 42.692C84.6573 42.692 83.4355 42.9363 82.5939 43.4523C81.7526 43.9679 81.318 44.7554 81.318 45.8683C81.318 46.6286 81.5896 47.28 82.1324 47.796C82.6756 48.3116 83.6799 48.8275 85.1188 49.289L88.9738 50.5108C90.9284 51.1353 92.3401 52.0039 93.1817 53.1168C94.0234 54.23 94.4308 55.506 94.4308 56.9177C94.4308 58.085 94.1861 59.1438 93.7246 60.0668C93.2362 60.9898 92.5845 61.8042 91.7428 62.4559C90.9012 63.1346 89.8968 63.6233 88.7295 63.9762C87.5077 64.3564 86.2318 64.5463 84.8473 64.5463Z" fill="#252F3E"/>
<path d="M89.9781 77.7401C81.0467 84.3372 68.0697 87.8393 56.9121 87.8393C41.2747 87.8393 27.1851 82.0566 16.5432 72.4462C15.7015 71.6862 16.4615 70.6547 17.4658 71.2516C28.9767 77.9304 43.1751 81.9753 57.8623 81.9753C67.7712 81.9753 78.6575 79.9121 88.6753 75.677C90.1684 74.9981 91.4443 76.6544 89.9781 77.7401ZM93.6977 73.505C92.5575 72.0392 86.1504 72.7991 83.2456 73.1521C82.3767 73.261 82.2409 72.5007 83.0285 71.9306C88.1322 68.3469 96.5211 69.3787 97.4982 70.573C98.4756 71.7948 97.2266 80.1834 92.4486 84.2014C91.7159 84.8259 91.01 84.5002 91.3357 83.6858C92.4214 80.9978 94.8378 74.9439 93.6977 73.505Z" fill="#FF9900"/>
</g>
<defs>
<clipPath id="clip0_706_164">
<rect width="81.9869" height="49" fill="white" transform="translate(16 39)"/>
</clipPath>
</defs>
</svg>
