<svg width="115" height="115" viewBox="0 0 115 115" fill="none" xmlns="http://www.w3.org/2000/svg">
<path d="M57.75 1.87639L105.546 29.4717C105.701 29.561 105.796 29.7261 105.796 29.9047V85.0953C105.796 85.2739 105.701 85.439 105.546 85.5283L57.75 113.124C57.5953 113.213 57.4047 113.213 57.25 113.124L9.45354 85.5283C9.29884 85.439 9.20354 85.2739 9.20354 85.0953V29.9047C9.20354 29.7261 9.29884 29.561 9.45354 29.4717L57.25 1.87639C57.4047 1.78707 57.5953 1.78707 57.75 1.87639Z" stroke="#4F89FD" stroke-width="3"/>
<g clip-path="url(#clip0_705_154)">
<path d="M35.9546 29C31.8464 29 28.8064 32.5958 28.9425 36.4953C29.0733 40.2416 28.9034 45.094 27.6819 49.0509C26.4568 53.0193 24.3846 55.5331 21 55.856V59.4999C24.3846 59.8228 26.4568 62.3366 27.6819 66.3053C28.9034 70.2622 29.0733 75.114 28.9425 78.8606C28.8064 82.7595 31.8464 86.3559 35.9552 86.3559H78.0507C82.1592 86.3559 85.1984 82.7601 85.0623 78.8606C84.9318 75.1143 85.1014 70.2622 86.3228 66.3053C87.5488 62.3368 89.6154 59.8225 93 59.4999V55.856C89.6154 55.5331 87.5488 53.0193 86.3231 49.0509C85.1014 45.0945 84.9318 40.2418 85.0623 36.4953C85.1984 32.5963 82.1592 29 78.0507 29H35.9541H35.9546ZM69.8137 64.3062C69.8137 69.6758 65.8088 72.9321 59.1623 72.9321H47.8476C47.524 72.932 47.2136 72.8034 46.9848 72.5746C46.756 72.3457 46.6275 72.0354 46.6275 71.7117V43.6441C46.6275 43.4838 46.659 43.3251 46.7203 43.177C46.7816 43.0289 46.8715 42.8944 46.9848 42.781C47.0982 42.6677 47.2327 42.5778 47.3808 42.5164C47.5289 42.4551 47.6876 42.4235 47.8478 42.4235H59.0976C64.6396 42.4235 68.2767 45.4258 68.2767 50.035C68.2767 53.2702 65.8298 56.1665 62.7127 56.6736V56.8426C66.9565 57.3081 69.8137 60.2469 69.8137 64.3062ZM57.9281 46.2921H51.4771V55.4046H56.9108C61.111 55.4046 63.4274 53.7132 63.4274 50.6897C63.4274 47.8567 61.4353 46.2921 57.9281 46.2921ZM51.4771 59.0203V69.0624H58.1658C62.5387 69.0624 64.8556 67.3077 64.8556 64.0097C64.8556 60.7112 62.4743 59.0198 57.8845 59.0198H51.4771V59.0203Z" fill="#7E13F8"/>
</g>
<defs>
<clipPath id="clip0_705_154">
<rect width="72" height="57.375" fill="white" transform="translate(21 29)"/>
</clipPath>
</defs>
</svg>
