<svg width="115" height="115" viewBox="0 0 115 115" fill="none" xmlns="http://www.w3.org/2000/svg">
<g clip-path="url(#clip0_705_141)">
<path d="M56.9363 59.9386V68.0449C70.6763 68.0449 81.3744 54.7713 76.8798 40.3735C74.9156 34.0817 69.916 29.0821 63.6242 27.1179C49.2261 22.6232 35.9524 33.3214 35.9524 47.0613H44.0775C44.0784 47.0613 44.0794 47.0594 44.0794 47.0594C44.0807 38.4362 52.614 31.7701 61.6797 35.0598C65.0384 36.2785 67.7172 38.957 68.9369 42.3153C72.227 51.3755 65.5703 59.9058 56.955 59.9179V51.8379L56.9537 51.8372H48.8536C48.853 51.8372 48.8523 51.8385 48.8523 51.8385V59.9386H56.9363ZM48.8507 66.1645H42.6271L42.6258 66.1628V59.9386H48.8523V66.1631C48.8523 66.1631 48.8517 66.1645 48.8507 66.1645ZM42.6301 59.9386H37.4129C37.4106 59.9386 37.409 59.9373 37.409 59.9373V54.7224C37.409 54.7224 37.4106 54.7185 37.4129 54.7185H42.6262C42.6285 54.7185 42.6301 54.7201 42.6301 54.7201V59.9386ZM22.2503 76.2681C21.194 75.535 19.8795 75.1636 18.3436 75.1636H15V85.7716H18.3436C19.8759 85.7716 21.1907 85.3795 22.2516 84.6067C22.8291 84.1969 23.2825 83.6243 23.6002 82.9057C23.9158 82.1904 24.0759 81.3471 24.0759 80.3988C24.0759 79.4614 23.9158 78.6286 23.5995 77.9238C23.2825 77.215 22.8284 76.6582 22.2503 76.2681ZM16.953 76.9565H18.0023C19.1701 76.9565 20.1312 77.1862 20.8603 77.64C21.6691 78.1279 22.0796 79.0558 22.0796 80.3985C22.0796 81.7816 21.6682 82.7515 20.857 83.2827H20.8564C20.1585 83.7441 19.203 83.9784 18.0168 83.9784H16.953V76.9565ZM25.4452 85.7716H27.3254V78.3002H25.4452V85.7716ZM26.4033 75.033C26.0818 75.033 25.8052 75.1469 25.582 75.37C25.3566 75.5849 25.2421 75.8576 25.2421 76.1798C25.2421 76.5014 25.356 76.778 25.5807 77.0024C25.8052 77.2275 26.0821 77.3414 26.4033 77.3414C26.7246 77.3414 27.0012 77.2275 27.2263 77.0024C27.4514 76.7777 27.5649 76.5007 27.5649 76.1798C27.5649 75.8579 27.4507 75.5856 27.2263 75.3716C27.1193 75.2622 26.9912 75.1758 26.8497 75.1175C26.7082 75.0593 26.5563 75.0306 26.4033 75.033ZM34.153 78.9246C33.586 78.4199 32.953 78.1259 32.2686 78.1259C31.2307 78.1259 30.3681 78.4849 29.7049 79.1923C29.0336 79.8939 28.6927 80.7969 28.6927 81.8764C28.6927 82.9307 29.028 83.8307 29.6908 84.5526C30.3585 85.2508 31.2261 85.6045 32.2686 85.6045C32.9934 85.6045 33.6165 85.4028 34.1241 85.0041V85.1763C34.1241 85.7962 33.9581 86.2785 33.6309 86.6096C33.3038 86.9403 32.8503 87.108 32.2833 87.108C31.4154 87.108 30.8714 86.7668 30.2093 85.872L28.9289 87.1021L28.9634 87.1507C29.24 87.5385 29.6636 87.9185 30.2227 88.2794C30.7818 88.6387 31.4847 88.8215 32.3122 88.8215C33.4285 88.8215 34.3312 88.4773 34.9963 87.799C35.6647 87.1169 36.0036 86.2037 36.0036 85.0855V78.2998H34.153V78.9243V78.9246ZM33.6598 83.3369C33.3314 83.7103 32.9094 83.8911 32.3703 83.8911C31.8312 83.8911 31.4115 83.7103 31.0876 83.3375C30.7657 82.9668 30.602 82.4746 30.602 81.8761C30.602 81.2677 30.7657 80.77 31.088 80.3962C31.4072 80.0268 31.8387 79.8391 32.3703 79.8391C32.9087 79.8391 33.331 80.0215 33.6598 80.3972C33.987 80.7706 34.153 81.268 34.153 81.8761C34.153 82.4746 33.987 82.9664 33.6598 83.3369ZM37.6127 85.7716H39.4929V78.3002H37.6127V85.7716ZM38.5709 75.033C38.2496 75.033 37.9727 75.1469 37.7496 75.37C37.5241 75.5849 37.4096 75.8576 37.4096 76.1798C37.4096 76.5014 37.5235 76.778 37.7483 77.0024C37.9727 77.2275 38.2496 77.3414 38.5712 77.3414C38.7242 77.3438 38.8761 77.315 39.0176 77.2567C39.1591 77.1984 39.2872 77.1119 39.3941 77.0024C39.6189 76.7777 39.7327 76.5007 39.7327 76.1798C39.7327 75.8579 39.6179 75.5856 39.3941 75.3716C39.2871 75.2623 39.159 75.1758 39.0175 75.1176C38.876 75.0594 38.7238 75.0306 38.5709 75.033ZM43.6138 76.2815H41.7632V78.3002H40.6879V80.0136H41.7629V83.117C41.7629 84.0883 41.9568 84.7833 42.3397 85.1823C42.7236 85.5832 43.4051 85.7863 44.3655 85.7863C44.671 85.7863 44.9785 85.7762 45.279 85.7568L45.3637 85.7509V84.0387L44.7193 84.0725C44.2714 84.0725 43.9728 83.9938 43.8307 83.8392C43.6863 83.6817 43.6138 83.349 43.6138 82.8506V80.0136H45.3637V78.3002H43.6138V76.2815ZM51.8163 78.859C51.2463 78.3727 50.4588 78.1259 49.4754 78.1259C48.8497 78.1259 48.2647 78.2631 47.7357 78.5315C47.2462 78.7799 46.7655 79.191 46.46 79.7291L46.479 79.7521L47.6829 80.9045C48.1787 80.1137 48.7303 79.8391 49.4613 79.8391C49.8541 79.8391 50.1799 79.9447 50.4306 80.1524C50.68 80.3588 50.8014 80.6213 50.8014 80.9537V81.3166C50.3532 81.1776 49.8869 81.1058 49.4177 81.1033C48.4819 81.1033 47.7206 81.3232 47.1553 81.7573C46.5824 82.197 46.2923 82.8253 46.2923 83.6263C46.2923 84.3281 46.5367 84.8984 47.0214 85.3224C47.5103 85.7312 48.1206 85.9389 48.8369 85.9389C49.5525 85.9389 50.2222 85.6502 50.8303 85.1563V85.7716H52.6812V80.9685C52.6812 80.0592 52.3902 79.3495 51.8163 78.859ZM48.4783 82.9166C48.6915 82.7679 48.9928 82.6928 49.374 82.6928C49.8265 82.6928 50.3063 82.7837 50.8014 82.9631V83.6962C50.3925 84.0758 49.8465 84.2688 49.1782 84.2688C48.8527 84.2688 48.5997 84.1966 48.4258 84.0532C48.2551 83.9134 48.1721 83.7352 48.1721 83.5098C48.1721 83.2535 48.2722 83.0593 48.4783 82.9166ZM54.1791 85.7716H56.0593V75.1633H54.1791V85.7716ZM62.881 85.9314C59.8655 85.9314 57.4121 83.4783 57.4121 80.4628C57.4121 77.4474 59.8652 74.994 62.8807 74.994C65.8961 74.994 68.3492 77.4474 68.3492 80.4628C68.3492 83.4783 65.8961 85.9314 62.8807 85.9314H62.881ZM62.881 76.921C60.928 76.921 59.3395 78.5098 59.3395 80.4628C59.3395 82.4155 60.928 84.004 62.8807 84.004C64.8333 84.004 66.4221 82.4158 66.4221 80.4628C66.4221 78.5098 64.8333 76.9214 62.8807 76.9214L62.881 76.921ZM75.0531 83.1C74.7168 83.477 74.3729 83.8038 74.1078 83.9734V83.9738C73.8479 84.1405 73.5198 84.2254 73.1329 84.2254C72.5787 84.2254 72.1335 84.0236 71.7705 83.6079C71.4096 83.1945 71.2268 82.6636 71.2268 82.0283C71.2268 81.3937 71.4073 80.8635 71.7637 80.453C72.1216 80.0395 72.5646 79.8394 73.1182 79.8394C73.7239 79.8394 74.3624 80.2158 74.9094 80.8628L76.152 79.6711C75.3415 78.6165 74.3083 78.1259 73.0748 78.1259C72.0426 78.1259 71.1478 78.502 70.4154 79.2432C69.687 79.9788 69.3175 80.9163 69.3175 82.0283C69.3175 83.1407 69.6866 84.0804 70.4144 84.8213C71.1428 85.5629 72.038 85.9389 73.0748 85.9389C74.4359 85.9389 75.5348 85.3512 76.2754 84.2747L75.0531 83.1ZM82.7693 79.3439C82.5029 78.9725 82.14 78.6736 81.6898 78.4547C81.2415 78.2365 80.7185 78.1259 80.1364 78.1259C79.0871 78.1259 78.228 78.5131 77.5836 79.2776C76.9575 80.0356 76.6406 80.9783 76.6406 82.0795C76.6406 83.2115 76.9884 84.149 77.6748 84.865C78.3573 85.5773 79.2712 85.9389 80.3904 85.9389C81.6583 85.9389 82.6987 85.426 83.4826 84.4148L83.525 84.3603L82.2984 83.1817C82.1849 83.3188 82.0238 83.4744 81.8765 83.6128C81.6911 83.788 81.5165 83.9236 81.3301 84.0164C81.0489 84.1562 80.7339 84.2254 80.3812 84.2254C79.8605 84.2254 79.429 84.0722 79.0992 83.77C78.7908 83.4872 78.6103 83.1059 78.5624 82.635H83.5433L83.5604 81.9489C83.5604 81.4633 83.4941 80.9954 83.3639 80.5577C83.2349 80.1227 83.0339 79.7124 82.7693 79.3439ZM78.6602 81.103C78.7507 80.7453 78.9155 80.4481 79.1514 80.2171C79.406 79.966 79.7377 79.8391 80.1367 79.8391C80.5928 79.8391 80.9456 79.9687 81.1854 80.2253C81.4079 80.4622 81.5333 80.7572 81.5595 81.103H78.6602ZM89.9897 78.859C89.4197 78.3727 88.6319 78.1259 87.6488 78.1259C87.0231 78.1259 86.4381 78.2631 85.9091 78.5315C85.4192 78.7799 84.9385 79.191 84.6334 79.7291L84.6524 79.7521L85.8563 80.9045C86.3521 80.1137 86.9037 79.8391 87.6347 79.8391C88.0275 79.8391 88.3533 79.9447 88.604 80.1524C88.8534 80.3588 88.9748 80.6213 88.9748 80.9537V81.3166C88.5265 81.1776 88.0601 81.1058 87.5908 81.1033C86.6556 81.1033 85.8937 81.3232 85.3283 81.7573C84.7558 82.197 84.4654 82.8253 84.4654 83.6263C84.4654 84.3281 84.7102 84.8984 85.1948 85.3224C85.6834 85.7312 86.294 85.9389 87.01 85.9389C87.726 85.9389 88.3957 85.6502 89.0033 85.1563V85.7716H90.8546V80.9685C90.8546 80.0592 90.5636 79.3495 89.9897 78.859ZM86.6517 82.9166C86.865 82.7679 87.1658 82.6928 87.5475 82.6928C87.9999 82.6928 88.4797 82.7837 88.9748 82.9631V83.6962C88.5656 84.0758 88.02 84.2688 87.3512 84.2688C87.0261 84.2688 86.7731 84.1966 86.5992 84.0532C86.4285 83.9134 86.3455 83.7352 86.3455 83.5098C86.3455 83.2535 86.4456 83.0593 86.6517 82.9166ZM98.0872 79.0056C97.5635 78.4222 96.8278 78.1259 95.8995 78.1259C95.1537 78.1259 94.548 78.3402 94.0949 78.7625V78.2998H92.2511V85.7716H94.1313V81.651C94.1313 81.085 94.2658 80.6354 94.5316 80.3145C94.7967 79.9949 95.1609 79.8391 95.6456 79.8391C96.0715 79.8391 96.394 79.9782 96.6322 80.264C96.8715 80.5511 96.9925 80.9465 96.9925 81.4406V85.7716H98.8727V81.4406C98.8727 80.4057 98.6085 79.5867 98.0872 79.006V79.0056Z" fill="#0080FF"/>
</g>
<path d="M57.75 1.87639L105.546 29.4717C105.701 29.561 105.796 29.7261 105.796 29.9047V85.0953C105.796 85.2739 105.701 85.439 105.546 85.5283L57.75 113.124C57.5953 113.213 57.4047 113.213 57.25 113.124L9.45354 85.5283C9.29884 85.439 9.20354 85.2739 9.20354 85.0953V29.9047C9.20354 29.7261 9.29884 29.561 9.45354 29.4717L57.25 1.87639C57.4047 1.78707 57.5953 1.78707 57.75 1.87639Z" stroke="#4F89FD" stroke-width="3"/>
<defs>
<clipPath id="clip0_705_141">
<rect width="84" height="63" fill="white" transform="translate(15 26)"/>
</clipPath>
</defs>
</svg>
