<svg width="115" height="115" viewBox="0 0 115 115" fill="none" xmlns="http://www.w3.org/2000/svg">
<path d="M57.75 1.87639L105.546 29.4717C105.701 29.561 105.796 29.7261 105.796 29.9047V85.0953C105.796 85.2739 105.701 85.439 105.546 85.5283L57.75 113.124C57.5953 113.213 57.4047 113.213 57.25 113.124L9.45354 85.5283C9.29884 85.439 9.20354 85.2739 9.20354 85.0953V29.9047C9.20354 29.7261 9.29884 29.561 9.45354 29.4717L57.25 1.87639C57.4047 1.78707 57.5953 1.78707 57.75 1.87639Z" stroke="#4F89FD" stroke-width="3"/>
<path fill-rule="evenodd" clip-rule="evenodd" d="M64.0078 48.7344H71.5117V56.3712H75.2969C77.0234 56.3712 78.8164 56.0391 80.4765 55.5079C81.2734 55.2422 82.2031 54.8438 83 54.379C81.9375 52.9844 81.4062 51.2579 81.2734 49.5313C81.0742 47.2071 81.539 44.1524 83.1328 42.3594L83.9297 41.4297L84.8594 42.1602C87.25 44.086 89.1758 46.6758 89.5742 49.7305C92.4297 48.8672 95.75 49.0665 98.2734 50.5274L99.2695 51.1251L98.7383 52.1876C96.6133 56.3047 92.164 57.6329 87.8476 57.3672C81.3398 73.504 67.2617 81.1407 50.1289 81.1407C41.2969 81.1407 33.1953 77.8204 28.5469 69.9844L28.4805 69.8516L27.8164 68.4571C26.2226 65.004 25.7578 61.2188 26.0898 57.4337L26.2226 56.3047H32.5976V48.7344H40.1015V41.2969H55.043V33.793H64.0078V48.7344Z" fill="#3A4D54"/>
<path d="M88.3125 51.5898C88.8438 47.6719 85.9219 44.6172 84.0625 43.1562C82.0039 45.5469 81.6719 51.9219 84.9258 54.5781C83.0664 56.1719 79.2813 57.6992 75.2969 57.6992H27.3516C26.9531 61.8164 27.6836 65.6016 29.3438 68.8555L29.875 69.8516C30.2071 70.4492 30.6055 70.9805 31.0039 71.5781C32.9961 71.7109 34.7891 71.7773 36.4492 71.7109C39.7031 71.6445 42.3594 71.2461 44.418 70.582C44.75 70.4492 45.0156 70.6484 45.1485 70.9141C45.2813 71.2461 45.0821 71.5117 44.8164 71.6445C44.5508 71.7109 44.2852 71.8437 43.9531 71.9102C42.3594 72.375 40.6328 72.6406 38.4414 72.7734H38.043C37.1797 72.8398 36.25 72.8398 35.2539 72.8398C34.1914 72.8398 33.1953 72.8398 32 72.7734C35.9844 77.2891 42.2266 79.9453 50.0625 79.9453C66.6641 79.9453 80.7422 72.5742 86.918 56.1055C91.3672 56.5703 95.6172 55.4414 97.543 51.6562C94.5547 49.8633 90.5703 50.4609 88.3125 51.5898Z" fill="#00AADA"/>
<path d="M88.3125 51.5898C88.8437 47.6719 85.9219 44.6172 84.0625 43.1562C82.0039 45.5469 81.6719 51.9219 84.9258 54.5781C83.0664 56.1719 79.2812 57.6992 75.2969 57.6992H30.1406C29.9414 64.0078 32.2656 68.7891 36.4492 71.6445C39.7031 71.5781 42.3594 71.1797 44.418 70.5156C44.75 70.3828 45.0156 70.582 45.1484 70.8477C45.2812 71.1797 45.082 71.4453 44.8164 71.5781C44.5508 71.6445 44.2852 71.7773 43.9531 71.8437C42.3594 72.3086 40.5 72.6406 38.3086 72.7734L38.2422 72.707C43.8867 75.6289 52.0547 75.5625 61.4844 71.9766C71.9766 67.9258 81.8047 60.2227 88.6445 51.457C88.5117 51.5234 88.3789 51.5234 88.3125 51.5898Z" fill="#28B8EB"/>
<path d="M27.418 62.6797C27.6836 64.8711 28.3477 66.9297 29.3437 68.8555L29.875 69.8516C30.207 70.4492 30.6055 70.9805 31.0039 71.5781C32.9961 71.7109 34.7891 71.7773 36.4492 71.7109C39.7031 71.6445 42.3594 71.2461 44.418 70.582C44.75 70.4492 45.0156 70.6484 45.1484 70.9141C45.2813 71.2461 45.082 71.5117 44.8164 71.6445C44.5508 71.7109 44.2852 71.8437 43.9531 71.9102C42.3594 72.375 40.5 72.707 38.3086 72.8398H38.043C37.1797 72.9062 36.25 72.9062 35.3203 72.9062C34.2578 72.9062 33.1953 72.9062 32.0664 72.8398C36.0508 77.3555 42.3594 80.0117 50.1953 80.0117C64.4062 80.0117 76.7578 74.6328 83.9297 62.7461H27.418V62.6797Z" fill="#028BB8"/>
<path d="M30.6055 62.6797C31.4687 66.5313 33.4609 69.5859 36.4492 71.6445C39.7031 71.5781 42.3594 71.1797 44.418 70.5156C44.75 70.3828 45.0156 70.582 45.1484 70.8477C45.2813 71.1797 45.082 71.4453 44.8164 71.5781C44.5508 71.6445 44.2852 71.7773 43.9531 71.8437C42.3594 72.3086 40.5 72.6406 38.2422 72.7734C43.8867 75.6953 52.0547 75.6289 61.418 72.043C67.0625 69.8516 72.5742 66.5977 77.4883 62.6797H30.6055Z" fill="#019BC6"/>
<path fill-rule="evenodd" clip-rule="evenodd" d="M33.8594 49.9961H40.3672V56.5039H33.8594V49.9961ZM34.3906 50.5273H34.9219V55.9062H34.3906V50.5273ZM35.3203 50.5273H35.8516V55.9062H35.3203V50.5273ZM36.3164 50.5273H36.8477V55.9062H36.3164V50.5273ZM37.3125 50.5273H37.8438V55.9062H37.3125V50.5273ZM38.3086 50.5273H38.8398V55.9062H38.3086V50.5273ZM39.3047 50.5273H39.8359V55.9062H39.3047V50.5273ZM41.2969 42.5586H47.8047V49.0664H41.2969V42.5586ZM41.8945 43.0898H42.4258V48.4688H41.8945V43.0898ZM42.8242 43.0898H43.3555V48.4688H42.8242V43.0898ZM43.8203 43.0898H44.3516V48.4688H43.8203V43.0898ZM44.8164 43.0898H45.3477V48.4688H44.8164V43.0898ZM45.7461 43.0898H46.2773V48.4688H45.7461V43.0898ZM46.7422 43.0898H47.2734V48.4688H46.7422V43.0898Z" fill="#00ACD3"/>
<path fill-rule="evenodd" clip-rule="evenodd" d="M41.2969 49.9961H47.8047V56.5039H41.2969V49.9961ZM41.8945 50.5273H42.4258V55.9062H41.8945V50.5273ZM42.8242 50.5273H43.3555V55.9062H42.8242V50.5273ZM43.8203 50.5273H44.3516V55.9062H43.8203V50.5273ZM44.8164 50.5273H45.3477V55.9062H44.8164V50.5273ZM45.7461 50.5273H46.2773V55.9062H45.7461V50.5273ZM46.7422 50.5273H47.2734V55.9062H46.7422V50.5273Z" fill="#23C2EE"/>
<path fill-rule="evenodd" clip-rule="evenodd" d="M48.8008 49.9961H55.3086V56.5039H48.8008V49.9961ZM49.332 50.5273H49.8633V55.9062H49.332V50.5273ZM50.3281 50.5273H50.8594V55.9062H50.3281V50.5273ZM51.3242 50.5273H51.8555V55.9062H51.3242V50.5273ZM52.2539 50.5273H52.7852V55.9062H52.2539V50.5273ZM53.25 50.5273H53.7812V55.9062H53.25V50.5273ZM54.2461 50.5273H54.7773V55.9062H54.2461V50.5273Z" fill="#00ACD3"/>
<path fill-rule="evenodd" clip-rule="evenodd" d="M48.8008 42.5586H55.3086V49.0664H48.8008V42.5586ZM49.332 43.0898H49.8633V48.4688H49.332V43.0898ZM50.3281 43.0898H50.8594V48.4688H50.3281V43.0898ZM51.3242 43.0898H51.8555V48.4688H51.3242V43.0898ZM52.2539 43.0898H52.7852V48.4688H52.2539V43.0898ZM53.25 43.0898H53.7812V48.4688H53.25V43.0898ZM54.2461 43.0898H54.7773V48.4688H54.2461V43.0898ZM56.3047 49.9961H62.8125V56.5039H56.3047V49.9961ZM56.8359 50.5273H57.3672V55.9062H56.8359V50.5273ZM57.832 50.5273H58.3633V55.9062H57.832V50.5273ZM58.7617 50.5273H59.293V55.9062H58.7617V50.5273ZM59.7578 50.5273H60.2891V55.9062H59.7578V50.5273ZM60.7539 50.5273H61.2852V55.9062H60.7539V50.5273ZM61.75 50.5273H62.2812V55.9062H61.75V50.5273Z" fill="#23C2EE"/>
<path fill-rule="evenodd" clip-rule="evenodd" d="M56.3047 42.5586H62.8125V49.0664H56.3047V42.5586ZM56.8359 43.0898H57.3672V48.4688H56.8359V43.0898ZM57.832 43.0898H58.3633V48.4688H57.832V43.0898ZM58.7617 43.0898H59.293V48.4688H58.7617V43.0898ZM59.7578 43.0898H60.2891V48.4688H59.7578V43.0898ZM60.7539 43.0898H61.2852V48.4688H60.7539V43.0898ZM61.75 43.0898H62.2812V48.4688H61.75V43.0898Z" fill="#00ACD3"/>
<path fill-rule="evenodd" clip-rule="evenodd" d="M56.3047 35.0547H62.8125V41.5625H56.3047V35.0547ZM56.8359 35.5859H57.3672V40.9648H56.8359V35.5859ZM57.832 35.5859H58.3633V40.9648H57.832V35.5859ZM58.7617 35.5859H59.293V40.9648H58.7617V35.5859ZM59.7578 35.5859H60.2891V40.9648H59.7578V35.5859ZM60.7539 35.5859H61.2852V40.9648H60.7539V35.5859ZM61.75 35.5859H62.2812V40.9648H61.75V35.5859Z" fill="#23C2EE"/>
<path fill-rule="evenodd" clip-rule="evenodd" d="M63.8086 49.9961H70.3164V56.5039H63.8086V49.9961ZM64.3398 50.5273H64.8711V55.9062H64.3398V50.5273ZM65.2695 50.5273H65.8008V55.9062H65.2695V50.5273ZM66.2656 50.5273H66.7969V55.9062H66.2656V50.5273ZM67.2617 50.5273H67.793V55.9062H67.2617V50.5273ZM68.2578 50.5273H68.7891V55.9062H68.2578V50.5273ZM69.2539 50.5273H69.7852V55.9062H69.2539V50.5273Z" fill="#00ACD3"/>
<path fill-rule="evenodd" clip-rule="evenodd" d="M47.4063 66.9961C48.4023 66.9961 49.1992 67.793 49.1992 68.7891C49.1992 69.7852 48.4023 70.582 47.4063 70.582C46.4102 70.582 45.6133 69.7852 45.6133 68.7891C45.6133 67.793 46.4102 66.9961 47.4063 66.9961Z" fill="#D4EEF1"/>
<path fill-rule="evenodd" clip-rule="evenodd" d="M47.4063 67.5273C47.5391 67.5273 47.7383 67.5273 47.8711 67.5937C47.7383 67.6602 47.6055 67.8594 47.6055 68.0586C47.6055 68.3242 47.8711 68.5898 48.1367 68.5898C48.3359 68.5898 48.5352 68.457 48.6016 68.3242C48.668 68.457 48.668 68.6563 48.668 68.7891C48.668 69.5195 48.0703 70.0508 47.4063 70.0508C46.6758 70.0508 46.1445 69.4531 46.1445 68.7891C46.1445 68.125 46.6758 67.5273 47.4063 67.5273ZM15.7305 63.3438H99.0039C97.2109 62.8789 93.293 62.2812 93.8906 59.8906C90.5703 63.6758 82.668 62.5469 80.6094 60.6875C78.3516 63.9414 65.3359 62.6797 64.4727 60.1563C61.6836 63.4766 52.9844 63.4766 50.1953 60.1563C49.2656 62.6797 36.25 63.9414 34.0586 60.6875C32.0664 62.5469 24.0977 63.6758 20.7773 59.8906C21.5078 62.2148 17.5234 62.8789 15.7305 63.3438Z" fill="#3A4D54"/>
<path d="M52.1875 79.9453C47.7383 77.8203 45.3477 74.9648 43.9531 71.8438C42.293 72.3086 40.3008 72.6406 38.043 72.7734C37.1797 72.8398 36.25 72.8398 35.3203 72.8398C34.1914 72.8398 33.0625 72.8398 31.8672 72.7734C35.8516 76.7578 40.8984 79.8789 50.1289 79.9453H52.1875Z" fill="#BFDBE0"/>
<path d="M45.6133 74.6992C45.0156 73.8359 44.418 72.8398 43.9531 71.8438C42.293 72.3086 40.3008 72.6406 38.043 72.7734C39.5703 73.5703 41.8281 74.3672 45.6133 74.6992Z" fill="#D4EEF1"/>
</svg>
