<svg width="115" height="115" viewBox="0 0 115 115" fill="none" xmlns="http://www.w3.org/2000/svg">
<path d="M57.75 1.87639L105.546 29.4717C105.701 29.561 105.796 29.7261 105.796 29.9047V85.0953C105.796 85.2739 105.701 85.439 105.546 85.5283L57.75 113.124C57.5953 113.213 57.4047 113.213 57.25 113.124L9.45354 85.5283C9.29884 85.439 9.20354 85.2739 9.20354 85.0953V29.9047C9.20354 29.7261 9.29884 29.561 9.45354 29.4717L57.25 1.87639C57.4047 1.78707 57.5953 1.78707 57.75 1.87639Z" stroke="#4F89FD" stroke-width="3"/>
<g clip-path="url(#clip0_705_94)">
<path d="M91.661 53.3368L60.6617 22.3392C58.8776 20.5539 55.9821 20.5539 54.1957 22.3392L47.7586 28.7763L55.9244 36.9422C57.822 36.301 59.998 36.7311 61.5107 38.2437C63.0305 39.7661 63.4576 41.9607 62.8009 43.8644L70.6705 51.7343C72.5745 51.0784 74.7713 51.5027 76.292 53.0259C78.4173 55.1503 78.4173 58.5936 76.292 60.7194C74.1661 62.8455 70.7229 62.8455 68.596 60.7194C66.9974 59.1191 66.6024 56.7714 67.4117 54.802L60.0726 47.4629L60.0718 66.7763C60.6038 67.0394 61.0897 67.3869 61.5107 67.8053C63.636 69.9297 63.636 73.3732 61.5107 75.5007C59.3848 77.6257 55.9399 77.6257 53.8172 75.5007C51.6919 73.3732 51.6919 69.93 53.8172 67.8055C54.3265 67.296 54.9317 66.8924 55.598 66.6182V47.1248C54.9308 46.8525 54.3252 46.4487 53.8172 45.9375C52.2069 44.3295 51.8197 41.9668 52.6448 39.9896L44.5952 31.9392L23.3396 53.1934C21.5535 54.9803 21.5535 57.8761 23.3396 59.6616L54.3394 90.6598C56.1241 92.4453 59.019 92.4453 60.8059 90.6598L91.6607 59.8056C93.4462 58.0195 93.4465 55.1221 91.661 53.3368Z" fill="#DE4C36"/>
</g>
<defs>
<clipPath id="clip0_705_94">
<rect width="71" height="71" fill="white" transform="translate(22 21)"/>
</clipPath>
</defs>
</svg>
