<svg width="115" height="115" viewBox="0 0 115 115" fill="none" xmlns="http://www.w3.org/2000/svg">
<path d="M57.75 1.87639L105.546 29.4717C105.701 29.561 105.796 29.7261 105.796 29.9047V85.0953C105.796 85.2739 105.701 85.439 105.546 85.5283L57.75 113.124C57.5953 113.213 57.4047 113.213 57.25 113.124L9.45354 85.5283C9.29884 85.439 9.20354 85.2739 9.20354 85.0953V29.9047C9.20354 29.7261 9.29884 29.561 9.45354 29.4717L57.25 1.87639C57.4047 1.78707 57.5953 1.78707 57.75 1.87639Z" stroke="#4F89FD" stroke-width="3"/>
<g clip-path="url(#clip0_705_147)">
<path d="M71.3438 31H42.6562C35.6664 31 30 36.6664 30 43.6562V72.3438C30 79.3336 35.6664 85 42.6562 85H71.3438C78.3336 85 84 79.3336 84 72.3438V43.6562C84 36.6664 78.3336 31 71.3438 31Z" fill="#430098"/>
<path d="M44.7656 76.9844V66.1361L50.8678 71.5603L44.7656 76.9844ZM63.75 76.9844V60.7867C63.7236 59.5209 63.114 58 60.36 58C54.8451 58 48.6587 60.7738 48.5971 60.8015L44.7656 62.5373V39.0156H50.1897V54.4141C52.8977 53.5326 56.683 52.576 60.36 52.576C63.7127 52.576 65.7195 53.8939 66.8126 54.9998C69.1456 57.3592 69.1774 60.3648 69.1743 60.712V76.9844H63.75ZM65.1061 47.8299H59.6819C61.8136 45.0328 63.152 42.0898 63.75 39.0156H69.174C68.8081 42.0966 67.5591 45.0499 65.1061 47.8299Z" fill="white"/>
</g>
<defs>
<clipPath id="clip0_705_147">
<rect width="54" height="54" fill="white" transform="translate(30 31)"/>
</clipPath>
</defs>
</svg>
