<svg width="115" height="115" viewBox="0 0 115 115" fill="none" xmlns="http://www.w3.org/2000/svg">
<path d="M57.75 1.87639L105.546 29.4717C105.701 29.561 105.796 29.7261 105.796 29.9047V85.0953C105.796 85.2739 105.701 85.439 105.546 85.5283L57.75 113.124C57.5953 113.213 57.4047 113.213 57.25 113.124L9.45354 85.5283C9.29884 85.439 9.20354 85.2739 9.20354 85.0953V29.9047C9.20354 29.7261 9.29884 29.561 9.45354 29.4717L57.25 1.87639C57.4047 1.78707 57.5953 1.78707 57.75 1.87639Z" stroke="#4F89FD" stroke-width="3"/>
<path d="M87.5337 23.4663L82.0614 84.0487L57.4632 90.7878L32.9329 84.058L27.4662 23.4663H87.5337Z" fill="#E44D26"/>
<path d="M57.5 85.6366L77.3766 80.191L82.0528 28.4205H57.5V85.6366Z" fill="#F16529"/>
<path d="M46.8621 43.2833H57.5V35.852H38.6439L38.8238 37.8457L40.6721 58.3244H57.5V50.8931H47.5494L46.8621 43.2833V43.2833ZM48.5569 62.0402H41.0081L42.0616 73.7086L57.4654 77.9342L57.5 77.9248V70.1931L57.4671 70.2017L49.0923 67.967L48.5569 62.0402V62.0402Z" fill="#EBEBEB"/>
<path d="M57.4741 58.3244H66.7339L65.8608 67.9623L57.4738 70.1994V77.9307L72.8899 73.7085L73.0029 72.453L74.7703 52.8886L74.9537 50.8931H57.4741V58.3244ZM57.4741 43.2652V43.2833H75.6379L75.7886 41.6131L76.1314 37.8457L76.3111 35.852H57.4741V43.2654V43.2652Z" fill="white"/>
</svg>
