<svg width="35" height="35" viewBox="0 0 35 35" fill="none" xmlns="http://www.w3.org/2000/svg">
<g clip-path="url(#clip0_16_28)">
<path d="M23.4596 26.0317H22.3009C21.0327 27.1847 19.7644 28.2397 18.4961 29.1851V32.2058C20.5196 31.6351 22.3009 29.3061 23.4596 26.0317Z" fill="white"/>
<path d="M22.7909 3.62988C23.9092 5.0077 24.8373 6.81773 25.5118 8.94496H29.6336C27.9446 6.55833 25.5695 4.6906 22.7909 3.62988Z" fill="white"/>
<path d="M18.4904 26.7351C18.7729 26.5102 19.0611 26.2738 19.3436 26.0317H18.4904V26.7351Z" fill="white"/>
<path d="M18.4904 2.7998V8.9392H23.4423C22.2894 5.68795 20.5081 3.37631 18.4904 2.7998Z" fill="white"/>
<path d="M18.4904 16.5141H24.8086C24.7394 14.5138 24.4627 12.6057 24.0304 10.882H18.4905V16.5141H18.4904Z" fill="white"/>
<path d="M25.5291 26.0317C24.8489 28.1705 23.9092 29.9921 22.7851 31.3814C25.5752 30.3207 27.9618 28.4414 29.6567 26.0317H25.5291Z" fill="white"/>
<path d="M26.0422 10.8936C26.44 12.6288 26.6879 14.5253 26.7455 16.5257H28.2329C29.3974 14.9001 30.3889 13.286 31.1671 11.7238C31.0518 11.4413 30.925 11.1646 30.7866 10.8994H26.0422V10.8936Z" fill="white"/>
<path d="M32.0087 14.3004C31.5879 15.0383 31.1325 15.7761 30.6425 16.514H32.3258C32.2796 15.7646 32.1701 15.0267 32.0087 14.3004Z" fill="white"/>
<path d="M26.7702 18.4568H26.757C26.757 18.4634 26.757 18.4699 26.757 18.4699C26.757 18.4699 26.757 18.4633 26.7702 18.4568Z" fill="white"/>
<path d="M22.8486 22.8265C23.4539 22.2212 24.0419 21.5985 24.6068 20.9817C24.7106 20.1631 24.7797 19.3215 24.8143 18.4625H18.4904V24.0947H21.5342C21.9781 23.6796 22.4105 23.2588 22.8486 22.8265Z" fill="white"/>
<path d="M16.5477 10.8936H11.0078C10.5755 12.6172 10.2987 14.5196 10.2296 16.5257H16.5478V10.8936H16.5477Z" fill="white"/>
<path d="M5.40448 8.95082H9.52624C10.2064 6.82939 11.1404 5.01347 12.2472 3.63574C9.48013 4.69066 7.09939 6.55839 5.40448 8.95082Z" fill="white"/>
<path d="M2.71838 16.5141H8.29287C8.35627 14.5138 8.59838 12.623 8.99618 10.882H4.2403C3.38139 12.6057 2.85098 14.508 2.71838 16.5141Z" fill="white"/>
<path d="M8.99019 24.0888C8.59239 22.3536 8.35029 20.4571 8.29268 18.4567H2.7124C2.845 20.4686 3.37532 22.3709 4.22273 24.0888H8.99019Z" fill="white"/>
<path d="M11.6016 8.95079H16.5534V2.7998C14.5358 3.37631 12.7603 5.68794 11.6016 8.95079Z" fill="white"/>
<path d="M16.5477 18.4568H10.2295C10.2987 20.4571 10.5696 22.3595 11.002 24.0889H16.5477V18.4568Z" fill="white"/>
<path d="M26.4572 21.8466C26.3477 22.6133 26.2151 23.3627 26.0479 24.0834H30.8096C31.6628 22.3654 32.1931 20.4631 32.3199 18.4512H29.2531C28.4115 19.5868 27.4834 20.7167 26.4572 21.8466Z" fill="white"/>
<path d="M16.5477 30.58C16.0635 30.9028 15.5965 31.2026 15.1238 31.4908C15.5792 31.8309 16.0634 32.0673 16.5477 32.2056V30.58Z" fill="white"/>
<path d="M16.5477 26.0317H11.5842C12.1491 27.6401 12.8755 29.0179 13.6942 30.0671C14.6165 29.5252 15.5677 28.9026 16.5477 28.2051V26.0317Z" fill="white"/>
<path d="M5.38727 26.0317C6.97259 28.28 9.16313 30.0555 11.717 31.1508C11.8092 31.1104 11.8899 31.0586 11.9764 31.0182C10.9791 29.6808 10.1374 27.9918 9.50903 26.0317H5.38727Z" fill="white"/>
<path d="M33.5944 1.42162C31.5941 -0.578709 27.922 -0.457702 23.2352 1.71562C21.4482 1.07001 19.5285 0.706809 17.5166 0.706809C8.2642 0.712606 0.735498 8.2471 0.735498 17.4994C0.735498 19.5056 1.0929 21.4368 1.74431 23.218C-0.434721 27.9105 -0.613423 31.6518 1.44451 33.583C4.18855 36.154 8.85791 34.7129 11.7806 33.2775C13.5735 33.9347 15.5104 34.2921 17.5223 34.2921C26.7747 34.2921 34.3092 26.7634 34.3092 17.5051C34.3092 15.499 33.9575 13.5794 33.3118 11.7923C35.5256 6.94429 35.5026 3.32975 33.5944 1.42162ZM32.2224 2.79943C33.3753 3.95235 33.3523 6.32168 32.2109 9.38852C30.6833 6.63298 28.4005 4.35015 25.6449 2.82253C28.6829 1.68682 31.081 1.65802 32.2224 2.79943ZM28.239 16.5137H26.7516C26.6882 14.5134 26.4461 12.6226 26.0483 10.8815H30.8042C30.9426 11.1525 31.0636 11.4234 31.1847 11.7059C30.4008 13.274 29.4035 14.8938 28.239 16.5137ZM32.0091 14.3001C32.1647 15.0149 32.2685 15.7528 32.3262 16.5137H30.6429C31.1444 15.7758 31.5883 15.0379 32.0091 14.3001ZM26.7689 18.4564C26.7632 18.4622 26.7632 18.4679 26.7574 18.4679C26.7574 18.4621 26.7574 18.4564 26.7574 18.4564H26.7689ZM25.518 8.95041C24.8378 6.82899 23.9039 5.01307 22.7971 3.63534C25.5757 4.69606 27.9508 6.56379 29.6398 8.95041H25.518ZM18.4908 24.0885V18.4564H24.809C24.7802 19.3153 24.7052 20.157 24.6015 20.9756C24.0366 21.5982 23.4486 22.215 22.8433 22.8203C22.411 23.2526 21.9728 23.6735 21.5405 24.0828H18.4909V24.0885H18.4908ZM19.3555 26.0312C19.073 26.2734 18.7848 26.504 18.5023 26.7346V26.0312H19.3555ZM24.0307 10.8931C24.463 12.6168 24.7398 14.5192 24.8089 16.5253H18.4907V10.8931H24.0307ZM18.4908 8.95041V2.79943C20.5028 3.37014 22.2898 5.68757 23.4427 8.93882H18.4908V8.95041ZM18.4908 29.1846C19.7591 28.2334 21.0273 27.1785 22.2956 26.0312H23.4543C22.2956 29.3056 20.5143 31.6288 18.4908 32.2052V29.1846ZM22.7856 31.3751C23.9097 29.9916 24.8436 28.1642 25.5296 26.0255H29.663C27.9681 28.4352 25.5756 30.3144 22.7856 31.3751ZM30.8216 24.0885H26.0599C26.2271 23.3737 26.3539 22.6185 26.4692 21.8518C27.4954 20.7162 28.4235 19.5863 29.2709 18.4621H32.3377C32.2051 20.4683 31.6747 22.3707 30.8216 24.0885ZM13.7004 30.0666C12.8761 29.0117 12.1554 27.6339 11.5904 26.0312H16.5539V28.2046C15.5796 28.9021 14.6285 29.5247 13.7004 30.0666ZM16.5481 30.5796V32.2052C16.0581 32.0668 15.5854 31.819 15.1242 31.4904C15.5969 31.1964 16.0754 30.8967 16.5481 30.5796ZM11.9882 31.0177C11.896 31.0638 11.8095 31.1099 11.7288 31.1503C9.16931 30.0608 6.97868 28.2737 5.39345 26.0312H9.5268C10.1492 27.9913 10.9851 29.6803 11.9882 31.0177ZM11.0024 24.0885C10.5701 22.3649 10.2991 20.4625 10.2299 18.4564H16.5481V24.0885H11.0024ZM10.2357 16.5137C10.3049 14.5134 10.5816 12.6053 11.0139 10.8815H16.5538V16.5137H10.2357ZM9.52671 8.95041H5.40487C7.09389 6.56379 9.46902 4.69026 12.2476 3.63534C11.1408 5.01307 10.2069 6.82319 9.52671 8.95041ZM8.99631 10.8931C8.59851 12.6284 8.3507 14.5249 8.293 16.5253H2.71853C2.85113 14.5134 3.38724 12.6111 4.24044 10.8931H8.99631ZM8.293 18.4564C8.35641 20.4568 8.59851 22.3476 8.99051 24.0886H4.22894C3.37573 22.3707 2.84542 20.4684 2.71862 18.4564H8.293ZM16.5481 8.95041H11.5962C12.7608 5.69337 14.5363 3.37594 16.5481 2.80523V8.95041ZM2.82233 32.2053C1.68091 31.0639 1.70401 28.6658 2.83383 25.622C4.35575 28.3718 6.63278 30.6431 9.37102 32.1765C6.31577 33.3063 3.94064 33.3294 2.82233 32.2053Z" fill="#194F82"/>
<path d="M26.7702 18.4568H26.757C26.757 18.4634 26.757 18.4699 26.757 18.4699C26.757 18.4699 26.757 18.4633 26.7702 18.4568Z" fill="#56ACE0"/>
<path d="M24.6933 6.78333C24.9988 7.45783 25.2813 8.18414 25.5176 8.93935H27.1548C26.4284 8.12645 25.6041 7.40013 24.6933 6.78333Z" fill="#56ACE0"/>
<path d="M26.0422 10.8936C26.44 12.6288 26.6878 14.5253 26.7455 16.5257H28.2328C28.8439 15.6725 29.4031 14.8251 29.9162 13.9835C29.6049 12.8882 29.1494 11.8563 28.5787 10.8936H26.0422Z" fill="#56ACE0"/>
<path d="M23.4596 26.0317H22.3009C21.0327 27.1847 19.7644 28.2397 18.4961 29.1851V30.3553C19.5683 30.2746 20.6118 30.0671 21.5976 29.7327C22.3182 28.7297 22.9408 27.4787 23.4596 26.0317Z" fill="#56ACE0"/>
<path d="M16.5477 10.8936H11.0078C10.5755 12.6172 10.2987 14.5196 10.2296 16.5257H16.5478V10.8936H16.5477Z" fill="#56ACE0"/>
<path d="M11.6015 8.95083H16.5534V4.65027C15.4812 4.73097 14.4377 4.93848 13.4519 5.27288C12.7372 6.27019 12.1031 7.5154 11.6015 8.95083Z" fill="#56ACE0"/>
<path d="M10.3621 28.2224C10.0508 27.5306 9.76833 26.8042 9.52051 26.0317H7.86029C8.5982 26.8619 9.43402 27.5998 10.3621 28.2224Z" fill="#56ACE0"/>
<path d="M16.5477 28.2107V26.0374H11.5842C12.0915 27.4843 12.7256 28.741 13.452 29.7441C13.6249 29.8017 13.7979 29.8536 13.9708 29.8997C14.8125 29.3924 15.6715 28.8332 16.5477 28.2107Z" fill="#56ACE0"/>
<path d="M11.002 24.0888H16.5477V18.4567H10.2295C10.2987 20.4571 10.5754 22.3652 11.002 24.0888Z" fill="#56ACE0"/>
<path d="M8.99019 24.0888C8.59239 22.3536 8.35028 20.4571 8.29268 18.4567H4.66083C4.81073 20.5031 5.43904 22.4112 6.43056 24.0888H8.99019Z" fill="#56ACE0"/>
<path d="M7.8891 8.95082H9.52632C9.76842 8.18411 10.0509 7.4693 10.3506 6.7948C9.44561 7.4001 8.60971 8.12642 7.8891 8.95082Z" fill="#56ACE0"/>
<path d="M18.4904 8.95086H23.4423C22.935 7.51544 22.3067 6.27022 21.5861 5.273C20.6003 4.9444 19.5626 4.73109 18.4846 4.65039V8.95086H18.4904Z" fill="#56ACE0"/>
<path d="M8.29259 16.5141C8.35599 14.5138 8.5981 12.623 8.9959 10.882H6.45366C5.45634 12.548 4.82223 14.4676 4.66083 16.5141H8.29259Z" fill="#56ACE0"/>
<path d="M27.1893 26.0317H25.5291C25.2812 26.8042 24.9988 27.5364 24.6875 28.2224C25.6098 27.5998 26.4515 26.8619 27.1893 26.0317Z" fill="#56ACE0"/>
<path d="M18.4904 26.0317V26.735C18.7729 26.5102 19.0611 26.2738 19.3436 26.0317H18.4904Z" fill="#56ACE0"/>
<path d="M29.259 18.457C28.4115 19.5811 27.4834 20.711 26.4573 21.8466C26.3478 22.6133 26.2152 23.3627 26.048 24.0834H28.596C29.5876 22.4173 30.216 20.4977 30.3658 18.4512L29.259 18.457Z" fill="#56ACE0"/>
<path d="M22.8486 22.8265C23.4539 22.2212 24.0419 21.5985 24.6068 20.9817C24.7106 20.1631 24.7797 19.3215 24.8143 18.4625H18.4904V24.0947H21.5342C21.9781 23.6796 22.4105 23.2588 22.8486 22.8265Z" fill="#56ACE0"/>
<path d="M24.0303 10.8936H18.4904V16.5199H24.8086C24.7394 14.5138 24.4627 12.6172 24.0303 10.8936Z" fill="#56ACE0"/>
</g>
<defs>
<clipPath id="clip0_16_28">
<rect width="35" height="35" fill="white"/>
</clipPath>
</defs>
</svg>
