<svg width="115" height="115" viewBox="0 0 115 115" fill="none" xmlns="http://www.w3.org/2000/svg">
<path d="M57.75 1.87639L105.546 29.4717C105.701 29.561 105.796 29.7261 105.796 29.9047V85.0953C105.796 85.2739 105.701 85.439 105.546 85.5283L57.75 113.124C57.5953 113.213 57.4047 113.213 57.25 113.124L9.45354 85.5283C9.29884 85.439 9.20354 85.2739 9.20354 85.0953V29.9047C9.20354 29.7261 9.29884 29.561 9.45354 29.4717L57.25 1.87639C57.4047 1.78707 57.5953 1.78707 57.75 1.87639Z" stroke="#4F89FD" stroke-width="3"/>
<g clip-path="url(#clip0_403_9)">
<path d="M86.9663 41.5499C86.9885 41.6297 87 41.7119 87 41.7947V54.651C87 54.9869 86.8148 55.2972 86.5141 55.4642L75.3867 61.6772V73.9908C75.3868 74.1556 75.3421 74.3175 75.2573 74.4602C75.1725 74.603 75.0505 74.7216 74.9034 74.8042L51.675 87.7708C51.6218 87.7999 51.5639 87.8185 51.5058 87.8388C51.484 87.8456 51.4636 87.8585 51.4406 87.8644C51.2782 87.9059 51.1075 87.9059 50.9452 87.8644C50.9184 87.8576 50.8943 87.8433 50.869 87.834C50.8158 87.8151 50.7602 87.7988 50.7096 87.7708L27.4859 74.804C27.3383 74.7219 27.2157 74.6034 27.1304 74.4607C27.0451 74.3179 27.0001 74.1558 27 73.9908V35.4217C27 35.3372 27.0122 35.2551 27.0337 35.1756C27.041 35.1485 27.0579 35.124 27.0677 35.0969C27.0858 35.0479 27.1029 34.9974 27.1294 34.9517C27.1474 34.9213 27.1739 34.8967 27.1957 34.8685C27.2236 34.831 27.2489 34.7924 27.2815 34.7594C27.3094 34.7326 27.3457 34.7126 27.3771 34.6892C27.4123 34.661 27.4434 34.6306 27.4833 34.6083H27.4845L39.0968 28.1251C39.2438 28.0431 39.4105 27.9999 39.5802 27.9999C39.7499 27.9999 39.9165 28.0431 40.0636 28.1251L51.6759 34.6083H51.6783C51.717 34.6319 51.7498 34.661 51.7847 34.6881C51.8161 34.7115 51.8513 34.7326 51.8789 34.7585C51.9129 34.7924 51.937 34.8313 51.9659 34.8685C51.9865 34.8967 52.0144 34.9213 52.0313 34.9517C52.0589 34.9985 52.0746 35.0479 52.0941 35.0972C52.1037 35.124 52.1205 35.1485 52.1278 35.1767C52.1501 35.2565 52.1616 35.339 52.1618 35.4217V59.5113L61.8382 54.1083V41.7935C61.8382 41.7117 61.8504 41.6283 61.8722 41.5499C61.8806 41.5217 61.8963 41.4972 61.9059 41.4704C61.9254 41.421 61.9423 41.3704 61.9687 41.3249C61.9868 41.2944 62.0133 41.2699 62.0341 41.2417C62.063 41.2042 62.0871 41.1656 62.1209 41.1326C62.149 41.1058 62.1839 41.0858 62.2153 41.0624C62.2516 41.0342 62.283 41.0038 62.3217 40.9815H62.3229L73.9364 34.4983C74.0834 34.4161 74.2501 34.3729 74.4198 34.3729C74.5895 34.3729 74.7562 34.4161 74.9032 34.4983L86.5155 40.9815C86.5566 41.0049 86.588 41.0342 86.6243 41.061C86.6543 41.0847 86.6895 41.1058 86.7173 41.1315C86.7511 41.1656 86.7752 41.2042 86.8041 41.2417C86.8261 41.2699 86.8526 41.2944 86.8697 41.3249C86.8973 41.3704 86.913 41.421 86.9323 41.4704C86.9433 41.4972 86.959 41.5217 86.9663 41.5499V41.5499ZM85.0643 54.1085V43.4176L81.0005 45.686L75.3865 48.8206V59.5115L85.0655 54.1085H85.0643V54.1085ZM73.452 73.4483V62.7499L67.9296 65.8083L52.1606 74.5356V85.3342L73.452 73.4479V73.4483ZM28.9357 37.0444V73.4483L50.2247 85.3333V74.5367L39.1031 68.4331L39.0996 68.4308L39.0949 68.4285C39.0574 68.4074 39.0258 68.377 38.9909 68.3513C38.9604 68.3276 38.9255 68.309 38.899 68.2831L38.8966 68.2797C38.8652 68.2504 38.8434 68.214 38.817 68.1813C38.7926 68.1494 38.7638 68.1226 38.7443 68.0899L38.7431 68.0863C38.7213 68.0513 38.708 68.009 38.6923 67.9692C38.6766 67.934 38.6562 67.901 38.6463 67.8638V67.8626C38.6344 67.8181 38.632 67.771 38.6271 67.7254C38.6224 67.6904 38.6126 67.6551 38.6126 67.6199V42.4476L32.9995 39.3117L28.9357 37.0458V37.0444ZM39.5815 30.021L29.906 35.4217L39.5791 40.8222L49.2532 35.4204L39.5791 30.021H39.5815ZM44.613 63.7251L50.2259 60.5919V37.0444L46.1625 39.3131L40.548 42.4474V65.9947L44.613 63.7251V63.7251ZM74.4197 36.3942L64.7456 41.7947L74.4197 47.1954L84.0926 41.7935L74.4199 36.3942H74.4197ZM73.4517 48.8206L67.8377 45.686L63.7741 43.4176V54.1085L69.387 57.2419L73.452 59.5115V48.8206H73.4517ZM51.1915 72.9129L65.3812 65.0574L72.4744 61.1319L62.8073 55.7349L51.6771 61.9485L41.5329 67.6117L51.1915 72.9129Z" fill="#FF2D20"/>
</g>
<defs>
<clipPath id="clip0_403_9">
<rect width="60" height="60" fill="white" transform="translate(27 28)"/>
</clipPath>
</defs>
</svg>
