<svg width="32" height="39" viewBox="0 0 32 39" fill="none" xmlns="http://www.w3.org/2000/svg">
<path d="M0.999974 8.53122H30.9999C31.552 8.53122 31.9999 7.98518 31.9999 7.3125C31.9999 6.63972 31.5519 6.09378 30.9999 6.09378H0.999974C0.448035 6.09378 0 6.63972 0 7.3125C0 7.98528 0.448035 8.53122 0.999974 8.53122Z" fill="#8c52ff"/>
<path d="M30.9999 16.5312H0.999974C0.447952 16.5312 0 17.0773 0 17.7499C0 18.4226 0.448035 18.9687 0.999974 18.9687H30.9999C31.552 18.9687 31.9999 18.4226 31.9999 17.7499C31.9999 17.0773 31.552 16.5312 30.9999 16.5312Z" fill="#8c52ff"/>
<path d="M30.9999 26.9687H0.999974C0.447952 26.9687 0 27.5147 0 28.1874C0 28.8602 0.448035 29.4061 0.999974 29.4061H30.9999C31.552 29.4061 31.9999 28.8601 31.9999 28.1874C32 27.5146 31.552 26.9687 30.9999 26.9687Z" fill="#8c52ff"/>
</svg>
