<svg width="115" height="115" viewBox="0 0 115 115" fill="none" xmlns="http://www.w3.org/2000/svg">
<path d="M57.75 1.87639L105.546 29.4717C105.701 29.561 105.796 29.7261 105.796 29.9047V85.0953C105.796 85.2739 105.701 85.439 105.546 85.5283L57.75 113.124C57.5953 113.213 57.4047 113.213 57.25 113.124L9.45354 85.5283C9.29884 85.439 9.20354 85.2739 9.20354 85.0953V29.9047C9.20354 29.7261 9.29884 29.561 9.45354 29.4717L57.25 1.87639C57.4047 1.78707 57.5953 1.78707 57.75 1.87639Z" stroke="#4F89FD" stroke-width="3"/>
<path fill-rule="evenodd" clip-rule="evenodd" d="M71.4917 79.2399C71.5934 79.0444 71.6909 78.8717 71.7739 78.6931C71.8262 78.5788 71.9068 78.5559 72.0205 78.5589C72.7021 78.5782 73.3837 78.5992 74.0658 78.6058C74.6451 78.6118 75.2256 78.601 75.8055 78.5944C76.4588 78.5866 77.1121 78.5523 77.7648 78.5709C78.6341 78.5962 79.4811 78.7664 80.2673 79.1532C81.2064 79.6159 81.9168 80.3203 82.4011 81.2485C82.7055 81.837 82.8956 82.478 82.9611 83.1374C83.0646 84.1047 82.9966 85.0498 82.6898 85.975C82.3096 87.1215 81.5878 87.9992 80.585 88.6567C79.8132 89.1626 78.9668 89.4616 78.0596 89.6325C77.0995 89.8135 76.1364 89.7552 75.1733 89.7582C74.117 89.7624 73.0612 89.7395 72.0049 89.7275C71.8202 89.7257 71.7937 89.6908 71.8425 89.5146L71.8876 89.3521C71.9904 89.0285 72.0458 89.0141 72.3742 88.9599C72.607 88.9233 72.8297 88.8387 73.0281 88.7115C73.1388 88.6381 73.1845 88.4468 73.2279 88.2994C73.2651 88.1707 73.267 88.0293 73.2682 87.8933C73.2832 85.833 73.2988 83.7732 73.3073 81.7141C73.3096 81.1933 73.2965 80.6725 73.2682 80.1524C73.2477 79.7885 73.0534 79.5395 72.6203 79.4534C72.2834 79.3867 71.9441 79.3349 71.6054 79.2754L71.4917 79.2399ZM81.1625 84.2286C81.1167 83.8184 81.0945 83.4045 81.0211 83.0002C80.8454 82.0299 80.4207 81.1847 79.6748 80.5224C78.4687 79.4522 77.0165 79.2874 75.4945 79.4149C75.148 79.4438 75.0734 79.5623 75.068 79.9184C75.0596 80.4237 75.0512 80.9291 75.0506 81.4344C75.0482 83.0369 75.0482 84.6395 75.0506 86.2421C75.0512 86.698 75.056 87.154 75.0692 87.6088C75.0837 88.0744 75.2527 88.4684 75.7087 88.6489C76.4276 88.9334 77.1837 88.9671 77.9381 88.851C79.143 88.6664 79.9858 87.9643 80.5513 86.9122C80.9988 86.0772 81.1252 85.1659 81.1625 84.2286ZM84.0915 89.6854C84.077 89.4358 84.1793 89.2294 84.3056 89.0399C84.3399 88.9888 84.4578 88.9912 84.539 88.975L85.2284 88.8384C85.4721 88.7867 85.6002 88.623 85.6345 88.3842C85.6573 88.2266 85.679 88.0672 85.6808 87.9078C85.6971 86.6464 85.709 85.3849 85.7163 84.1234C85.7223 82.8601 85.7175 81.5968 85.7175 80.3335L85.7121 80.0923C85.6874 79.6862 85.4913 79.4757 85.0883 79.4161L84.2142 79.2832C84.1065 79.2687 84.0674 79.217 84.1065 79.1214C84.1739 78.9583 84.2383 78.7893 84.3333 78.6425C84.3688 78.5884 84.4885 78.5673 84.5691 78.5691C84.9866 78.5751 85.4041 78.6064 85.8216 78.6058L89.4556 78.5842C90.1558 78.5836 90.832 78.7057 91.46 79.0408C92.1512 79.4089 92.538 79.9786 92.6487 80.7546C92.7642 81.5697 92.517 82.2567 91.9214 82.8023C91.6766 83.0273 91.3595 83.1741 91.0756 83.357L90.983 83.4147C91.2465 83.5116 91.4973 83.5952 91.7415 83.695C92.4562 83.988 93.0247 84.4458 93.3255 85.1767C93.5631 85.7536 93.5631 86.3552 93.4223 86.9531C93.2033 87.8891 92.5867 88.5118 91.7849 88.9828C91.0323 89.4249 90.2178 89.6824 89.3503 89.7257C88.5503 89.766 87.7466 89.751 86.9447 89.76L86.4803 89.7624C85.7074 89.7446 84.9346 89.7254 84.1619 89.7047L84.0915 89.6854ZM87.4223 86.0225H87.4301C87.4301 86.4183 87.4247 86.8141 87.4319 87.21C87.4368 87.4662 87.4277 87.7297 87.4831 87.9764C87.5661 88.3451 87.7345 88.6778 88.1484 88.7837C88.7017 88.9291 89.2797 88.9545 89.8436 88.8583C90.5516 88.7349 91.1165 88.38 91.4263 87.7057C91.6561 87.2046 91.6904 86.6734 91.6116 86.1308C91.5069 85.4161 91.1273 84.8976 90.4963 84.5577C90.0824 84.3345 89.6409 84.1979 89.1705 84.1799C88.6435 84.1601 88.1159 84.1588 87.589 84.1426C87.441 84.1384 87.4205 84.2136 87.4211 84.3351C87.4241 84.897 87.4223 85.4594 87.4223 86.0225ZM88.5442 83.3305C88.8324 83.3161 89.1584 83.3118 89.4827 83.2794C90.1035 83.2174 90.5408 82.9052 90.7688 82.3115C90.8849 82.0101 90.8801 81.6997 90.8831 81.3862C90.8921 80.5699 90.4157 79.901 89.6403 79.6243C89.0417 79.4107 88.4245 79.4071 87.8037 79.4239C87.5523 79.4306 87.4398 79.5407 87.4362 79.7939L87.3989 83.0959C87.3971 83.227 87.4536 83.2836 87.5811 83.2878L88.5442 83.3305Z" fill="#94795D"/>
<path fill-rule="evenodd" clip-rule="evenodd" d="M25.3423 89.0507L25.2984 89.6186C24.8893 89.6186 24.5121 89.6156 24.1349 89.6198C23.4245 89.627 22.714 89.6384 22.003 89.6487L21.9344 89.6529C21.8328 89.6409 21.6481 89.6409 21.6433 89.6108C21.6132 89.4417 21.6228 89.2643 21.6306 89.0892C21.6312 89.0694 21.7004 89.0441 21.7407 89.0345L22.2936 88.9112C22.6382 88.8215 22.7598 88.6729 22.776 88.3168C22.7947 87.9156 22.8133 87.5137 22.8151 87.1125C22.8205 86.1247 22.8145 85.1382 22.8187 84.1504C22.8193 83.9194 22.7393 83.7473 22.524 83.6535C22.268 83.5399 22.0103 83.4304 21.7509 83.325C21.6282 83.2757 21.4688 83.2486 21.4832 83.0838C21.4977 82.916 21.6523 82.8721 21.7979 82.839C22.4006 82.7012 23.004 82.5671 23.605 82.4203C23.7987 82.3728 23.9839 82.2928 24.2155 82.2122C24.2276 82.3373 24.2498 82.4564 24.2474 82.5755L24.2119 83.1416C24.2113 83.2053 24.2444 83.2908 24.2919 83.3263C24.3208 83.3485 24.4177 83.3082 24.4658 83.2709C24.9795 82.8799 25.5233 82.5424 26.1436 82.3457C27.1042 82.0407 27.929 82.3234 28.5065 83.1518C28.7098 83.4436 28.7104 83.4436 28.9926 83.2396C29.4768 82.8877 29.9833 82.5773 30.55 82.3728C31.794 81.9234 32.9893 82.4937 33.4219 83.7467C33.5795 84.2015 33.6396 84.6713 33.6384 85.1514L33.627 88.3385C33.6264 88.6014 33.7136 88.7511 33.9639 88.833C34.2448 88.925 34.536 88.9882 34.8524 89.0712L34.779 89.6192C34.4192 89.6192 34.0884 89.6168 33.7575 89.6198C32.949 89.627 32.1405 89.6312 31.3326 89.6499C31.1919 89.6535 31.1552 89.6186 31.148 89.4869C31.1245 89.0652 31.1209 89.0658 31.5179 88.9707L31.6515 88.9364C32.0395 88.8305 32.1688 88.7114 32.1718 88.318C32.1808 87.1883 32.2043 86.0555 32.1471 84.9282C32.0876 83.7588 31.1594 83.1362 30.026 83.4357C29.6602 83.5359 29.3158 83.7018 29.0094 83.9254C28.9041 84.0006 28.8843 84.0872 28.8927 84.219C28.9246 84.7171 28.9444 85.2158 28.9486 85.7145C28.9559 86.5873 28.945 87.4602 28.9486 88.3337C28.9498 88.6874 29.0708 88.8227 29.4203 88.9045L29.9394 89.0243L30.0357 89.0459C30.0429 89.2119 30.0495 89.378 30.0417 89.544C30.0369 89.6481 29.9563 89.6571 29.866 89.6553C29.3613 89.6427 28.856 89.6258 28.3513 89.627C27.7371 89.6282 27.1235 89.6457 26.5099 89.6565H26.3655C26.3655 89.4802 26.3571 89.3118 26.3715 89.144C26.3746 89.1037 26.4455 89.0471 26.4943 89.0345L27.0994 88.9063C27.3563 88.8432 27.479 88.7114 27.4935 88.4504C27.562 87.2412 27.6114 86.0315 27.4977 84.8229C27.47 84.5843 27.4037 84.3516 27.3016 84.1342C26.9918 83.4496 26.2945 83.1638 25.4903 83.3696C25.1083 83.467 24.7636 83.6421 24.4375 83.8628C24.3664 83.9066 24.308 83.9682 24.2681 84.0416C24.2282 84.1149 24.2082 84.1975 24.2101 84.2809C24.2101 85.4871 24.2143 86.6932 24.218 87.8987L24.2246 88.3637C24.2318 88.688 24.3695 88.8588 24.6914 88.9286C24.8983 88.9755 25.1077 89.0074 25.3423 89.0507Z" fill="#50382B"/>
<path fill-rule="evenodd" clip-rule="evenodd" d="M61.7115 82.3355C61.8048 82.7891 61.803 83.197 61.4697 83.5062C61.1389 83.8136 60.7202 83.7101 60.3117 83.6415C60.3496 83.8569 60.3917 84.0398 60.4122 84.225C60.5608 85.602 59.9682 86.6241 58.6911 87.2082C58.2086 87.4284 57.6967 87.5102 57.174 87.5523C56.9141 87.5727 56.6867 87.7712 56.662 87.9848C56.6368 88.2014 56.7727 88.4239 57.0446 88.4889C57.3653 88.5653 57.6997 88.587 58.0288 88.6249C58.735 88.7055 59.4491 88.7422 60.1469 88.8685C61.202 89.0586 61.7909 89.9796 61.6051 91.0395C61.4396 91.9828 60.8934 92.6692 60.1318 93.1955C58.8487 94.0846 57.441 94.3445 55.942 93.8909C55.0847 93.6311 54.4802 93.0674 54.2714 92.1554C54.1667 91.6988 54.278 91.2856 54.6215 90.9758C55.03 90.6088 55.4745 90.2816 55.9023 89.9351L56.0406 89.7961L55.8818 89.6848C55.4457 89.4779 55.0968 89.1945 54.9614 88.7025C54.9151 88.5358 54.9632 88.4263 55.1046 88.3409C55.3452 88.1959 55.5846 88.0486 55.8222 87.8988C55.9341 87.829 56.0448 87.7568 56.1489 87.6762C56.2909 87.5679 56.2782 87.4873 56.1086 87.4247C55.714 87.2792 55.3632 87.068 55.0913 86.7432C54.6372 86.2012 54.5084 85.5557 54.5457 84.8741C54.6041 83.8094 55.1822 83.1079 56.1218 82.6568C57.2389 82.1208 58.3596 82.0871 59.4984 82.5755C59.9195 82.756 60.3634 82.7945 60.8152 82.7632C61.1527 82.7392 61.4475 82.6116 61.7115 82.3355ZM57.595 89.9639C56.7565 89.9567 56.4936 90.0602 56.0015 90.5613C55.4505 91.1232 55.4535 91.9022 56.0033 92.4664C56.4208 92.8942 56.9418 93.0945 57.5211 93.1546C58.1978 93.2244 58.8643 93.1961 59.4791 92.8575C60.1348 92.4947 60.4609 91.821 60.3135 91.1424C60.1914 90.5823 59.7787 90.3261 59.2764 90.1787C58.7049 90.0115 58.1142 89.9796 57.595 89.9639ZM55.948 84.6052C55.9786 84.838 55.9913 85.0738 56.043 85.3018C56.1772 85.8926 56.434 86.4117 57.0218 86.6746C57.7118 86.9844 58.593 86.8515 58.895 85.8829C59.1013 85.2384 59.0773 84.5422 58.827 83.9134C58.721 83.626 58.5301 83.3776 58.2796 83.2012C57.6805 82.7831 56.5995 82.7277 56.1591 83.6517C56.0159 83.9519 55.96 84.2714 55.948 84.6052Z" fill="#4F382B"/>
<path fill-rule="evenodd" clip-rule="evenodd" d="M47.484 82.1869C47.5062 82.2898 47.5508 82.4065 47.552 82.5238C47.5538 82.747 47.5297 82.9701 47.5171 83.1933V83.387L47.706 83.2426C48.2233 82.8167 48.7791 82.454 49.4264 82.2585C50.5947 81.9066 51.7617 82.546 52.1425 83.7359C52.2869 84.1883 52.344 84.6533 52.3494 85.1261C52.3615 86.1765 52.3687 87.2268 52.3795 88.2771C52.3831 88.6543 52.4264 88.7217 52.7831 88.8306C52.9861 88.8912 53.1932 88.9372 53.4028 88.9683C53.5177 88.9864 53.567 89.0315 53.561 89.144L53.5622 89.2474C53.558 89.6824 53.5279 89.7022 53.1062 89.701C52.0968 89.6992 51.0879 89.7052 50.0785 89.7137C49.7777 89.7161 49.7771 89.7251 49.7471 89.4279L49.741 89.2571C49.7597 89.0008 49.7657 89.0032 50.0178 88.9659C50.1874 88.9406 50.3558 88.9015 50.5213 88.8582C50.6915 88.8143 50.7733 88.6886 50.7962 88.5202C50.8076 88.4347 50.8227 88.3493 50.8221 88.2639C50.8076 87.1161 50.8263 85.9671 50.7637 84.8211C50.7132 83.8941 50.0057 83.3419 49.0751 83.4051C48.6265 83.4361 48.1953 83.5908 47.8293 83.852C47.5808 84.0259 47.5309 84.2767 47.5321 84.5468C47.5369 85.62 47.5471 86.6932 47.5586 87.767C47.561 88.0022 47.5676 88.2374 47.5899 88.4708C47.6133 88.7259 47.703 88.8288 47.9532 88.8841C48.1926 88.937 48.4369 88.9677 48.6925 89.0104L48.7142 89.2077C48.7226 89.6679 48.6745 89.7022 48.2275 89.7004C47.1838 89.6962 46.1401 89.7028 45.097 89.7143C44.9328 89.7167 44.863 89.6649 44.8672 89.5049L44.8648 89.4363C44.8377 89.0219 44.8497 89.0062 45.242 88.9388L45.4272 88.9015C45.8519 88.8059 45.9608 88.6928 45.9668 88.2615C45.9867 86.8953 45.9939 85.5298 46.0077 84.1636C46.0096 83.9675 45.9356 83.8153 45.7527 83.7341C45.496 83.6217 45.238 83.5126 44.9785 83.4069C44.8353 83.3479 44.6717 83.3106 44.6663 83.1127C44.6627 82.9731 44.8118 82.8498 45.0158 82.8083C45.4254 82.7253 45.8387 82.6561 46.2436 82.5545C46.6466 82.454 47.0424 82.3192 47.484 82.1869Z" fill="#4F372B"/>
<path fill-rule="evenodd" clip-rule="evenodd" d="M70.0516 85.7554C70.0323 87.0313 69.7009 88.063 68.7985 88.8372C67.6556 89.8196 65.8725 90.1534 64.415 89.4189C63.7929 89.1055 63.3358 88.6249 63.038 88.001C62.5814 87.0415 62.4671 86.0327 62.7053 84.9992C62.9411 83.9772 63.5601 83.2367 64.4865 82.7572C65.4394 82.2645 66.4428 82.072 67.501 82.3307C68.8395 82.6574 69.8013 83.7486 69.9926 85.1382C70.0269 85.3818 70.0402 85.6285 70.0516 85.7554ZM68.5014 86.4466L68.4496 86.4406C68.4496 86.3203 68.4563 86.2 68.4484 86.0796C68.4045 85.3301 68.2361 84.616 67.8018 83.9886C67.3897 83.3943 66.8284 83.0436 66.0981 82.9924C65.2806 82.9347 64.5936 83.3919 64.3524 84.2268C63.9903 85.4805 64.113 86.7023 64.7494 87.8506C65.0268 88.3511 65.4376 88.7205 65.988 88.9148C67.0666 89.2944 68.0231 88.8029 68.3041 87.6984C68.4075 87.2906 68.4376 86.8641 68.5014 86.4466Z" fill="#4F382B"/>
<path fill-rule="evenodd" clip-rule="evenodd" d="M43.5552 85.854C43.5329 86.7696 43.317 87.616 42.7515 88.3517C42.1457 89.1398 41.3132 89.5608 40.3663 89.7383C39.2468 89.9476 38.1953 89.7576 37.2959 89.0062C36.8688 88.6489 36.5771 88.1911 36.3846 87.6701C36.0687 86.8159 35.9899 85.9406 36.1842 85.0485C36.3918 84.0938 36.9308 83.3641 37.7663 82.8745C38.7325 82.3096 39.775 82.0576 40.8885 82.3114C42.3202 82.6387 43.1467 83.5717 43.4523 84.9842C43.5137 85.2693 43.5221 85.5641 43.5552 85.854ZM41.9875 86.458L41.946 86.452V86.2799C41.9225 85.4401 41.7583 84.6401 41.2572 83.9423C40.886 83.4243 40.3892 83.0995 39.7521 83.0086C38.7138 82.8606 38.0352 83.4766 37.8103 84.3134C37.5167 85.4065 37.6087 86.4863 38.0629 87.5227C38.3462 88.1688 38.7938 88.6723 39.4814 88.9166C40.5534 89.2974 41.5243 88.7933 41.7956 87.693C41.8955 87.2905 41.9255 86.8707 41.9875 86.458Z" fill="#4F372B"/>
<path fill-rule="evenodd" clip-rule="evenodd" d="M68.5459 39.1788C69.284 41.3126 69.8146 43.4908 69.9896 45.7479C70.2062 48.5488 70.1075 51.3304 69.5168 54.085L69.441 54.3051C69.2557 54.3057 69.0668 54.2823 68.8858 54.3105C67.356 54.5512 65.828 54.8002 64.2995 55.0481C62.7192 55.3043 61.1376 55.5504 59.5604 55.8235C59.0015 55.9197 58.3097 55.8048 58.0841 56.5772L57.9758 56.6139L58.0522 51.9951L57.9746 40.8506L58.7109 40.7242C59.9147 40.5275 61.1184 40.3272 62.3239 40.1353C63.7617 39.9073 65.2006 39.6847 66.6395 39.4622C67.2748 39.3647 67.9106 39.2739 68.5459 39.1788Z" fill="#439934"/>
<path fill-rule="evenodd" clip-rule="evenodd" d="M56.4563 70.0792C55.6797 69.4115 54.876 68.7733 54.1319 68.0706C50.1267 64.2928 47.1964 59.8455 45.7533 54.4837C45.3557 53.0087 45.091 51.509 45.0055 49.9846C44.9454 48.9175 44.8594 47.8413 44.9352 46.7795C45.1355 43.9564 45.5439 41.1603 46.3717 38.4407L46.4174 38.3775C46.498 38.4846 46.6135 38.5796 46.6544 38.7005C47.4629 41.0803 48.2648 43.4625 49.0631 45.8465C51.571 53.3366 54.0759 60.8284 56.588 68.3173C56.6374 68.4634 56.7643 68.5832 56.8557 68.7149L56.4563 70.0792Z" fill="#45A538"/>
<path fill-rule="evenodd" clip-rule="evenodd" d="M68.5459 39.1788C67.91 39.2733 67.2742 39.3647 66.6395 39.4622C65.2006 39.6847 63.7617 39.9073 62.3239 40.1353C61.119 40.3266 59.9153 40.5269 58.7109 40.7242L57.9746 40.8506L57.9686 40.3705C57.944 39.9759 57.903 39.5813 57.8976 39.1866L57.8152 31.6346C57.796 30.0591 57.7671 28.4836 57.7352 26.9088C57.719 25.9299 57.6907 24.9513 57.6504 23.9731C57.6263 23.448 57.5415 22.9252 57.5078 22.4C57.488 22.0981 57.5144 21.7937 57.5211 21.4905C57.8964 22.2178 58.264 22.9505 58.6496 23.6723C59.259 24.8135 60.2305 25.6545 61.1058 26.5719C64.5623 30.1999 67.0161 34.4156 68.5459 39.1788Z" fill="#46A037"/>
<path fill-rule="evenodd" clip-rule="evenodd" d="M57.9764 56.6139L58.0847 56.5772C58.3103 55.8048 59.0021 55.9197 59.561 55.8234C61.1383 55.5503 62.7198 55.3043 64.3001 55.048C65.8286 54.8008 67.3566 54.5517 68.8864 54.3105C69.0674 54.2822 69.2563 54.3057 69.4416 54.3051C69.1559 55.3253 68.9309 56.3678 68.5682 57.3598C68.1561 58.4847 67.658 59.5832 67.1292 60.66C66.3371 62.2658 65.3571 63.7718 64.2098 65.1464C63.3279 66.2064 62.345 67.1875 61.3602 68.1554C60.8152 68.6902 60.1739 69.1264 59.576 69.6076L59.4208 69.5017L58.8631 69.0253L58.2862 67.7596C57.8921 66.2837 57.677 64.7656 57.6456 63.2383L57.6564 62.9808L57.7352 61.8655C57.7611 61.4847 57.796 61.1045 57.8122 60.7237C57.87 59.3546 57.9217 57.9842 57.9764 56.6139Z" fill="#409433"/>
<path fill-rule="evenodd" clip-rule="evenodd" d="M57.9764 56.6139C57.9223 57.9842 57.8706 59.3552 57.8122 60.7256C57.796 61.1069 57.7617 61.4871 57.7352 61.8673L57.3839 62.0003C56.6031 59.7017 55.8216 57.4272 55.0577 55.1473C53.7938 51.3749 52.5455 47.5971 51.2835 43.8235C50.2643 40.778 49.238 37.7348 48.2047 34.6941C48.1559 34.5522 48.0176 34.4403 47.9213 34.3146L50.1712 30.1776C50.2488 30.3118 50.3504 30.4375 50.3992 30.5819C51.4399 33.6619 52.4788 36.7425 53.5086 39.8261C54.8489 43.8385 56.1802 47.8527 57.5192 51.8657C57.5728 52.0258 57.6606 52.1737 57.7448 52.3536L58.0528 51.9951L57.9764 56.6139Z" fill="#4FAA41"/>
<path fill-rule="evenodd" clip-rule="evenodd" d="M47.9207 34.3146C48.0176 34.4403 48.1559 34.5522 48.2041 34.6942C49.2375 37.7348 50.2638 40.7779 51.2829 43.8235C52.5449 47.5971 53.7932 51.3749 55.0571 55.1473C55.821 57.4272 56.6025 59.7011 57.3833 62.0003L57.7346 61.8673L57.6558 62.9826L57.5842 63.2395C57.4621 64.4601 57.3592 65.6831 57.21 66.9012C57.1355 67.5118 56.976 68.111 56.8551 68.7149C56.7643 68.5832 56.6368 68.4635 56.5874 68.3173C54.0747 60.8284 51.5704 53.3366 49.0625 45.8465C48.2646 43.4629 47.4617 41.0809 46.6538 38.7006C46.6129 38.5797 46.4974 38.4846 46.4168 38.3775L47.9207 34.3146Z" fill="#4AA73C"/>
<path fill-rule="evenodd" clip-rule="evenodd" d="M58.0522 51.9951L57.7442 52.3536C57.66 52.1737 57.5722 52.0258 57.5186 51.8657C56.1796 47.8527 54.8483 43.8385 53.508 39.8261C52.4769 36.7428 51.4405 33.6614 50.3986 30.5819C50.3498 30.4375 50.2482 30.3118 50.1706 30.1776L52.9528 26.5177C53.0406 26.6344 53.1657 26.7385 53.2109 26.8702C53.9833 29.1321 54.7485 31.3958 55.51 33.6613C56.2211 35.7776 56.9213 37.8963 57.6408 40.0089C57.6889 40.1503 57.8567 40.2502 57.9686 40.3705L57.9746 40.8505L58.0522 51.9951Z" fill="#57AE47"/>
<path fill-rule="evenodd" clip-rule="evenodd" d="M57.9686 40.3705C57.8561 40.2508 57.6889 40.151 57.6408 40.009C56.9219 37.8963 56.2211 35.7776 55.51 33.6613C54.749 31.3958 53.9827 29.1321 53.2109 26.8703C53.1657 26.7385 53.0406 26.6344 52.9528 26.5177C53.8575 25.6316 54.734 24.7137 55.6755 23.8685C56.5122 23.1177 57.1848 22.3128 57.2161 21.1259L57.2822 20.8895L57.5205 21.4899C57.5144 21.7931 57.4874 22.0975 57.5072 22.3994C57.5415 22.9246 57.6263 23.4474 57.6498 23.9725C57.6937 24.9501 57.7148 25.9294 57.7346 26.9082C57.7665 28.483 57.7954 30.0585 57.8146 31.634L57.897 39.186C57.903 39.5813 57.9446 39.9759 57.9686 40.3705Z" fill="#60B24F"/>
<path fill-rule="evenodd" clip-rule="evenodd" d="M56.8557 68.7143C56.9766 68.1103 57.1361 67.5112 57.2106 66.9006C57.3598 65.683 57.4627 64.4595 57.5848 63.2389L57.6155 63.2341L57.6456 63.2395C57.677 64.7668 57.8921 66.2849 58.2862 67.7608C58.205 67.8679 58.0913 67.9624 58.048 68.0827C57.7142 69.0247 57.3989 69.9746 57.0633 70.916C57.0175 71.0448 56.8888 71.1452 56.7992 71.2577L56.4557 70.0787L56.8557 68.7143Z" fill="#A9AA88"/>
<path fill-rule="evenodd" clip-rule="evenodd" d="M56.7992 71.2584C56.8888 71.1453 57.0175 71.0454 57.0633 70.9167C57.3989 69.9752 57.7142 69.0254 58.048 68.0833C58.0907 67.963 58.205 67.8686 58.2862 67.7615L58.8631 69.0272C58.7494 69.1884 58.5918 69.3346 58.5287 69.5144L57.4242 72.7581C57.3785 72.8886 57.2239 72.98 57.1192 73.0901L56.7992 71.2584Z" fill="#B6B598"/>
<path fill-rule="evenodd" clip-rule="evenodd" d="M57.1192 73.0895C57.2233 72.9794 57.3785 72.888 57.4242 72.7574L58.5287 69.5138C58.5912 69.3339 58.7494 69.1878 58.8631 69.0266L59.4214 69.5024C59.1519 69.7689 59.0021 70.0769 59.0923 70.4661L58.9227 71.0213C58.8457 71.1164 58.7338 71.1994 58.6959 71.3083C58.3103 72.4127 57.9427 73.5232 57.5541 74.6271C57.5048 74.7667 57.3683 74.8767 57.2726 75.0007L57.1192 73.0895Z" fill="#C2C1A7"/>
<path fill-rule="evenodd" clip-rule="evenodd" d="M57.272 75C57.3683 74.8761 57.5048 74.766 57.5535 74.6265C57.9421 73.5226 58.3103 72.4121 58.6953 71.3076C58.7332 71.1988 58.8451 71.1163 58.9221 71.0207L58.6881 73.5689C58.6255 73.6411 58.5353 73.7043 58.5052 73.7879L57.7268 76.0185C57.672 76.1707 57.5674 76.3066 57.4856 76.4492C57.4128 76.3541 57.2828 76.2621 57.2768 76.1635C57.254 75.7772 57.2702 75.388 57.272 75Z" fill="#CECDB7"/>
<path fill-rule="evenodd" clip-rule="evenodd" d="M57.4862 76.4498C57.568 76.3072 57.6726 76.1713 57.7274 76.0191L58.5058 73.7885C58.5359 73.7043 58.6267 73.6417 58.6887 73.5695L58.6947 75.2419L58.1346 76.6778L57.4862 76.4498Z" fill="#DBDAC7"/>
<path fill-rule="evenodd" clip-rule="evenodd" d="M58.1347 76.6778L58.6947 75.2419L58.8102 76.9407L58.1347 76.6778Z" fill="#EBE9DC"/>
<path fill-rule="evenodd" clip-rule="evenodd" d="M59.0917 70.4661C59.0021 70.0775 59.1513 69.7695 59.4208 69.5024L59.576 69.6083L59.0917 70.4661Z" fill="#CECDB7"/>
<path fill-rule="evenodd" clip-rule="evenodd" d="M57.6456 63.2401L57.6155 63.2347L57.5848 63.2395L57.6564 62.9827L57.6456 63.2401Z" fill="#4FAA41"/>
</svg>
