<svg width="115" height="115" viewBox="0 0 115 115" fill="none" xmlns="http://www.w3.org/2000/svg">
<path d="M57.75 1.87639L105.546 29.4717C105.701 29.561 105.796 29.7261 105.796 29.9047V85.0953C105.796 85.2739 105.701 85.439 105.546 85.5283L57.75 113.124C57.5953 113.213 57.4047 113.213 57.25 113.124L9.45354 85.5283C9.29884 85.439 9.20354 85.2739 9.20354 85.0953V29.9047C9.20354 29.7261 9.29884 29.561 9.45354 29.4717L57.25 1.87639C57.4047 1.78707 57.5953 1.78707 57.75 1.87639Z" stroke="#4F89FD" stroke-width="3"/>
<g clip-path="url(#clip0_802_7)">
<path d="M38.7732 57.2525L41.5084 66.0769C42.1229 68.0804 42.3792 69.4791 42.2766 70.2763C43.7725 66.2925 44.8177 61.9512 45.4123 57.2525H48.7012C47.287 64.9021 45.4218 70.461 43.1066 73.9287C41.3027 76.601 39.3266 77.9371 37.1747 77.9371C36.6009 77.9371 35.8936 77.7647 35.0542 77.4225V75.5785C35.4643 75.6383 35.9454 75.6703 36.4988 75.6703C37.5027 75.6703 38.3118 75.3936 38.9274 74.8415C39.6645 74.1687 40.0334 73.4126 40.0334 72.5745C40.0334 72.0023 39.7457 70.8279 39.1728 69.0514L35.3619 57.2525H38.7732ZM17.84 51.8287L22.8497 67.0273H22.8807L27.9212 51.8287H32.0394C32.9412 59.3662 33.4738 66.2627 33.6373 72.5139H30.1652C30.0431 66.6703 29.7047 61.1754 29.1513 56.0281H29.1211L23.8339 72.5139H21.1898L15.9347 56.0281H15.9038C15.5139 60.9714 15.2685 66.4663 15.1662 72.5139H12C12.2046 65.1589 12.7167 58.2645 13.5362 51.8287H17.84Z" fill="#00758F"/>
<path d="M73.9625 51.5218C79.3515 51.5218 82.046 54.9451 82.046 61.7885C82.046 65.5072 81.2357 68.3162 79.6165 70.2138C79.3247 70.5606 79.0022 70.8602 78.6626 71.1377L82.4762 73.0127L82.4725 73.0125L81.1184 75.3375L76.1521 72.4561C75.3289 72.6986 74.4231 72.8197 73.4361 72.8197C70.79 72.8197 68.8136 72.0529 67.5068 70.5213C66.0724 68.8269 65.3556 66.1595 65.3556 62.5236C65.3556 58.8259 66.1645 56.0276 67.7842 54.1275C69.2593 52.3894 71.3191 51.5218 73.9625 51.5218ZM57.4602 51.5518C59.3862 51.5518 61.1375 52.0643 62.715 53.0856L61.9138 54.8609C60.564 54.2904 59.2331 54.0039 57.9207 54.0039C56.8559 54.0039 56.0353 54.2587 55.4633 54.7716C54.8882 55.2798 54.5324 55.9339 54.5324 56.7313C54.5324 57.9565 55.4102 59.019 57.0311 59.9167C57.5621 60.2053 58.0913 60.4973 58.6186 60.7926L58.7395 60.8602L58.8002 60.8941L58.9213 60.9617L58.9818 60.9957L59.1027 61.0635C60.3296 61.7513 61.4842 62.4077 61.4842 62.4077C63.1049 63.5517 63.9128 64.7714 63.9128 66.7802C63.9128 68.5345 63.2663 69.9745 61.9774 71.1014C60.6877 72.2232 58.955 72.7856 56.7852 72.7856C54.7558 72.7856 52.789 72.1382 50.8839 70.8542L51.7751 69.0774C53.4146 69.8945 54.8982 70.3026 56.2304 70.3026C57.4799 70.3026 58.4579 70.0252 59.1654 69.4775C59.8716 68.9257 60.2947 68.1561 60.2947 67.1803C60.2947 65.952 59.4354 64.9021 57.8592 64.0214C57.3659 63.7503 56.874 63.4767 56.3835 63.2004L56.2628 63.1324C56.0409 63.0078 55.8175 62.8816 55.5987 62.758L55.48 62.6909C54.4157 62.0889 53.4954 61.563 53.4954 61.563C51.9197 60.4169 51.1296 59.1873 51.1296 57.1612C51.1296 55.4856 51.7188 54.1311 52.8955 53.1008C54.075 52.0682 55.5967 51.5518 57.4602 51.5518ZM88.3792 51.8287V69.9693H94.925V72.5138H85.0594V51.8287H88.3792ZM98.5622 69.9772V70.4071H97.8426V72.5115H97.2924V70.4071H96.5448V69.9772H98.5624H98.5622ZM99.8911 69.9772L100.582 71.7047L101.217 69.9772H101.997V72.5115H101.478V70.5828L100.756 72.5115H100.382L99.6582 70.5828H99.6305V72.5115H99.1399V69.9772H99.8913H99.8911ZM73.6236 54.0656C70.448 54.0656 68.8593 56.6716 68.8593 61.8802C68.8593 64.8638 69.2803 67.0273 70.1207 68.3758C70.899 69.6238 72.1181 70.2465 73.778 70.2465C76.9536 70.2465 78.5422 67.6202 78.5422 62.37C78.5422 59.4282 78.1212 57.2832 77.2818 55.9341C76.5026 54.6889 75.2841 54.0656 73.6238 54.0656H73.6236Z" fill="#F29111"/>
<path d="M65.3 18.2817C66.3535 15.7078 70.037 17.657 71.4664 18.5561C71.8168 18.7811 72.2186 19.2563 72.6203 19.432C73.2469 19.4564 73.8731 19.5052 74.5008 19.5312C75.6782 19.8064 76.781 20.0311 77.7088 20.5565C82.0204 23.0813 84.8271 25.6541 87.4102 29.9039C87.9621 30.804 88.2379 31.7781 88.6888 32.7522C89.3146 34.2041 90.0177 35.7282 90.744 37.1012C91.0692 37.7521 91.3208 38.4759 91.7723 39.0256C91.9487 39.2769 92.4495 39.351 92.7488 39.5011C93.5764 39.9271 94.579 40.2505 95.3574 40.7503C96.8109 41.6515 98.2163 42.7254 99.4939 43.8248C99.9701 44.2492 100.295 44.8499 100.748 45.2988V45.5253C100.346 45.6482 99.9442 45.774 99.5426 45.8749C98.6653 46.0989 97.8881 46.0483 97.037 46.2725C96.5111 46.4242 95.858 46.6243 95.3064 46.6752L95.3574 46.7262C95.6819 47.6482 97.4376 48.3981 98.2406 48.9495C99.2158 49.6493 100.119 50.4981 100.847 51.4729C101.098 51.7216 101.349 51.9479 101.599 52.196C101.774 52.4473 101.823 52.7724 102 52.9965V53.0723C101.804 53.0036 101.663 52.8726 101.53 52.7355L101.45 52.6529C101.371 52.5707 101.29 52.49 101.199 52.4234C100.645 52.0476 100.096 51.598 99.5426 51.2486C98.5912 50.6484 97.4879 50.3001 96.5111 49.6976C95.9587 49.3478 95.4323 48.9495 94.9058 48.5493C94.4286 48.1985 93.903 47.5248 93.6031 47.0249C93.4264 46.7488 93.4022 46.4242 93.2004 46.2244C93.2364 45.8908 93.5439 45.7917 93.8541 45.7102L93.9255 45.6915C94.0325 45.6639 94.1373 45.6363 94.2287 45.5998C95.532 45.0495 97.0857 44.8499 99.0921 44.8999C99.0165 44.399 97.7628 43.7748 97.3625 43.4749C96.5592 42.8991 95.7086 42.2984 94.8564 41.7744C94.4048 41.5 93.6267 41.2997 93.1264 41.0754C92.4495 40.8003 90.9449 40.5254 90.5698 40.0014C89.9326 39.1754 89.4749 38.1901 89.0305 37.1949L88.9096 36.9232C88.8692 36.8327 88.8288 36.7422 88.7883 36.6518C88.263 35.4533 87.6105 34.2038 87.0841 32.9766C86.8088 32.378 86.6824 31.8526 86.381 31.2784C84.5516 27.7551 81.844 24.8052 78.5613 22.7307C77.4826 22.0557 76.2797 21.431 74.9518 21.0064C74.1993 20.7804 73.2962 20.9054 72.4944 20.732H71.9667C71.5164 20.6058 71.1404 20.1311 70.789 19.8808C70.0129 19.3568 69.2356 19.005 68.3075 18.6311C67.9823 18.4811 67.0536 18.1319 66.7295 18.4069C66.5288 18.457 66.427 18.5324 66.3776 18.7327C66.1779 19.0315 66.3535 19.4818 66.4778 19.7574C66.8543 20.5562 67.3802 21.0309 67.8577 21.7059C68.2823 22.3046 68.8099 22.9796 69.111 23.6305C69.7607 25.0296 70.0632 26.5798 70.6652 27.9788C70.8885 28.5049 71.2416 29.1035 71.5666 29.5781C71.8421 29.9547 72.3429 30.227 72.4944 30.7039C72.7964 31.2037 72.0423 32.8532 71.8678 33.377C71.2147 35.4267 71.3413 38.2759 72.0933 40.0526L72.1334 40.1463L72.1734 40.2412C72.448 40.8919 72.7419 41.5926 73.4719 41.7746C73.5222 41.7249 73.4719 41.751 73.5716 41.7249C73.7483 40.3497 73.798 39.0254 74.2747 37.9494C74.5502 37.2767 75.1002 36.8011 75.4772 36.2519C75.7286 36.4015 75.7286 36.8526 75.8784 37.1512C76.2046 37.9255 76.555 38.7744 76.9571 39.551C77.7826 41.1502 78.7114 42.7008 79.7638 44.0997C80.1163 44.5995 80.6164 45.1495 81.0674 45.5996C81.2684 45.7738 81.4934 45.8745 81.6444 46.0988H81.6936V46.1743C80.9416 45.8986 80.4649 45.125 79.8651 44.6734C78.7359 43.8245 77.3836 42.5496 76.6052 41.3263C76.2797 40.624 75.9278 39.9509 75.5769 39.2521V39.2016C75.427 39.4012 75.4772 39.5994 75.4022 39.9014C75.0766 41.1502 75.3273 42.5749 74.1993 43.0241C72.9207 43.5502 71.9669 42.1752 71.5666 41.5503C70.2877 39.4763 69.9373 35.9775 70.8393 33.1531C71.0397 32.5279 71.0669 31.7781 71.4167 31.2789C71.3411 30.8276 70.9913 30.7042 70.789 30.4277C70.4381 29.9551 70.1377 29.4045 69.863 28.8796C69.3353 27.8543 68.9598 26.6293 68.5592 25.5297C68.3831 25.0807 68.3326 24.6299 68.157 24.2048C67.8575 23.556 67.3054 22.9051 66.8794 22.3311C66.3027 21.5061 64.6229 19.9072 65.3 18.2817ZM73.5217 23.1783C73.5887 23.2451 73.6695 23.3035 73.7532 23.361L73.8541 23.4298C73.9886 23.5225 74.1188 23.62 74.1986 23.7528C74.3252 23.9287 74.3487 24.1022 74.5003 24.2784C74.5003 24.8791 74.3252 25.2785 73.9717 25.5274C73.9717 25.5274 73.9476 25.5536 73.9228 25.5781C73.7224 25.1777 73.5468 24.7793 73.345 24.3793C73.0965 24.03 72.7451 23.753 72.5426 23.354H72.4939V23.3038C72.7964 23.2295 73.0965 23.1783 73.5217 23.1783Z" fill="#00758F"/>
</g>
<defs>
<clipPath id="clip0_802_7">
<rect width="90" height="61" fill="white" transform="translate(12 17)"/>
</clipPath>
</defs>
</svg>
