<svg width="115" height="115" viewBox="0 0 115 115" fill="none" xmlns="http://www.w3.org/2000/svg">
<path d="M57.75 1.87639L105.546 29.4717C105.701 29.561 105.796 29.7261 105.796 29.9047V85.0953C105.796 85.2739 105.701 85.439 105.546 85.5283L57.75 113.124C57.5953 113.213 57.4047 113.213 57.25 113.124L9.45354 85.5283C9.29884 85.439 9.20354 85.2739 9.20354 85.0953V29.9047C9.20354 29.7261 9.29884 29.561 9.45354 29.4717L57.25 1.87639C57.4047 1.78707 57.5953 1.78707 57.75 1.87639Z" stroke="#4F89FD" stroke-width="3"/>
<g clip-path="url(#clip0_705_74)">
<path d="M58.9163 84.8499C58.6294 84.8499 58.3614 84.7734 58.1125 84.6395L55.567 83.1275C55.1841 82.9168 55.3755 82.8403 55.4905 82.8021C56.0072 82.6298 56.1029 82.5914 56.6388 82.2854C56.6962 82.247 56.7729 82.2662 56.8302 82.3044L58.7825 83.4719C58.859 83.5102 58.9548 83.5102 59.0121 83.4719L66.6489 79.0506C66.7255 79.0124 66.7639 78.9357 66.7639 78.8401V70.0167C66.7639 69.9208 66.7255 69.8445 66.6489 69.806L59.0121 65.4039C58.9356 65.3655 58.8398 65.3655 58.7825 65.4039L51.1457 69.806C51.0691 69.8443 51.0307 69.94 51.0307 70.0165V78.84C51.0307 78.9166 51.0691 79.0122 51.1457 79.0506L53.232 80.2564C54.3612 80.8305 55.0693 80.1607 55.0693 79.4908V70.7821C55.0693 70.6673 55.1651 70.5524 55.299 70.5524H56.2751C56.39 70.5524 56.5048 70.6481 56.5048 70.7821V79.4908C56.5048 81.0028 55.6817 81.8833 54.2463 81.8833C53.8061 81.8833 53.4616 81.8833 52.4854 81.4047L50.4758 80.2564C49.9781 79.9694 49.6719 79.4333 49.6719 78.8592V70.0357C49.6719 69.4616 49.9781 68.9255 50.4758 68.6385L58.1125 64.2172C58.5911 63.9492 59.2419 63.9492 59.7204 64.2172L67.3571 68.6385C67.8547 68.9255 68.1611 69.4616 68.1611 70.0357V78.8592C68.1611 79.4333 67.8547 79.9694 67.3571 80.2564L59.7204 84.6777C59.4715 84.7926 59.1843 84.8499 58.9163 84.8499ZM61.2706 78.7827C57.9212 78.7827 57.2321 77.2515 57.2321 75.95C57.2321 75.8351 57.3279 75.7203 57.4618 75.7203H58.4571C58.5719 75.7203 58.6676 75.7968 58.6676 75.9117C58.8208 76.9261 59.261 77.4237 61.2898 77.4237C62.8975 77.4237 63.5867 77.06 63.5867 76.1987C63.5867 75.7011 63.3951 75.3376 60.8879 75.0887C58.8016 74.878 57.5001 74.4188 57.5001 72.7536C57.5001 71.2032 58.8017 70.2845 60.9836 70.2845C63.4334 70.2845 64.6393 71.1267 64.7925 72.964C64.7925 73.0216 64.7733 73.0789 64.735 73.1364C64.6966 73.1746 64.6393 73.2129 64.5819 73.2129H63.5866C63.4909 73.2129 63.3951 73.1364 63.3761 73.0406C63.1464 71.9881 62.553 71.6434 60.9836 71.6434C59.2227 71.6434 59.0121 72.256 59.0121 72.7152C59.0121 73.2703 59.261 73.4426 61.6343 73.7488C63.9885 74.0551 65.0987 74.4953 65.0987 76.1413C65.0795 77.8256 63.7015 78.7827 61.2706 78.7827Z" fill="#539E43"/>
<path d="M35.2212 50.3408C35.2212 49.9964 35.0298 49.6708 34.7236 49.4986L26.6083 44.8285C26.4741 44.7518 26.3211 44.7136 26.1681 44.6943H26.0914C25.9384 44.6943 25.7852 44.7518 25.6512 44.8285L17.5359 49.4986C17.2295 49.6708 17.0383 49.9962 17.0383 50.3408L17.0575 62.8965C17.0575 63.0687 17.1532 63.241 17.3062 63.3176C17.4594 63.4134 17.6507 63.4134 17.7848 63.3176L22.6081 60.5615C22.9143 60.3892 23.1057 60.0638 23.1057 59.7194V53.8434C23.1057 53.4989 23.297 53.1735 23.6034 53.0013L25.6512 51.8145C25.8044 51.7188 25.9766 51.6804 26.1489 51.6804C26.3211 51.6804 26.4933 51.7188 26.6275 51.8145L28.6753 53.0013C28.9817 53.1735 29.173 53.4987 29.173 53.8434V59.7194C29.173 60.0638 29.3644 60.3892 29.6706 60.5615L34.4939 63.3176C34.5684 63.3646 34.6546 63.3894 34.7427 63.3894C34.8307 63.3894 34.917 63.3646 34.9915 63.3176C35.1447 63.241 35.2404 63.0687 35.2404 62.8965L35.2212 50.3408ZM74.2283 33.0574C74.0753 32.9808 73.8839 32.9808 73.7497 33.0574C73.5967 33.1532 73.501 33.3062 73.501 33.4784V45.9195C73.501 46.0343 73.4437 46.149 73.3288 46.2257C73.214 46.283 73.0991 46.283 72.9843 46.2257L70.9555 45.0582C70.8067 44.9735 70.6385 44.929 70.4674 44.929C70.2962 44.929 70.128 44.9735 69.9792 45.0582L61.8639 49.7475C61.5577 49.9197 61.3663 50.2451 61.3663 50.5896V59.9489C61.3663 60.2934 61.5577 60.6189 61.8639 60.7912L69.9792 65.4804C70.128 65.5651 70.2962 65.6097 70.4674 65.6097C70.6385 65.6097 70.8067 65.5651 70.9555 65.4804L79.0708 60.7912C79.377 60.6189 79.5684 60.2935 79.5684 59.9489V36.6175C79.5684 36.2538 79.377 35.9285 79.0708 35.7561L74.2283 33.0574ZM73.482 56.8675C73.482 56.9632 73.4437 57.0397 73.367 57.078L70.5918 58.6857C70.5531 58.7046 70.5105 58.7144 70.4674 58.7144C70.4242 58.7144 70.3817 58.7046 70.3429 58.6857L67.5677 57.078C67.491 57.0397 67.4528 56.944 67.4528 56.8675V53.6519C67.4528 53.5562 67.491 53.4797 67.5677 53.4414L70.3429 51.8336C70.3817 51.8147 70.4242 51.8048 70.4674 51.8048C70.5105 51.8048 70.5531 51.8147 70.5918 51.8336L73.367 53.4414C73.4437 53.4795 73.482 53.5754 73.482 53.6519V56.8675ZM101.235 53.5754C101.541 53.4032 101.713 53.0778 101.713 52.7332V50.4556C101.713 50.1111 101.522 49.7857 101.235 49.6135L93.1769 44.9434C93.0281 44.8587 92.8599 44.8142 92.6887 44.8142C92.5176 44.8142 92.3494 44.8587 92.2006 44.9434L84.0853 49.6325C83.7789 49.8048 83.5877 50.1302 83.5877 50.4746V59.8341C83.5877 60.1786 83.7791 60.504 84.0853 60.6762L92.1432 65.2698C92.4495 65.442 92.8132 65.442 93.1004 65.2698L97.9809 62.5522C98.1341 62.4755 98.2298 62.3033 98.2298 62.1311C98.2298 61.9588 98.1341 61.7866 97.9809 61.7099L89.8273 57.0207C89.6742 56.9249 89.5784 56.7719 89.5784 56.5997V53.6713C89.5784 53.4991 89.6742 53.3268 89.8273 53.2502L92.3729 51.7955C92.4474 51.7486 92.5336 51.7237 92.6217 51.7237C92.7097 51.7237 92.796 51.7486 92.8705 51.7955L95.4162 53.2502C95.5694 53.3459 95.6649 53.4989 95.6649 53.6713V55.9681C95.6649 56.1403 95.7606 56.3125 95.9138 56.389C95.9883 56.436 96.0746 56.4609 96.1626 56.4609C96.2507 56.4609 96.337 56.436 96.4115 56.389L101.235 53.5754Z" fill="#333333"/>
<path d="M92.5643 53.135C92.5927 53.1163 92.626 53.1063 92.66 53.1063C92.694 53.1063 92.7273 53.1163 92.7557 53.135L94.3061 54.0346C94.3634 54.073 94.4017 54.1303 94.4017 54.2068V56.0061C94.4017 56.0826 94.3636 56.1401 94.3061 56.1784L92.7557 57.0779C92.7273 57.0967 92.694 57.1067 92.66 57.1067C92.626 57.1067 92.5927 57.0967 92.5643 57.0779L91.0141 56.1784C90.9566 56.1401 90.9183 56.0826 90.9183 56.0061V54.207C90.9183 54.1303 90.9564 54.0729 91.0141 54.0348L92.5643 53.135Z" fill="#539E43"/>
<path d="M48.7914 44.9817C48.6427 44.8971 48.4745 44.8525 48.3034 44.8525C48.1322 44.8525 47.964 44.8971 47.8153 44.9817L39.7575 49.6324C39.4511 49.8046 39.2789 50.13 39.2789 50.4745V59.7958C39.2789 60.1402 39.4703 60.4656 39.7575 60.6379L47.8153 65.2889C47.964 65.3735 48.1322 65.4181 48.3034 65.4181C48.4745 65.4181 48.6427 65.3735 48.7914 65.2889L56.8494 60.6379C57.1556 60.4656 57.328 60.1402 57.328 59.7958V50.4747C57.328 50.1302 57.1364 49.8048 56.8494 49.6326L48.7914 44.9817Z" fill="url(#paint0_linear_705_74)"/>
</g>
<defs>
<linearGradient id="paint0_linear_705_74" x1="1270.01" y1="404.482" x2="386.795" y2="1792.28" gradientUnits="userSpaceOnUse">
<stop stop-color="#41873F"/>
<stop offset="0.3288" stop-color="#418B3D"/>
<stop offset="0.6352" stop-color="#419637"/>
<stop offset="0.9319" stop-color="#3FA92D"/>
<stop offset="1" stop-color="#3FAE2A"/>
</linearGradient>
<clipPath id="clip0_705_74">
<rect width="84.7898" height="52" fill="white" transform="translate(17 33)"/>
</clipPath>
</defs>
</svg>
