<svg width="115" height="115" viewBox="0 0 115 115" fill="none" xmlns="http://www.w3.org/2000/svg">
<path d="M57.75 1.87639L105.546 29.4717C105.701 29.561 105.796 29.7261 105.796 29.9047V85.0953C105.796 85.2739 105.701 85.439 105.546 85.5283L57.75 113.124C57.5953 113.213 57.4047 113.213 57.25 113.124L9.45354 85.5283C9.29884 85.439 9.20354 85.2739 9.20354 85.0953V29.9047C9.20354 29.7261 9.29884 29.561 9.45354 29.4717L57.25 1.87639C57.4047 1.78707 57.5953 1.78707 57.75 1.87639Z" stroke="#4F89FD" stroke-width="3"/>
<path d="M57 76.4125C76.33 76.4125 92 68.169 92 58C92 47.8311 76.33 39.5875 57 39.5875C37.67 39.5875 22 47.8311 22 58C22 68.169 37.67 76.4125 57 76.4125Z" fill="url(#paint0_radial_403_3)"/>
<path d="M57 75.045C75.5747 75.045 90.6325 67.4136 90.6325 58C90.6325 48.5863 75.5747 40.955 57 40.955C38.4253 40.955 23.3675 48.5863 23.3675 58C23.3675 67.4136 38.4253 75.045 57 75.045Z" fill="#6280B6"/>
<path d="M63.8125 63.5L65.48 54.915C65.7176 54.1803 65.7567 53.3958 65.5933 52.6411C65.43 51.8864 65.0701 51.1883 64.55 50.6175C63.0983 49.5867 61.3208 49.1201 59.55 49.305H56.6675L57.495 45.055C57.5101 44.9759 57.5075 44.8944 57.4875 44.8164C57.4675 44.7384 57.4305 44.6657 57.3791 44.6036C57.3278 44.5415 57.2634 44.4916 57.1905 44.4572C57.1176 44.4229 57.0381 44.4051 56.9575 44.405H52.9575C52.8305 44.405 52.7074 44.4491 52.6094 44.5298C52.5113 44.6106 52.4444 44.7229 52.42 44.8475L50.6475 53.9625C50.5111 52.988 50.0971 52.0732 49.455 51.3275C48.7401 50.6116 47.8776 50.0601 46.9277 49.7117C45.9778 49.3632 44.9633 49.2262 43.955 49.31H36.25C36.123 49.31 35.9999 49.3541 35.9019 49.4348C35.8038 49.5156 35.7369 49.6279 35.7125 49.7525L32.1275 68.2025C32.1124 68.2817 32.115 68.3631 32.135 68.4412C32.1551 68.5192 32.1921 68.5918 32.2434 68.6539C32.2947 68.716 32.3591 68.766 32.432 68.8003C32.5049 68.8347 32.5845 68.8525 32.665 68.8525H36.6725C36.7995 68.8526 36.9226 68.8084 37.0207 68.7277C37.1187 68.647 37.1856 68.5347 37.21 68.41L38.0775 63.9475H41.0775C42.4021 63.9829 43.7242 63.8143 44.9975 63.4475C46.0711 63.0923 47.0529 62.5041 47.8725 61.725C48.5442 61.1132 49.1176 60.4015 49.5725 59.615L48.855 63.3025C48.8399 63.3817 48.8425 63.4632 48.8625 63.5412C48.8826 63.6192 48.9196 63.6919 48.9709 63.7539C49.0222 63.816 49.0866 63.866 49.1595 63.9003C49.2324 63.9347 49.312 63.9525 49.3925 63.9525H53.3925C53.5195 63.9526 53.6426 63.9084 53.7407 63.8277C53.8387 63.747 53.9057 63.6347 53.93 63.51L55.8975 53.3825H58.6325C59.7975 53.3825 60.1325 53.615 60.2325 53.715C60.3325 53.815 60.4825 54.1275 60.295 55.1375L58.7075 63.3C58.6924 63.3792 58.695 63.4607 58.715 63.5387C58.7351 63.6167 58.7721 63.6893 58.8234 63.7514C58.8747 63.8135 58.9391 63.8635 59.012 63.8978C59.0849 63.9322 59.1645 63.95 59.245 63.95H63.295C63.4196 63.9452 63.5388 63.8979 63.6329 63.8161C63.727 63.7343 63.7904 63.6228 63.8125 63.5ZM45.325 56.415C45.2027 57.4646 44.7045 58.4344 43.9225 59.145C42.9402 59.756 41.7884 60.0372 40.635 59.9475H38.855L40.1425 53.32H42.445C44.1375 53.32 44.8175 53.6825 45.0925 53.985C45.3023 54.3501 45.4316 54.7558 45.4717 55.1749C45.5118 55.594 45.4618 56.0168 45.325 56.415ZM80.865 51.33C80.1501 50.6141 79.2876 50.0626 78.3377 49.7142C77.3878 49.3657 76.3733 49.2287 75.365 49.3125H67.6375C67.5105 49.3125 67.3874 49.3566 67.2894 49.4373C67.1913 49.5181 67.1244 49.6304 67.1 49.755L63.515 68.205C63.4999 68.2842 63.5025 68.3657 63.5225 68.4437C63.5426 68.5217 63.5796 68.5944 63.6309 68.6564C63.6822 68.7185 63.7466 68.7685 63.8195 68.8028C63.8924 68.8372 63.9719 68.855 64.0525 68.855H68.0725C68.1995 68.8551 68.3226 68.8109 68.4207 68.7302C68.5187 68.6495 68.5856 68.5372 68.61 68.4125L69.4775 63.95H72.4775C73.8021 63.9854 75.1242 63.8168 76.3975 63.45C77.4711 63.0948 78.4529 62.5066 79.2725 61.7275C80.6762 60.4625 81.622 58.7687 81.9625 56.91C82.2315 55.9592 82.2723 54.9583 82.0816 53.9887C81.8909 53.0191 81.474 52.1082 80.865 51.33ZM76.6975 56.415C76.5752 57.4646 76.077 58.4344 75.295 59.145C74.3103 59.7567 73.1556 60.0371 72 59.945H70.225L71.5125 53.3175H73.815C75.5075 53.3175 76.1875 53.68 76.4625 53.9825C76.673 54.3477 76.803 54.7537 76.8435 55.1733C76.884 55.5929 76.8343 56.0163 76.6975 56.415Z" fill="white"/>
<path d="M42.445 52.77C42.9844 52.702 43.5319 52.7418 44.0559 52.8868C44.5798 53.0318 45.0698 53.2793 45.4975 53.615C45.7735 54.0399 45.9495 54.5218 46.0123 55.0246C46.0751 55.5273 46.023 56.0377 45.86 56.5175C45.7171 57.6987 45.1461 58.7865 44.255 59.575C43.1803 60.2671 41.91 60.5917 40.635 60.5H38.19L39.69 52.7775L42.445 52.77ZM32.6525 68.31H36.6725L37.625 63.405H41.0675C42.3346 63.4395 43.5995 63.2785 44.8175 62.9275C45.8171 62.5974 46.7308 62.0492 47.4925 61.3225C48.8109 60.1365 49.6989 58.5469 50.0175 56.8025C50.2698 55.935 50.3141 55.0203 50.1469 54.1324C49.9797 53.2446 49.6056 52.4087 49.055 51.6925C48.3911 51.0358 47.592 50.5319 46.7133 50.2158C45.8346 49.8997 44.8976 49.7791 43.9675 49.8625H36.25L32.6525 68.31ZM52.9675 44.955H56.9675L56 49.86H59.5525C61.1841 49.6892 62.8233 50.1039 64.1775 51.03C64.6257 51.5394 64.9321 52.1577 65.0659 52.8229C65.1997 53.4881 65.1563 54.1768 64.94 54.82L63.2725 63.405H59.225L60.8125 55.2425C60.9231 54.9309 60.9625 54.5986 60.9279 54.2698C60.8933 53.941 60.7855 53.6242 60.6125 53.3425C60.0336 52.9277 59.3185 52.749 58.6125 52.8425H55.425L53.37 63.4125H49.37L52.9675 44.955ZM73.8175 52.77C74.3569 52.702 74.9044 52.7418 75.4284 52.8868C75.9523 53.0318 76.4423 53.2793 76.87 53.615C77.146 54.0399 77.322 54.5218 77.3848 55.0246C77.4476 55.5273 77.3955 56.0377 77.2325 56.5175C77.0896 57.6987 76.5186 58.7865 75.6275 59.575C74.5507 60.2687 73.2775 60.5934 72 60.5H69.555L71.055 52.7775L73.8175 52.77ZM64.025 68.31H68.045L68.9975 63.405H72.44C73.7071 63.4395 74.972 63.2785 76.19 62.9275C77.1896 62.5974 78.1033 62.0492 78.865 61.3225C80.1834 60.1365 81.0714 58.5469 81.39 56.8025C81.6423 55.935 81.6866 55.0203 81.5194 54.1324C81.3522 53.2446 80.9781 52.4087 80.4275 51.6925C79.7636 51.0358 78.9645 50.5319 78.0858 50.2158C77.2071 49.8997 76.2701 49.7791 75.34 49.8625H67.61L64.025 68.31Z" fill="#000004"/>
<defs>
<radialGradient id="paint0_radial_403_3" cx="0" cy="0" r="1" gradientUnits="userSpaceOnUse" gradientTransform="translate(43.015 46.0625) scale(45.96 45.96)">
<stop stop-color="white"/>
<stop offset="0.5" stop-color="#4C6B96"/>
<stop offset="1" stop-color="#231F20"/>
</radialGradient>
</defs>
</svg>
