<svg width="115" height="116" viewBox="0 0 115 116" fill="none" xmlns="http://www.w3.org/2000/svg">
<path d="M57.75 2.33415L105.546 29.9295C105.701 30.0188 105.796 30.1838 105.796 30.3625V85.5531C105.796 85.7317 105.701 85.8968 105.546 85.9861L57.75 113.581C57.5953 113.671 57.4047 113.671 57.25 113.581L9.45354 85.9861C9.29884 85.8968 9.20354 85.7317 9.20354 85.5531V30.3625C9.20354 30.1838 9.29884 30.0188 9.45354 29.9295L57.25 2.33415C57.4047 2.24484 57.5953 2.24484 57.75 2.33415Z" stroke="#4F89FD" stroke-width="3"/>
<path d="M76.332 43.4472C75.6934 43.201 75.0495 42.9729 74.4007 42.7631C74.5097 42.2626 74.61 41.7681 74.6991 41.2824C76.1611 33.3055 75.2053 26.8792 71.9407 24.7634C68.8106 22.735 63.6916 24.85 58.5218 29.907C58.0123 30.4063 57.5141 30.92 57.0277 31.4476C56.702 31.0968 56.3706 30.7527 56.0337 30.4157C50.6154 25.0086 45.1845 22.7297 41.9234 24.8516C38.7961 26.8863 37.8701 32.9275 39.1863 40.4873C39.3173 41.2361 39.4651 41.9809 39.6298 42.7212C38.861 42.9667 38.1192 43.228 37.4093 43.5062C31.0568 45.9956 27 49.8967 27 53.9432C27 58.1225 31.3552 62.3144 37.9716 64.8562C38.508 65.0614 39.0488 65.2516 39.5937 65.4265C39.4167 66.2238 39.2596 67.0266 39.1226 67.8337C37.8677 75.2624 38.8477 81.1608 41.9665 83.1826C45.1877 85.2705 50.5943 83.1246 55.8586 77.9522C56.2855 77.5317 56.7029 77.0993 57.1106 76.6554C57.6374 77.2266 58.1782 77.7813 58.7325 78.3187C63.832 83.2505 68.8683 85.2421 71.9841 83.2147C75.2023 81.1207 76.2483 74.7843 74.8903 67.0751C74.7833 66.4711 74.6634 65.8701 74.5305 65.2727C74.9102 65.1462 75.2829 65.0161 75.6462 64.8807C82.5246 62.3194 87 58.1783 87 53.9432C87 49.8819 82.8122 45.9545 76.332 43.4472ZM74.8402 62.1463C74.512 62.2683 74.1755 62.3861 73.8323 62.5006C73.073 59.7987 72.0483 56.9257 70.7941 53.9572C71.9909 51.0595 72.9762 48.2231 73.7142 45.5388C74.328 45.7385 74.9236 45.949 75.4978 46.171C81.0502 48.3196 84.4369 51.4957 84.4369 53.9432C84.4369 56.5501 80.7792 59.9343 74.8402 62.1463ZM72.3759 67.6346C72.9764 71.0433 73.062 74.1254 72.6642 76.535C72.307 78.7001 71.5884 80.1434 70.6997 80.7216C68.809 81.9519 64.7653 80.3528 60.4043 76.1348C59.8888 75.6352 59.3857 75.1196 58.8956 74.5885C60.5864 72.5104 62.276 70.0945 63.9251 67.4112C66.8257 67.122 69.566 66.6488 72.0511 66.0032C72.1708 66.544 72.2791 67.088 72.3759 67.6346ZM47.4553 80.5091C45.608 81.2422 44.1366 81.2633 43.2471 80.6869C41.3545 79.4601 40.5677 74.7239 41.6409 68.3711C41.7685 67.6204 41.9146 66.8738 42.079 66.1323C44.5366 66.7434 47.257 67.1828 50.1645 67.4478C51.8248 70.0734 53.5631 72.4866 55.3151 74.5999C54.9428 75.0048 54.5616 75.3993 54.172 75.7832C51.844 78.0703 49.5112 79.693 47.4553 80.5091ZM38.8008 62.1303C35.8751 61.0062 33.4589 59.5455 31.8028 57.9515C30.3145 56.5193 29.5634 55.097 29.5634 53.9432C29.5634 51.4875 32.8205 48.3554 38.253 46.2266C38.9123 45.9685 39.6023 45.7248 40.3184 45.4961C41.0693 48.2411 42.0541 51.1111 43.2427 54.0133C42.0387 56.9584 41.0398 59.8743 40.2816 62.6516C39.7842 62.4915 39.2905 62.3176 38.8008 62.1303ZM41.7019 39.9339C40.5743 33.457 41.3231 28.5712 43.2077 27.345C45.2149 26.0389 49.6535 27.901 54.3319 32.57C54.6369 32.8752 54.9371 33.1865 55.2321 33.5039C53.4888 35.6079 51.7664 38.0032 50.1209 40.6133C47.299 40.9072 44.5978 41.3793 42.1144 42.0118C41.9614 41.3232 41.8238 40.6305 41.7019 39.9341V39.9339ZM67.5832 47.117C66.9966 45.9782 66.3883 44.8537 65.7586 43.7444C67.673 44.0165 69.5072 44.3776 71.2296 44.8191C70.7126 46.6821 70.068 48.6296 69.3094 50.6264C68.7548 49.4438 68.1793 48.2738 67.5832 47.117ZM57.0288 35.5628C58.211 37.0025 59.3951 38.6096 60.5597 40.3535C58.1972 40.2281 55.8307 40.2276 53.4682 40.3519C54.634 38.6241 55.8281 37.0191 57.0288 35.5628ZM46.4067 47.1368C45.8181 48.2842 45.2533 49.447 44.7129 50.624C43.9666 48.6344 43.328 46.6779 42.8065 44.7886C44.5184 44.3581 46.3439 44.0062 48.2461 43.7391C47.6094 44.8552 46.9961 45.988 46.4067 47.1365V47.1368ZM48.3007 64.3523C46.3355 64.1057 44.4825 63.7719 42.7711 63.3531C43.3008 61.4301 43.9535 59.432 44.7159 57.3996C45.2585 58.5776 45.8256 59.741 46.4168 60.889C47.0248 62.0692 47.6543 63.2251 48.3007 64.3523ZM57.0996 72.5264C55.8846 71.0533 54.6729 69.4235 53.4895 67.6707C54.6384 67.7212 55.8096 67.7471 57 67.7471C58.223 67.7471 59.4319 67.7162 60.6218 67.6567C59.4534 69.4412 58.2738 71.0734 57.0996 72.5264ZM69.3335 57.2958C70.1355 59.3506 70.8115 61.3381 71.3482 63.2282C69.6087 63.6745 67.7304 64.0338 65.7513 64.3006C66.3855 63.1707 66.9996 62.0267 67.5933 60.8692C68.1969 59.6928 68.7771 58.5013 69.3335 57.2958ZM65.373 59.4299C64.4642 61.2044 63.5042 62.9453 62.4947 64.6497C60.666 64.7953 58.8333 64.8676 57 64.8665C55.1327 64.8665 53.3166 64.8012 51.5677 64.6737C50.5318 62.9732 49.5535 61.2293 48.6349 59.4457H48.6352C47.7209 57.6715 46.8669 55.859 46.0751 54.012C46.8649 52.1645 47.7163 50.3511 48.6274 48.5756L48.6272 48.5759C49.538 46.7999 50.5084 45.0635 51.5365 43.3703C53.3208 43.2186 55.1505 43.1395 56.9998 43.1395H57C58.8577 43.1395 60.6898 43.2193 62.4736 43.3721C63.4913 45.0628 64.4555 46.7932 65.3646 48.5603C66.2788 50.3319 67.1414 52.1365 67.9512 53.9711C67.1497 55.8245 66.2898 57.6453 65.373 59.4299ZM70.6605 27.2591C72.6696 28.5615 73.451 33.8134 72.1887 40.7007C72.108 41.1401 72.0176 41.5877 71.9191 42.0416C69.4296 41.3956 66.7266 40.9154 63.8965 40.6169C62.2479 37.9782 60.5395 35.5792 58.8246 33.5023C59.2741 33.0154 59.7342 32.541 60.2046 32.0798C64.6343 27.7472 68.7743 26.0365 70.6605 27.2591ZM57 47.9213C59.959 47.9213 62.3578 50.6174 62.3578 53.9432C62.3578 57.269 59.959 59.9652 57 59.9652C54.041 59.9652 51.6422 57.269 51.6422 53.9432C51.6422 50.6174 54.041 47.9213 57 47.9213Z" fill="#00D8FF"/>
</svg>
