<svg width="115" height="115" viewBox="0 0 115 115" fill="none" xmlns="http://www.w3.org/2000/svg">
<path d="M57.75 1.87639L105.546 29.4717C105.701 29.561 105.796 29.7261 105.796 29.9047V85.0953C105.796 85.2739 105.701 85.439 105.546 85.5283L57.75 113.124C57.5953 113.213 57.4047 113.213 57.25 113.124L9.45354 85.5283C9.29884 85.439 9.20354 85.2739 9.20354 85.0953V29.9047C9.20354 29.7261 9.29884 29.561 9.45354 29.4717L57.25 1.87639C57.4047 1.78707 57.5953 1.78707 57.75 1.87639Z" stroke="#4F89FD" stroke-width="3"/>
<g clip-path="url(#clip0_705_131)">
<path d="M57.5025 33.2013C46.7023 33.2013 39.9546 38.5992 37.2525 49.3994C41.3012 44.0009 46.0277 41.9765 51.4262 43.3263C54.5087 44.0945 56.7115 46.3296 59.151 48.8065C63.1212 52.8356 67.7167 57.5 77.7525 57.5C88.5521 57.5 95.3004 52.1015 98.0025 41.2988C93.9531 46.7005 89.2273 48.7248 83.8281 47.375C80.7463 46.6062 78.5461 44.3717 76.1034 41.8949C72.1357 37.8658 67.5414 33.2013 57.5025 33.2013ZM37.2525 57.5C26.4529 57.5 19.7046 62.8986 17.0025 73.7013C21.0512 68.2996 25.7771 66.2752 31.1762 67.625C34.2587 68.3939 36.4615 70.6284 38.901 73.1052C42.8712 77.1343 47.4667 81.7988 57.5025 81.7988C68.3021 81.7988 75.0504 76.4009 77.7525 65.6007C73.7031 70.9992 68.9773 73.0236 63.5781 71.6738C60.4963 70.9055 58.296 68.6704 55.8534 66.1936C51.8857 62.1645 47.2914 57.5 37.2525 57.5Z" fill="#38BDF8"/>
</g>
<defs>
<clipPath id="clip0_705_131">
<rect width="81" height="81" fill="white" transform="translate(17 17)"/>
</clipPath>
</defs>
</svg>
