<svg width="115" height="115" viewBox="0 0 115 115" fill="none" xmlns="http://www.w3.org/2000/svg">
<path d="M84.169 29.125H31.831C30.3365 29.125 29.125 30.3365 29.125 31.831V84.169C29.125 85.6635 30.3365 86.875 31.831 86.875H84.169C85.6635 86.875 86.875 85.6635 86.875 84.169V31.831C86.875 30.3365 85.6635 29.125 84.169 29.125Z" fill="#3178C6"/>
<path fill-rule="evenodd" clip-rule="evenodd" d="M62.6303 74.0029V80.3307C63.78 80.8981 65.0052 81.2975 66.2685 81.5166C67.7283 81.7861 69.2101 81.9187 70.6946 81.9126C72.1414 81.9195 73.5849 81.7736 75.0011 81.4774C76.2726 81.2205 77.4858 80.731 78.5796 80.0337C79.595 79.3782 80.4319 78.481 81.0154 77.4226C82.0603 75.2308 82.1981 72.7153 81.399 70.4224C81.0618 69.565 80.5593 68.7822 79.9202 68.1186C79.2342 67.413 78.4549 66.8044 77.604 66.3098C76.6244 65.7361 75.6066 65.2302 74.5577 64.7959C73.7327 64.4536 72.9902 64.1208 72.3302 63.7977C71.744 63.517 71.183 63.1865 70.6534 62.8097C70.2386 62.5189 69.8783 62.1573 69.5891 61.7414C69.3393 61.3637 69.2092 60.9195 69.2158 60.4667C69.2103 60.05 69.3264 59.6408 69.5499 59.2891C69.7927 58.921 70.1165 58.6133 70.4966 58.3898C70.9613 58.1163 71.4668 57.9192 71.994 57.8061C72.6412 57.6623 73.3028 57.5931 73.9658 57.5999C74.5233 57.6018 75.0801 57.6418 75.6323 57.7195C76.2285 57.8001 76.8184 57.9221 77.3978 58.0846C77.987 58.2479 78.5633 58.4547 79.122 58.7033C79.6641 58.9449 80.1826 59.2363 80.6709 59.5737V53.6687C79.6544 53.2841 78.6001 53.0076 77.5256 52.8437C76.2281 52.6549 74.918 52.566 73.6069 52.5777C72.1737 52.57 70.7447 52.7327 69.3499 53.0624C68.0892 53.3505 66.8904 53.8625 65.8106 54.5742C64.8076 55.2424 63.9794 56.1413 63.3954 57.1956C62.7766 58.3664 62.4704 59.6771 62.5065 61.0009C62.4608 62.7515 63.0374 64.4616 64.1338 65.8272C65.479 67.3412 67.1751 68.502 69.0735 69.2076C69.9398 69.5651 70.7476 69.9151 71.4969 70.2574C72.1731 70.5583 72.8229 70.9149 73.4398 71.3237C73.9374 71.6474 74.3744 72.0558 74.7309 72.5303C75.0445 72.9607 75.2108 73.4808 75.2053 74.0132C75.2082 74.4123 75.1057 74.805 74.9083 75.1517C74.689 75.5244 74.3807 75.8369 74.0111 76.0613C73.5486 76.3433 73.0427 76.5468 72.5138 76.6636C71.8248 76.8176 71.1201 76.8903 70.4141 76.8801C69.0288 76.8776 67.6545 76.6333 66.3531 76.1582C64.9935 75.6676 63.7327 74.9377 62.6303 74.0029ZM52.0001 58.2496H60.2501V53.0376H37.2471V58.2496H45.4599V81.4609H52.0001V58.2496Z" fill="white"/>
<path d="M57.75 1.87639L105.546 29.4717C105.701 29.561 105.796 29.7261 105.796 29.9047V85.0953C105.796 85.2739 105.701 85.439 105.546 85.5283L57.75 113.124C57.5953 113.213 57.4047 113.213 57.25 113.124L9.45354 85.5283C9.29884 85.439 9.20354 85.2739 9.20354 85.0953V29.9047C9.20354 29.7261 9.29884 29.561 9.45354 29.4717L57.25 1.87639C57.4047 1.78707 57.5953 1.78707 57.75 1.87639Z" stroke="#4F89FD" stroke-width="3"/>
</svg>
