<svg width="636" height="471" viewBox="0 0 636 471" fill="none" xmlns="http://www.w3.org/2000/svg">
<g clip-path="url(#clip0_12_0)">
<path d="M548.871 456.005L415.98 456.497C380.725 444.66 351.84 403.548 351.657 341.909C351.622 332.623 352.25 323.349 353.535 314.175L460.571 287.306L543.144 266.579C549.228 272.667 554.898 279.254 560.106 286.285L481.147 332.87L443.899 354.847L485.755 338.713L572.628 305.225C578.046 314.48 582.873 324.15 587.074 334.164L560.862 364.432L590.514 342.742C590.641 343.075 590.767 343.407 590.892 343.741C609.685 393.589 586.368 455.867 548.871 456.005Z" fill="#F2F2F2"/>
<path d="M527.032 252.628C506.935 259.077 482.228 267.225 456.825 275.694C420.097 287.943 381.915 300.869 354.117 310.317L354.135 310.206C355.163 303.576 357.579 297.311 361.185 291.923C381.777 262.008 407.997 241.11 437.179 233.349H437.181C445.387 231.162 453.792 230.041 462.228 230.01C485.445 229.924 507.437 238.061 527.032 252.628Z" fill="#F2F2F2"/>
<path d="M146.622 362.81L123.646 439.698L118.005 458.588C115.289 463.174 112.052 467.346 108.375 471H107.836C78.8883 471 52.6019 469.335 33.232 466.634L35.9279 443.54L41.7139 394.009L49.1117 330.576C53.485 327.391 58.0642 324.574 62.8115 322.148L69.3338 387.939L72.4124 418.975L73.3052 385.743L75.1547 316.765C80.9872 314.657 86.952 313.037 92.9998 311.919L102.688 336.6L98.1075 311.09C98.3046 311.064 98.5017 311.031 98.6988 311.006C128.11 307.047 154.692 335.784 146.622 362.81Z" fill="#F2F2F2"/>
<path d="M38.5252 339.502C37.4353 355.211 36.212 374.561 34.9945 394.481C33.9741 411.227 32.9653 428.368 32.0551 444.071C31.6029 451.903 31.1738 459.378 30.7854 466.271C27.4924 465.785 24.4138 465.26 21.5788 464.716C18.7819 459.167 16.3913 453.374 14.4303 447.394C9.44433 432.19 7.53691 416.247 9.21243 400.499V400.493C9.88609 394.143 11.1411 387.887 12.9577 381.823C17.9111 365.399 26.7451 350.777 38.5252 339.502Z" fill="#F2F2F2"/>
<path d="M215.672 455.265C215.672 463.932 167.679 470.955 108.375 471H107.836C78.8883 471 52.6019 469.335 33.232 466.634C32.403 466.511 31.5855 466.394 30.7854 466.271C27.4924 465.785 24.4138 465.261 21.5788 464.716C8.02972 462.08 0 458.808 0 455.265C0 452.395 5.25265 449.713 14.4303 447.394C19.2771 446.17 25.2139 445.056 32.0551 444.071C33.3132 443.883 34.6041 443.706 35.9279 443.54C55.0079 441.046 80.2102 439.53 107.836 439.53C113.205 439.53 118.486 439.588 123.646 439.698C175.703 440.812 215.672 447.355 215.672 455.265Z" fill="#3F3D56"/>
<path d="M86.923 317.515L89.6325 341.129C89.6325 341.129 90.7163 349 91.8001 353.239C91.8001 353.239 90.7163 375.642 99.3868 391.385L104.806 402.89L105.89 419.844L119.437 421.66L116.728 396.229C116.728 396.229 115.644 384.119 116.728 379.275C117.811 374.431 111.309 352.028 111.309 352.028C111.309 352.028 119.979 320.542 113.476 312.671C106.973 304.799 86.923 317.515 86.923 317.515Z" fill="#A0616A"/>
<path d="M110.767 415C110.767 415 104.806 415 104.264 416.816C103.722 418.633 95.0515 434.981 95.0515 434.981C95.0515 434.981 87.4649 448.302 98.3029 448.907C109.141 449.513 112.392 444.063 112.392 444.063C112.392 444.063 122.147 426.504 122.688 423.477C123.23 420.449 118.617 413.961 118.617 413.961C118.617 413.961 112.392 418.633 110.767 415Z" fill="#2F2E41"/>
<path d="M118.353 118.305C128.529 118.305 136.778 109.088 136.778 97.7185C136.778 86.3487 128.529 77.1316 118.353 77.1316C108.178 77.1316 99.9286 86.3487 99.9286 97.7185C99.9286 109.088 108.178 118.305 118.353 118.305Z" fill="#A0616A"/>
<path d="M103.451 104.076C103.451 104.076 103.451 126.48 96.4063 128.296C89.3616 130.113 106.161 150.7 115.373 148.278C124.585 145.856 128.378 129.507 128.378 129.507C128.378 129.507 120.25 118.003 123.501 111.948C126.753 105.893 103.451 104.076 103.451 104.076Z" fill="#A0616A"/>
<path d="M111.309 135.259C108.722 135.169 106.192 134.388 103.931 132.983C101.669 131.577 99.7413 129.587 98.3081 127.18C98.3081 127.18 90.7163 128.599 89.6325 129.204C88.5488 129.81 69.5822 136.47 65.247 150.397L82.5878 175.222C82.5878 175.222 78.7945 210.341 82.5878 226.084C84.8467 235.514 84.2756 245.511 80.9621 254.543C80.9621 254.543 79.3364 255.148 82.0459 256.359C84.7554 257.57 147.074 243.644 148.158 240.011C149.242 236.378 147.074 236.378 148.7 234.561C150.325 232.745 154.661 221.846 150.325 218.213C145.99 214.58 143.281 174.617 143.281 174.617L154.661 142.525C154.661 142.525 133.862 123.953 126.379 126.276C126.379 126.276 124.856 135.259 111.309 135.259Z" fill="#D0CDE1"/>
<path d="M118.353 305.404C118.353 305.404 117.269 332.046 119.437 342.34C121.605 352.633 121.605 356.872 121.605 356.872C121.605 356.872 118.353 374.431 119.979 390.78C121.605 407.128 118.082 433.48 118.082 433.48L131.359 438.008L139.487 391.99C139.487 391.99 145.99 363.532 142.197 350.211C142.197 350.211 144.365 309.643 145.99 305.404C147.616 301.166 118.353 305.404 118.353 305.404Z" fill="#A0616A"/>
<path d="M103.812 101.385C104.056 99.4539 104.573 97.3474 106.047 96.3024C107.577 95.2175 109.551 95.6625 111.359 95.8101C113.166 95.9578 115.38 95.4528 115.974 93.54C116.345 92.3474 115.944 90.9221 116.522 89.8373C117.442 88.1109 120.249 88.308 120.733 86.3732C120.887 85.7604 120.738 85.0764 120.959 84.4902C121.258 83.6993 122.096 83.3841 122.845 83.1904C125.581 82.483 128.392 82.2061 131.197 82.3679C131.472 82.4229 131.755 82.3603 131.99 82.1926C132.114 82.0554 132.202 81.8835 132.246 81.6949C132.88 79.5748 132.208 77.1693 130.946 75.4352C129.604 73.7651 127.951 72.445 126.102 71.5685C122.009 69.3504 117.572 68.0329 113.034 67.6879C109.577 67.4453 105.949 67.8657 103.005 69.9036C102.132 70.5204 101.322 71.2417 100.59 72.0548C97.3869 75.6435 95.2986 80.2855 94.6318 85.2986C93.9852 90.2998 94.486 95.4026 96.0873 100.128C97.0227 102.973 98.4982 105.911 100.781 107.664C102.005 108.604 103.06 109.471 103.568 107.876C104.107 106.184 103.575 103.26 103.812 101.385Z" fill="#2F2E41"/>
<path d="M83.6716 250.91C83.6716 250.91 75.5431 263.02 77.1688 271.497C78.7945 279.974 84.7554 293.9 84.7554 293.9C84.7554 293.9 81.504 321.147 86.923 321.147C92.3421 321.147 115.644 319.937 116.186 316.909C116.728 313.882 114.56 283.607 114.56 283.607C114.56 283.607 117.269 310.249 118.895 310.249C120.521 310.249 148.7 313.276 149.784 311.46C150.867 309.643 153.035 263.02 153.035 263.02C153.035 263.02 155.991 241.031 146.655 238.099C137.32 235.167 83.6716 250.91 83.6716 250.91Z" fill="#2F2E41"/>
<path d="M127.024 433.164C127.024 433.164 117.27 427.109 116.728 431.953C116.186 436.797 110.225 454.357 110.225 454.357C110.225 454.357 104.264 468.283 117.269 468.889C130.275 469.494 133.527 462.834 133.527 459.806C133.527 456.779 132.069 436.008 132.069 436.008L127.024 433.164Z" fill="#2F2E41"/>
<path d="M160.622 175.222L163.331 201.864C163.331 201.864 166.583 216.396 164.415 222.451C162.247 228.506 154.119 256.359 154.119 256.359C154.119 256.359 151.951 241.221 146.532 239.405L149.784 204.892C149.784 204.892 142.025 183.354 143.737 180.499C145.448 177.644 160.622 175.222 160.622 175.222Z" fill="#A0616A"/>
<path d="M64.1632 177.039L65.247 201.259C65.247 201.259 61.4537 222.451 69.0403 244.855L70.1241 254.543L77.1688 269.68C77.1688 269.68 78.7945 255.148 82.0459 255.148C82.0459 255.148 78.7945 245.46 79.8783 240.011C80.9621 234.561 79.3364 205.497 79.3364 205.497L82.0459 181.985L64.1632 177.039Z" fill="#A0616A"/>
<path d="M148.7 141.92H154.661C154.661 141.92 168.75 178.25 163.331 178.855C157.912 179.461 140.571 184.305 140.029 181.883C139.487 179.461 148.7 141.92 148.7 141.92Z" fill="#D0CDE1"/>
<path d="M70.1241 144.947L65.247 150.397C65.247 150.397 58.7442 177.644 63.6213 180.672C68.4984 183.699 86.923 187.332 88.0068 184.91C89.0906 182.488 70.1241 144.947 70.1241 144.947Z" fill="#D0CDE1"/>
<path d="M458.639 18.8705V438.777C458.635 443.779 456.854 448.575 453.687 452.11C450.521 455.646 446.227 457.633 441.751 457.635H289.186C286.968 457.639 284.771 457.154 282.721 456.208C280.671 455.262 278.808 453.874 277.24 452.122C275.671 450.37 274.427 448.29 273.579 446C272.731 443.71 272.295 441.255 272.298 438.777V18.8705C272.297 16.3924 272.734 13.9384 273.583 11.6488C274.431 9.35926 275.675 7.27891 277.244 5.52657C278.812 3.77424 280.674 2.38425 282.723 1.436C284.772 0.487739 286.968 -0.000213526 289.186 8.85336e-07H312.017V3.27141C312.017 7.39213 313.481 11.3443 316.088 14.2587C318.696 17.1731 322.232 18.811 325.92 18.8122H403.515C406.484 18.8193 409.375 17.7561 411.76 15.7805C412.242 15.3887 412.699 14.9602 413.128 14.4978C414.486 13.0487 415.567 11.3064 416.304 9.37664C417.042 7.44685 417.421 5.36977 417.418 3.27141V8.85336e-07H441.751C443.969 -0.000758358 446.165 0.486822 448.214 1.43488C450.264 2.38295 452.126 3.77291 453.694 5.52535C455.263 7.27778 456.507 9.35835 457.355 11.6482C458.204 13.938 458.64 16.3922 458.639 18.8705Z" fill="#3F3D56"/>
<path opacity="0.1" d="M386.702 178.562C410.717 178.562 430.184 174.212 430.184 168.845C430.184 163.478 410.717 159.128 386.702 159.128C362.687 159.128 343.22 163.478 343.22 168.845C343.22 174.212 362.687 178.562 386.702 178.562Z" fill="black"/>
<path opacity="0.1" d="M323.508 228.443C347.522 228.443 366.99 224.092 366.99 218.726C366.99 213.359 347.522 209.009 323.508 209.009C299.493 209.009 280.025 213.359 280.025 218.726C280.025 224.092 299.493 228.443 323.508 228.443Z" fill="black"/>
<path opacity="0.1" d="M359.453 319.783C383.468 319.783 402.935 315.433 402.935 310.066C402.935 304.7 383.468 300.349 359.453 300.349C335.438 300.349 315.971 304.7 315.971 310.066C315.971 315.433 335.438 319.783 359.453 319.783Z" fill="black"/>
<path opacity="0.1" d="M347.278 418.897C371.293 418.897 390.76 414.547 390.76 409.18C390.76 403.814 371.293 399.463 347.278 399.463C323.263 399.463 303.796 403.814 303.796 409.18C303.796 414.547 323.263 418.897 347.278 418.897Z" fill="black"/>
<path d="M498.306 261.386H366.12V275.818V297.795V310.161L377.187 297.795H498.306V261.386Z" fill="#6C63FF"/>
<path d="M183.205 168.426H315.391V182.858V204.835V217.201L304.325 204.835H183.205V168.426Z" fill="#6C63FF"/>
<path d="M469.975 270.226H395.611V276.963H469.975V270.226Z" fill="white"/>
<path d="M469.975 280.332H395.611V287.069H469.975V280.332Z" fill="white"/>
<path d="M280.103 177.914H205.739V184.651H280.103V177.914Z" fill="white"/>
<path d="M280.103 188.02H205.739V194.757H280.103V188.02Z" fill="white"/>
<path d="M636 76.8567H386.702V104.075V145.524V168.845L407.573 145.524H636V76.8567Z" fill="#6C63FF"/>
<path d="M597.156 92.4041H425.546V107.951H597.156V92.4041Z" fill="white"/>
<path d="M597.156 115.725H425.546V131.272H597.156V115.725Z" fill="white"/>
<path d="M331.532 389.752C337.877 402.901 351.345 408.546 351.345 408.546C351.345 408.546 354.524 392.871 348.179 379.722C341.833 366.572 328.366 360.928 328.366 360.928C328.366 360.928 325.186 376.602 331.532 389.752Z" fill="white"/>
<path d="M335.893 385.426C347.35 393.127 351.762 408.424 351.762 408.424C351.762 408.424 337.6 411.235 326.143 403.534C314.687 395.832 310.275 380.535 310.275 380.535C310.275 380.535 324.437 377.724 335.893 385.426Z" fill="#6C63FF"/>
</g>
<defs>
<clipPath id="clip0_12_0">
<rect width="636" height="471" fill="white"/>
</clipPath>
</defs>
</svg>
