<?xml version="1.0" encoding="utf-8"?>
<!-- Generator: Adobe Illustrator 25.2.1, SVG Export Plug-In . SVG Version: 6.00 Build 0)  -->
<svg version="1.1" id="Capa_1" xmlns="http://www.w3.org/2000/svg" xmlns:xlink="http://www.w3.org/1999/xlink" x="0px" y="0px"
	 viewBox="0 0 650 650" style="enable-background:new 0 0 650 650;" xml:space="preserve">
<style type="text/css">
	.st0{fill:url(#SVGID_1_);}
	.st1{fill:#95B0DD;}
	.st2{fill:#FFFFFF;}
	.st3{fill:#BECEEB;}
	.st4{fill:url(#SVGID_2_);}
	.st5{fill:#8093CA;}
	.st6{fill:url(#SVGID_3_);}
	.st7{opacity:0.53;fill:#BECEEB;enable-background:new    ;}
	.st8{fill:url(#SVGID_4_);}
	.st9{fill:url(#SVGID_5_);}
	.st10{fill:url(#SVGID_6_);}
	.st11{fill:url(#SVGID_7_);}
	.st12{fill:url(#SVGID_8_);}
	.st13{fill:url(#SVGID_9_);}
	.st14{fill:url(#SVGID_10_);}
	.st15{fill:url(#SVGID_11_);}
	.st16{fill:url(#SVGID_12_);}
	.st17{fill:url(#SVGID_13_);}
	.st18{fill:url(#SVGID_14_);}
	.st19{fill:url(#SVGID_15_);}
	.st20{fill:url(#SVGID_16_);}
	.st21{fill:url(#SVGID_17_);}
	.st22{fill:url(#SVGID_18_);}
	.st23{fill:url(#SVGID_19_);}
	.st24{fill:url(#SVGID_20_);}
	.st25{fill:url(#SVGID_21_);}
	.st26{fill:url(#SVGID_22_);}
	.st27{fill:url(#SVGID_23_);}
	.st28{fill:url(#SVGID_24_);}
	.st29{fill:url(#SVGID_25_);}
	.st30{fill:url(#SVGID_26_);}
	.st31{fill:url(#SVGID_27_);}
	.st32{fill:url(#SVGID_28_);}
	.st33{fill:url(#SVGID_29_);}
	.st34{fill:url(#SVGID_30_);}
	.st35{fill:url(#SVGID_31_);}
	.st36{fill:url(#SVGID_32_);}
	.st37{fill:url(#SVGID_33_);}
	.st38{fill:url(#SVGID_34_);}
	.st39{fill:url(#SVGID_35_);}
</style>
<g id="Illustration">
	<g>
		
			<linearGradient id="SVGID_1_" gradientUnits="userSpaceOnUse" x1="719.9631" y1="-172.0021" x2="161.1292" y2="522.0349" gradientTransform="matrix(1 0 0 -1 0 652)">
			<stop  offset="0" style="stop-color:#DAE1F3"/>
			<stop  offset="1" style="stop-color:#E9EFFA"/>
		</linearGradient>
		<path class="st0" d="M567.44,549.46c-12.9,13.47-25.11,22.15-34.76,29.02c-113.38,80.66-247.54,57.15-276.05,51.41
			c-42.1-8.48-123.49-24.87-182.33-93.48c-89.02-103.8-75.16-267.33-6.11-375.27c12.63-19.75,79.35-129.34,214.95-146.91
			C365.2,3.58,460.87,25.04,530.14,82.58C675.56,203.37,665.21,447.4,567.44,549.46z"/>
		<g>
			<g>
				<path class="st1" d="M129.87,357.71c0,0-29.36-63.28-7.36-93.22s73.35-65.02,35.47-157.76c-22.18-54.29-31.08-78.37-34.65-89.01
					c-1.39-4.15-6.35-5.83-9.97-3.37C87.75,31.75,6.55,92.84,14.47,162.96C23.88,246.09,129.87,357.71,129.87,357.71z"/>
				<path class="st2" d="M102.9,49.29C84.17,89.93,69.81,153.68,71.98,210.23c1.05,9.02,1.34,29.04,11.36,60.48
					c8.18,26.3,21.09,52.23,32.07,68.33c0.69,1.02,2.08,1.28,3.1,0.59c1.75-1.19,0.6-3.14,0.61-3.06
					c-16.87-28.34-31.54-66.37-37.49-103.85c-6.87-46.22,0.52-97.14,11.41-142.35l1.19-4.5c8.78-34.24,12.89-36.26,10.25-37.23
					C103.87,48.4,103.18,48.7,102.9,49.29z"/>
			</g>
			<g>
				<path class="st3" d="M154.16,379.71c-3.63,3.52,0.79-73.02-14.08-166.81c-7.01-44.19-1.78-91.81,15.55-119.89
					c14.43-23.37,85.7-34.77,109.2-37.93c2.94-0.4,5.01,2.8,3.44,5.32c-7.73,12.4-23.63,40.87-22.65,64.04
					c1.29,30.54-19.53,57-41.79,69.57c-22.26,12.57-33.99,21.56-33.2,63.44C171.42,299.34,164.47,369.71,154.16,379.71z"/>
				<path class="st2" d="M237.48,77.06c-27.92,10.39-54.1,33.19-61.63,62.42l-0.7,2.78c-1.6,6.51-8.11,51.23-8.3,86.6
					c0,0.44,0.35,0.8,0.8,0.8c0.75,0,0.85-0.85,0.8-0.76c1.5-20.44,4.65-46.75,7.51-66.6c2.97-21.6,5.19-36.3,21.87-55.12
					c18.71-20.51,40.21-28.98,40.15-28.95c0.32-0.14,0.47-0.52,0.33-0.85C238.15,77.1,237.8,76.95,237.48,77.06z"/>
			</g>
		</g>
		<g>
			
				<linearGradient id="SVGID_2_" gradientUnits="userSpaceOnUse" x1="197.8993" y1="237.8561" x2="742.9089" y2="598.6092" gradientTransform="matrix(1 0 0 -1 0 652)">
				<stop  offset="0" style="stop-color:#232451"/>
				<stop  offset="1" style="stop-color:#2A307B"/>
			</linearGradient>
			<path class="st4" d="M44.21,493.64c0,5.63,4.61,10.23,10.24,10.23h553.89c5.63,0,10.24-4.6,10.24-10.23l4.61-318.3
				c0-5.63-6.63-16.62-18.78-15.79L63.09,145.54c-7.07-0.18-13.9,2.54-18.91,7.53c-5,4.99-7.75,11.81-7.58,18.87L44.21,493.64z"/>
			<path class="st5" d="M54.33,483.82c0,5.33,4.36,9.69,9.69,9.69h530.97c5.33,0,9.69-4.36,9.69-9.69l4.35-288.96
				c-0.51-17.39-15.76-23.64-25-23.27l-518.8-13.92c-4.97-0.13-9.77,1.78-13.28,5.29s-5.45,8.31-5.33,13.28L54.33,483.82z"/>
			
				<linearGradient id="SVGID_3_" gradientUnits="userSpaceOnUse" x1="330.1" y1="360.4313" x2="330.1" y2="225.2809" gradientTransform="matrix(1 0 0 -1 0 652)">
				<stop  offset="0" style="stop-color:#232451"/>
				<stop  offset="1" style="stop-color:#2A307B"/>
			</linearGradient>
			<path class="st6" d="M16.91,530.3h626.37c0.7,0,1.28-0.57,1.28-1.28v-25.41c0-0.7-0.57-1.28-1.28-1.28H16.91
				c-0.7,0-1.28,0.57-1.28,1.28v25.41C15.64,529.72,16.21,530.3,16.91,530.3z"/>
			<g>
				<path class="st7" d="M229.19,201.64l-140.87-0.99c-1.03-0.01-1.87-0.85-1.86-1.88l0.06-9.01c0.01-1.03,0.85-1.87,1.88-1.86
					l140.87,0.99c1.03,0.01,1.87,0.85,1.86,1.88l-0.06,9.01C231.07,200.82,230.23,201.65,229.19,201.64z"/>
				<path class="st7" d="M319.79,202.55l-47.15-0.33c-0.99-0.01-1.79-0.82-1.78-1.81l0.06-9.16c0.01-0.99,0.82-1.79,1.81-1.78
					l47.15,0.33c0.99,0.01,1.79,0.82,1.78,1.81l-0.06,9.16C321.59,201.76,320.78,202.56,319.79,202.55z"/>
				<path class="st7" d="M429.4,203.32l-94.5-0.66c-1.58-0.01-2.84-1.3-2.83-2.87l0.05-7.04c0.01-1.58,1.3-2.84,2.87-2.83l94.5,0.66
					c1.58,0.01,2.84,1.3,2.83,2.87l-0.05,7.04C432.26,202.06,430.98,203.33,429.4,203.32z"/>
				<path class="st7" d="M121.99,223.3l-33.06-0.23c-1.58-0.01-2.84-1.3-2.83-2.87l0.05-7.04c0.01-1.58,1.3-2.84,2.87-2.83
					l33.06,0.23c1.58,0.01,2.84,1.3,2.83,2.87l-0.05,7.04C124.85,222.04,123.57,223.31,121.99,223.3z"/>
				<path class="st7" d="M229.32,224.07l-101.43-0.71c-1.03-0.01-1.87-0.85-1.86-1.88l0.06-9.01c0.01-1.03,0.85-1.87,1.88-1.86
					l101.43,0.71c1.03,0.01,1.87,0.85,1.86,1.88l-0.06,9.01C231.2,223.25,230.35,224.08,229.32,224.07z"/>
				<path class="st7" d="M320.04,224.99l-47.15-0.33c-0.99-0.01-1.79-0.82-1.78-1.81l0.06-9.16c0.01-0.99,0.82-1.79,1.81-1.78
					l47.15,0.33c0.99,0.01,1.79,0.82,1.78,1.81l-0.06,9.16C321.84,224.2,321.03,224.99,320.04,224.99z"/>
				<path class="st7" d="M511.29,226.33l-141.1-0.99c-1.58-0.01-2.84-1.3-2.83-2.87l0.05-7.04c0.01-1.58,1.3-2.84,2.87-2.83
					l141.1,0.99c1.58,0.01,2.84,1.3,2.83,2.87l-0.05,7.04C514.15,225.07,512.86,226.34,511.29,226.33z"/>
				<path class="st7" d="M121.8,245.7l-33.06-0.23c-1.58-0.01-2.84-1.3-2.83-2.87l0.05-7.04c0.01-1.58,1.3-2.84,2.87-2.83
					l33.06,0.23c1.58,0.01,2.84,1.3,2.83,2.87l-0.05,7.04C124.67,244.44,123.38,245.71,121.8,245.7z"/>
				<path class="st7" d="M229.11,246.48l-101.43-0.71c-1.03-0.01-1.87-0.85-1.86-1.88l0.06-9.01c0.01-1.03,0.85-1.87,1.88-1.86
					l101.43,0.71c1.03,0.01,1.87,0.85,1.86,1.88l-0.06,9.01C230.99,245.65,230.15,246.48,229.11,246.48z"/>
				<path class="st7" d="M319.84,247.39l-47.15-0.33c-0.99-0.01-1.79-0.82-1.78-1.81l0.06-9.16c0.01-0.99,0.82-1.79,1.81-1.78
					l47.15,0.33c0.99,0.01,1.79,0.82,1.78,1.81l-0.06,9.16C321.64,246.6,320.84,247.4,319.84,247.39z"/>
				<path class="st7" d="M573.59,249.16l-185.59-1.3c-1.58-0.01-2.84-1.3-2.83-2.87l0.05-7.04c0.01-1.58,1.3-2.84,2.87-2.83
					l185.59,1.3c1.58,0.01,2.84,1.3,2.83,2.87l-0.05,7.04C576.45,247.91,575.16,249.18,573.59,249.16z"/>
				<path class="st7" d="M121.96,268.14l-33.06-0.23c-1.58-0.01-2.84-1.3-2.83-2.87l0.05-7.04c0.01-1.58,1.3-2.84,2.87-2.83
					l33.06,0.23c1.58,0.01,2.84,1.3,2.83,2.87l-0.05,7.04C124.82,266.88,123.53,268.15,121.96,268.14z"/>
				<path class="st7" d="M229.51,268.91l-101.43-0.71c-1.03-0.01-1.87-0.85-1.86-1.88l0.06-9.01c0.01-1.03,0.85-1.87,1.88-1.86
					l101.43,0.71c1.03,0.01,1.87,0.85,1.86,1.88l-0.06,9.01C231.39,268.09,230.54,268.92,229.51,268.91z"/>
				<path class="st7" d="M320.09,269.82l-47.15-0.33c-0.99-0.01-1.79-0.82-1.78-1.81l0.06-9.16c0.01-0.99,0.82-1.79,1.81-1.78
					l47.15,0.33c0.99,0.01,1.79,0.82,1.78,1.81l-0.06,9.16C321.89,269.03,321.09,269.83,320.09,269.82z"/>
				<path class="st7" d="M574.43,271.61l-185.59-1.3c-1.58-0.01-2.84-1.3-2.83-2.87l0.05-7.04c0.01-1.58,1.3-2.84,2.87-2.83
					l185.59,1.3c1.58,0.01,2.84,1.3,2.83,2.87l-0.05,7.04C577.3,270.35,576.01,271.62,574.43,271.61z"/>
				<path class="st7" d="M121.68,291.41l-33.06-0.23c-1.58-0.01-2.84-1.3-2.83-2.87l0.05-7.04c0.01-1.58,1.3-2.84,2.87-2.83
					l33.06,0.23c1.58,0.01,2.84,1.3,2.83,2.87l-0.05,7.04C124.54,290.16,123.25,291.42,121.68,291.41z"/>
				<path class="st7" d="M229.14,292.19l-101.43-0.71c-1.03-0.01-1.87-0.85-1.86-1.88l0.06-9.01c0.01-1.03,0.85-1.87,1.88-1.86
					l101.43,0.71c1.03,0.01,1.87,0.85,1.86,1.88l-0.06,9.01C231.01,291.36,230.17,292.2,229.14,292.19z"/>
				<path class="st7" d="M319.78,293.1l-47.15-0.33c-0.99-0.01-1.79-0.82-1.78-1.81l0.06-9.16c0.01-0.99,0.82-1.79,1.81-1.78
					l47.15,0.33c0.99,0.01,1.79,0.82,1.78,1.81l-0.06,9.16C321.58,292.31,320.77,293.11,319.78,293.1z"/>
				<path class="st7" d="M573.89,294.88l-185.59-1.3c-1.58-0.01-2.84-1.3-2.83-2.87l0.05-7.04c0.01-1.58,1.3-2.84,2.87-2.83
					l185.59,1.3c1.58,0.01,2.84,1.3,2.83,2.87l-0.05,7.04C576.76,293.62,575.47,294.89,573.89,294.88z"/>
				<path class="st7" d="M121.83,313.85l-33.06-0.23c-1.58-0.01-2.84-1.3-2.83-2.87l0.05-7.04c0.01-1.58,1.3-2.84,2.87-2.83
					l33.06,0.23c1.58,0.01,2.84,1.3,2.83,2.87l-0.05,7.04C124.7,312.59,123.41,313.86,121.83,313.85z"/>
				<path class="st7" d="M229.53,314.62l-101.43-0.71c-1.03-0.01-1.87-0.85-1.86-1.88l0.06-9.01c0.01-1.03,0.85-1.87,1.88-1.86
					l101.43,0.71c1.03,0.01,1.87,0.85,1.86,1.88l-0.06,9.01C231.41,313.8,230.57,314.63,229.53,314.62z"/>
				<path class="st7" d="M320.03,315.54l-47.15-0.33c-0.99-0.01-1.79-0.82-1.78-1.81l0.06-9.16c0.01-0.99,0.82-1.79,1.81-1.78
					l47.15,0.33c0.99,0.01,1.79,0.82,1.78,1.81l-0.06,9.16C321.83,314.74,321.02,315.54,320.03,315.54z"/>
				<path class="st7" d="M445.6,316.42l-111.5-0.78c-1.58-0.01-2.84-1.3-2.83-2.87l0.05-7.04c0.01-1.58,1.3-2.84,2.87-2.83
					l111.5,0.78c1.58,0.01,2.84,1.3,2.83,2.87l-0.05,7.04C448.46,315.16,447.17,316.43,445.6,316.42z"/>
				<path class="st7" d="M229.4,337.03l-141.66-0.99c-1.03-0.01-1.87-0.85-1.86-1.88l0.06-9.01c0.01-1.03,0.85-1.87,1.88-1.86
					l141.66,0.99c1.03,0.01,1.87,0.85,1.86,1.88l-0.06,9.01C231.28,336.2,230.44,337.03,229.4,337.03z"/>
				<path class="st7" d="M319.83,337.94l-47.15-0.33c-0.99-0.01-1.79-0.82-1.78-1.81l0.06-9.16c0.01-0.99,0.82-1.79,1.81-1.78
					l47.15,0.33c0.99,0.01,1.79,0.82,1.78,1.81l-0.06,9.16C321.64,337.14,320.83,337.94,319.83,337.94z"/>
				<path class="st7" d="M500.77,339.2l-140.41-0.98c-1.58-0.01-2.84-1.3-2.83-2.87l0.05-7.04c0.01-1.58,1.3-2.84,2.87-2.83
					l140.41,0.98c1.58,0.01,2.84,1.3,2.83,2.87l-0.05,7.04C503.63,337.95,502.35,339.21,500.77,339.2z"/>
				<path class="st7" d="M120.34,358.67l-31.51-0.22c-1.58-0.01-2.84-1.3-2.83-2.87l0.05-7.04c0.01-1.58,1.3-2.84,2.87-2.83
					l31.51,0.22c1.58,0.01,2.84,1.3,2.83,2.87l-0.05,7.04C123.2,357.42,121.92,358.69,120.34,358.67z"/>
				<path class="st7" d="M229.72,359.46l-101.43-0.71c-1.03-0.01-1.87-0.85-1.86-1.88l0.06-9.01c0.01-1.03,0.85-1.87,1.88-1.86
					l101.43,0.71c1.03,0.01,1.87,0.85,1.86,1.88l-0.06,9.01C231.6,358.64,230.75,359.47,229.72,359.46z"/>
				<path class="st7" d="M320.09,360.37l-47.15-0.33c-0.99-0.01-1.79-0.82-1.78-1.81l0.06-9.16c0.01-0.99,0.82-1.79,1.81-1.78
					l47.15,0.33c0.99,0.01,1.79,0.82,1.78,1.81l-0.06,9.16C321.89,359.58,321.08,360.38,320.09,360.37z"/>
				<path class="st7" d="M574.68,362.16l-192.09-1.34c-1.58-0.01-2.84-1.3-2.83-2.87l0.05-7.04c0.01-1.58,1.3-2.84,2.87-2.83
					l192.09,1.34c1.58,0.01,2.84,1.3,2.83,2.87l-0.05,7.04C577.55,360.9,576.26,362.17,574.68,362.16z"/>
				<path class="st7" d="M120.53,425.62l-33.06-0.23c-1.58-0.01-2.84-1.3-2.83-2.87l0.05-7.04c0.01-1.58,1.3-2.84,2.87-2.83
					l33.06,0.23c1.58,0.01,2.84,1.3,2.83,2.87l-0.05,7.04C123.39,424.36,122.11,425.63,120.53,425.62z"/>
				<path class="st7" d="M228.28,426.4l-101.43-0.71c-1.03-0.01-1.87-0.85-1.86-1.88l0.06-9.01c0.01-1.03,0.85-1.86,1.88-1.86
					l101.43,0.71c1.03,0.01,1.87,0.85,1.86,1.88l-0.06,9.01C230.16,425.58,229.32,426.41,228.28,426.4z"/>
				<path class="st7" d="M318.72,427.31l-47.15-0.33c-0.99-0.01-1.79-0.82-1.78-1.81l0.06-9.16c0.01-0.99,0.82-1.79,1.81-1.78
					l47.15,0.33c0.99,0.01,1.79,0.82,1.78,1.81l-0.06,9.16C320.53,426.52,319.72,427.32,318.72,427.31z"/>
				<path class="st7" d="M444.29,428.19l-111.5-0.78c-1.58-0.01-2.84-1.3-2.83-2.87l0.05-7.04c0.01-1.58,1.3-2.84,2.87-2.83
					l111.5,0.78c1.58,0.01,2.84,1.3,2.83,2.87l-0.05,7.04C447.15,426.93,445.87,428.2,444.29,428.19z"/>
				<path class="st7" d="M228.15,448.8L86.5,447.81c-1.03-0.01-1.87-0.85-1.86-1.88l0.06-9.01c0.01-1.03,0.85-1.87,1.88-1.86
					l141.66,0.99c1.03,0.01,1.87,0.85,1.86,1.88l-0.06,9.01C230.03,447.98,229.18,448.81,228.15,448.8z"/>
				<path class="st7" d="M318.53,449.71l-47.15-0.33c-0.99-0.01-1.79-0.82-1.78-1.81l0.06-9.16c0.01-0.99,0.82-1.79,1.81-1.78
					l47.15,0.33c0.99,0.01,1.79,0.82,1.78,1.81l-0.06,9.16C320.33,448.92,319.52,449.72,318.53,449.71z"/>
				<path class="st7" d="M499.39,450.98L358.98,450c-1.58-0.01-2.84-1.3-2.83-2.87l0.05-7.04c0.01-1.58,1.3-2.84,2.87-2.83
					l140.41,0.98c1.58,0.01,2.84,1.3,2.83,2.87l-0.05,7.04C502.25,449.72,500.97,450.99,499.39,450.98z"/>
				<path class="st7" d="M119.04,470.45l-31.51-0.22c-1.58-0.01-2.84-1.3-2.83-2.87l0.05-7.04c0.01-1.58,1.3-2.84,2.87-2.83
					l31.51,0.22c1.58,0.01,2.84,1.3,2.83,2.87l-0.05,7.04C121.9,469.19,120.61,470.46,119.04,470.45z"/>
				<path class="st7" d="M228.47,471.24l-101.43-0.71c-1.03-0.01-1.87-0.85-1.86-1.88l0.06-9.01c0.01-1.03,0.85-1.87,1.88-1.86
					l101.43,0.71c1.03,0.01,1.87,0.85,1.86,1.88l-0.06,9.01C230.35,470.41,229.5,471.25,228.47,471.24z"/>
				<path class="st7" d="M318.78,472.15l-47.15-0.33c-0.99-0.01-1.79-0.82-1.78-1.81l0.06-9.16c0.01-0.99,0.82-1.79,1.81-1.78
					l47.15,0.33c0.99,0.01,1.79,0.82,1.78,1.81l-0.06,9.16C320.58,471.36,319.77,472.15,318.78,472.15z"/>
				<path class="st7" d="M573.3,473.93l-192.09-1.34c-1.58-0.01-2.84-1.3-2.83-2.87l0.05-7.04c0.01-1.58,1.3-2.84,2.87-2.83
					l192.09,1.34c1.58,0.01,2.84,1.3,2.83,2.87l-0.05,7.04C576.16,472.67,574.88,473.94,573.3,473.93z"/>
				<path class="st7" d="M119.75,381.49l-31.51-0.22c-1.58-0.01-2.84-1.3-2.83-2.87l0.05-7.04c0.01-1.58,1.3-2.84,2.87-2.83
					l31.51,0.22c1.58,0.01,2.84,1.3,2.83,2.87l-0.05,7.04C122.61,380.23,121.32,381.5,119.75,381.49z"/>
				<path class="st7" d="M228.76,382.27l-101.43-0.71c-1.03-0.01-1.87-0.85-1.86-1.88l0.06-9.01c0.01-1.03,0.85-1.87,1.88-1.86
					l101.43,0.71c1.03,0.01,1.87,0.85,1.86,1.88l-0.06,9.01C230.63,381.45,229.79,382.28,228.76,382.27z"/>
				<path class="st7" d="M319.33,383.18l-47.15-0.33c-0.99-0.01-1.79-0.82-1.78-1.81l0.06-9.16c0.01-0.99,0.82-1.79,1.81-1.78
					l47.15,0.33c0.99,0.01,1.79,0.82,1.78,1.81l-0.06,9.16C321.13,382.39,320.32,383.19,319.33,383.18z"/>
				<path class="st7" d="M573.01,384.96l-192.09-1.34c-1.58-0.01-2.84-1.3-2.83-2.87l0.05-7.04c0.01-1.58,1.3-2.84,2.87-2.83
					l192.09,1.34c1.58,0.01,2.84,1.3,2.83,2.87l-0.05,7.04C575.87,383.7,574.59,384.97,573.01,384.96z"/>
				<path class="st7" d="M119.89,403.92l-31.51-0.22c-1.58-0.01-2.84-1.3-2.83-2.87l0.05-7.04c0.01-1.58,1.3-2.84,2.87-2.83
					l31.51,0.22c1.58,0.01,2.84,1.3,2.83,2.87l-0.05,7.04C122.75,402.66,121.47,403.93,119.89,403.92z"/>
				<path class="st7" d="M229.15,404.71L127.73,404c-1.03-0.01-1.87-0.85-1.86-1.88l0.06-9.01c0.01-1.03,0.85-1.87,1.88-1.86
					l101.43,0.71c1.03,0.01,1.87,0.85,1.86,1.88l-0.06,9.01C231.03,403.89,230.19,404.72,229.15,404.71z"/>
				<path class="st7" d="M319.58,405.62l-47.15-0.33c-0.99-0.01-1.79-0.82-1.78-1.81l0.06-9.16c0.01-0.99,0.82-1.79,1.81-1.78
					l47.15,0.33c0.99,0.01,1.79,0.82,1.78,1.81l-0.06,9.16C321.38,404.83,320.57,405.63,319.58,405.62z"/>
				<path class="st7" d="M573.89,407.4l-192.09-1.34c-1.58-0.01-2.84-1.3-2.83-2.87l0.05-7.04c0.01-1.58,1.3-2.84,2.87-2.83
					l192.09,1.34c1.58,0.01,2.84,1.3,2.83,2.87l-0.05,7.04C576.76,406.14,575.47,407.41,573.89,407.4z"/>
				<path class="st7" d="M251.18,486.5l-2.58-0.02c-0.58,0-1.04-0.48-1.04-1.06l2.19-312.15c0-0.58,0.48-1.04,1.06-1.04l2.58,0.02
					c0.58,0,1.04,0.48,1.04,1.06l-2.19,312.15C252.23,486.04,251.76,486.51,251.18,486.5z"/>
			</g>
		</g>
		<g>
			
				<linearGradient id="SVGID_4_" gradientUnits="userSpaceOnUse" x1="525.5894" y1="369.7448" x2="499.8451" y2="191.0494" gradientTransform="matrix(1 0 0 -1 0 652)">
				<stop  offset="0" style="stop-color:#F2908F"/>
				<stop  offset="1" style="stop-color:#EE7065"/>
			</linearGradient>
			<circle class="st8" cx="515.23" cy="354.14" r="54.52"/>
			<g>
				<path class="st2" d="M500.61,365.97l-21.43-10.9v-3.51l21.43-12.41v5.98l-14.82,7.92l14.82,6.98V365.97z"/>
				<path class="st2" d="M523.41,334.3l-12.19,36.83l-6.12-0.06l12.09-36.68L523.41,334.3z"/>
				<path class="st2" d="M527.94,360.1l15.66-7.15l-15.66-8.01v-6.08l22.84,12.51v3.68l-22.84,11.11V360.1z"/>
			</g>
		</g>
		<g>
			
				<linearGradient id="SVGID_5_" gradientUnits="userSpaceOnUse" x1="333.836" y1="583.0283" x2="442.8665" y2="583.0283" gradientTransform="matrix(1 0 0 -1 0 652)">
				<stop  offset="0" style="stop-color:#4857A3"/>
				<stop  offset="1" style="stop-color:#40509E"/>
			</linearGradient>
			<circle class="st9" cx="388.35" cy="68.97" r="54.52"/>
			<g>
				
					<linearGradient id="SVGID_6_" gradientUnits="userSpaceOnUse" x1="362.0968" y1="584.9667" x2="377.6483" y2="584.9667" gradientTransform="matrix(1 0 0 -1 0 652)">
					<stop  offset="0" style="stop-color:#DAE1F3"/>
					<stop  offset="1" style="stop-color:#E9EFFA"/>
				</linearGradient>
				<path class="st10" d="M366.46,90.74c-1.67-0.03-3.13-0.24-4.36-0.62v-6.41c1.27,0.35,2.43,0.52,3.48,0.54
					c1.63,0.02,2.79-0.49,3.5-1.55c0.7-1.05,1.06-2.7,1.06-4.95V43.5l7.51-0.18v34.42c0,4.3-0.95,7.55-2.85,9.77
					C372.91,89.73,370.12,90.8,366.46,90.74z"/>
				
					<linearGradient id="SVGID_7_" gradientUnits="userSpaceOnUse" x1="386.1212" y1="585.9641" x2="414.3007" y2="585.9641" gradientTransform="matrix(1 0 0 -1 0 652)">
					<stop  offset="0" style="stop-color:#DAE1F3"/>
					<stop  offset="1" style="stop-color:#E9EFFA"/>
				</linearGradient>
				<path class="st11" d="M414.3,75.86c0,4-1.44,7.13-4.3,9.39c-2.85,2.25-6.79,3.34-11.8,3.26c-4.58-0.07-8.6-1-12.08-2.78v-8.52
					c2.86,1.32,5.28,2.26,7.28,2.81c2,0.55,3.84,0.84,5.51,0.85c2.01,0.02,3.56-0.36,4.64-1.13c1.08-0.77,1.62-1.93,1.62-3.47
					c0-0.86-0.24-1.63-0.72-2.3c-0.48-0.67-1.17-1.32-2.1-1.94c-0.92-0.62-2.79-1.61-5.6-2.96c-2.62-1.25-4.58-2.44-5.88-3.58
					c-1.3-1.14-2.33-2.47-3.11-3.98c-0.77-1.51-1.16-3.29-1.16-5.32c0-3.83,1.27-6.86,3.81-9.1c2.56-2.25,6.11-3.43,10.67-3.54
					c2.25-0.05,4.41,0.17,6.48,0.66c2.07,0.5,4.24,1.22,6.52,2.16l-3.02,7.34c-2.35-0.93-4.28-1.57-5.8-1.93
					c-1.52-0.35-3.01-0.52-4.47-0.5c-1.73,0.03-3.06,0.46-3.98,1.29c-0.92,0.83-1.38,1.9-1.38,3.21c0,0.82,0.19,1.52,0.56,2.12
					c0.37,0.6,0.96,1.18,1.78,1.74c0.82,0.56,2.75,1.57,5.82,3.02c4.08,1.94,6.89,3.9,8.42,5.88
					C413.53,70.54,414.3,72.98,414.3,75.86z"/>
			</g>
		</g>
		<g>
			
				<linearGradient id="SVGID_8_" gradientUnits="userSpaceOnUse" x1="518.7709" y1="624.9213" x2="480.9116" y2="403.8233" gradientTransform="matrix(1 0 0 -1 0 652)">
				<stop  offset="0" style="stop-color:#F2908F"/>
				<stop  offset="1" style="stop-color:#EE7065"/>
			</linearGradient>
			<circle class="st12" cx="506.9" cy="96.39" r="53.95"/>
			<g>
				<path class="st2" d="M485.41,107.69l-3.94-0.22v-8.53l-7.33-0.36v8.49l-3.89-0.21V87.24l3.89,0.16v7.71l7.33,0.34V87.7
					l3.94,0.16V107.69z"/>
				<path class="st2" d="M498.77,108.43l-4.03-0.22V91.77l-5.12-0.23v-3.51l14.34,0.6v3.54l-5.19-0.23V108.43z"/>
				<path class="st2" d="M516.48,109.41l-4.68-16.09l-0.12,0c0.17,3.23,0.25,5.38,0.25,6.46v9.39l-3.66-0.2V88.82l5.59,0.23
					l4.62,15.7l0.08,0l4.93-15.3l5.71,0.24v20.42l-3.91-0.22v-9.64c0-0.45,0.01-0.98,0.02-1.57c0.01-0.59,0.07-2.17,0.18-4.73
					l-0.12,0l-5.07,15.67L516.48,109.41z"/>
				<path class="st2" d="M535.6,110.46V89.95l4.26,0.18v16.97l8.21,0.43v3.62L535.6,110.46z"/>
			</g>
		</g>
		<g>
			
				<linearGradient id="SVGID_9_" gradientUnits="userSpaceOnUse" x1="495.9945" y1="424.9706" x2="598.4998" y2="424.9706" gradientTransform="matrix(1 0 0 -1 0 652)">
				<stop  offset="0" style="stop-color:#4857A3"/>
				<stop  offset="1" style="stop-color:#40509E"/>
			</linearGradient>
			<circle class="st13" cx="547.25" cy="227.03" r="51.25"/>
			<g>
				
					<linearGradient id="SVGID_10_" gradientUnits="userSpaceOnUse" x1="512.6147" y1="425.4349" x2="532.4254" y2="425.4349" gradientTransform="matrix(1 0 0 -1 0 652)">
					<stop  offset="0" style="stop-color:#DAE1F3"/>
					<stop  offset="1" style="stop-color:#E9EFFA"/>
				</linearGradient>
				<path class="st14" d="M524.67,216.8c-2.09-0.02-3.69,0.83-4.82,2.54c-1.13,1.71-1.68,4.09-1.68,7.16
					c0.01,6.39,2.18,9.66,6.53,9.84c1.84,0.07,4.09-0.35,6.75-1.27l0.01,5.19c-2.18,0.9-4.61,1.28-7.26,1.16
					c-3.78-0.18-6.65-1.57-8.62-4.18c-1.96-2.59-2.95-6.22-2.96-10.91c-0.01-2.96,0.47-5.54,1.42-7.75
					c0.96-2.22,2.34-3.92,4.16-5.11c1.83-1.19,3.98-1.79,6.47-1.78c2.56,0.01,5.14,0.7,7.77,2.08l-1.82,5.03c-1-0.53-2-1-3-1.39
					C526.61,217.01,525.63,216.81,524.67,216.8z"/>
				
					<linearGradient id="SVGID_11_" gradientUnits="userSpaceOnUse" x1="537.4119" y1="424.9149" x2="555.6115" y2="424.9149" gradientTransform="matrix(1 0 0 -1 0 652)">
					<stop  offset="0" style="stop-color:#DAE1F3"/>
					<stop  offset="1" style="stop-color:#E9EFFA"/>
				</linearGradient>
				<path class="st15" d="M555.61,234.08c0,2.73-0.93,4.84-2.78,6.33c-1.84,1.48-4.39,2.14-7.62,1.99
					c-2.96-0.14-5.55-0.85-7.79-2.14l-0.01-5.8c1.84,0.96,3.41,1.64,4.69,2.05c1.29,0.42,2.48,0.65,3.55,0.69
					c1.3,0.05,2.3-0.18,2.99-0.68c0.7-0.51,1.05-1.29,1.05-2.34c0-0.59-0.16-1.12-0.46-1.58c-0.31-0.47-0.76-0.92-1.36-1.36
					c-0.59-0.44-1.8-1.15-3.62-2.13c-1.69-0.9-2.96-1.75-3.8-2.56c-0.84-0.8-1.51-1.73-2.01-2.77s-0.75-2.26-0.75-3.65
					c0-2.61,0.81-4.66,2.45-6.15c1.65-1.5,3.94-2.24,6.89-2.23c1.46,0,2.86,0.19,4.19,0.57c1.34,0.38,2.75,0.91,4.22,1.59
					l-1.95,4.97c-1.52-0.68-2.77-1.15-3.76-1.42c-0.98-0.27-1.95-0.41-2.89-0.42c-1.12-0.01-1.98,0.26-2.57,0.81
					c-0.59,0.55-0.89,1.27-0.89,2.17c0,0.56,0.12,1.04,0.36,1.46c0.24,0.42,0.62,0.82,1.15,1.22c0.53,0.4,1.78,1.12,3.76,2.17
					c2.64,1.4,4.46,2.79,5.45,4.18C555.11,230.42,555.61,232.1,555.61,234.08z"/>
				
					<linearGradient id="SVGID_12_" gradientUnits="userSpaceOnUse" x1="561.0952" y1="424.3171" x2="580.5984" y2="424.3171" gradientTransform="matrix(1 0 0 -1 0 652)">
					<stop  offset="0" style="stop-color:#DAE1F3"/>
					<stop  offset="1" style="stop-color:#E9EFFA"/>
				</linearGradient>
				<path class="st16" d="M580.6,234.93c0,2.83-1,5.02-2.99,6.55c-1.98,1.53-4.71,2.21-8.17,2.05c-3.17-0.15-5.94-0.89-8.34-2.23v-6
					c1.97,0.99,3.65,1.7,5.02,2.13c1.38,0.43,2.65,0.67,3.81,0.72c1.39,0.05,2.46-0.18,3.21-0.7c0.75-0.52,1.13-1.33,1.13-2.42
					c0-0.61-0.16-1.16-0.49-1.64c-0.33-0.48-0.81-0.96-1.45-1.41c-0.64-0.46-1.93-1.19-3.87-2.21c-1.81-0.93-3.17-1.82-4.06-2.65
					c-0.9-0.83-1.61-1.79-2.15-2.87c-0.53-1.08-0.8-2.34-0.8-3.78c0-2.7,0.88-4.82,2.63-6.36c1.77-1.55,4.23-2.32,7.39-2.31
					c1.56,0,3.06,0.2,4.49,0.59c1.44,0.39,2.95,0.94,4.53,1.65l-2.1,5.15c-1.63-0.7-2.97-1.2-4.02-1.48
					c-1.05-0.28-2.09-0.42-3.1-0.44c-1.2-0.01-2.12,0.27-2.76,0.84c-0.64,0.57-0.96,1.32-0.96,2.24c0,0.58,0.13,1.08,0.38,1.51
					c0.26,0.43,0.67,0.85,1.23,1.27c0.56,0.41,1.9,1.16,4.03,2.25c2.83,1.45,4.78,2.9,5.84,4.33
					C580.07,231.15,580.6,232.89,580.6,234.93z"/>
			</g>
		</g>
		<g>
			
				<linearGradient id="SVGID_13_" gradientUnits="userSpaceOnUse" x1="232.5805" y1="380.8817" x2="332.5239" y2="589.8538" gradientTransform="matrix(1 0 0 -1 0 652)">
				<stop  offset="0" style="stop-color:#E2473D"/>
				<stop  offset="1" style="stop-color:#E9615A"/>
			</linearGradient>
			<path class="st17" d="M142.35,501.06c-1.56,1.59-1.15,4.24,0.81,5.32c8.99,4.94,31.59,13.9,50.64-7.15
				c24.39-26.95,83.82-152.72,91.15-185.01c7.33-32.29,35.04-82.05,50.27-87.92c15.22-5.87-32.27-2.53-45.5-2.31
				c-13.22,0.23-22.75-6.33-14.89-9.34c0,0-40.22-15.7-70.39,31c-18.23,28.22-76.92,158.63-125.57,172.94
				c-1.8,0.53,8.41,7.46,9.2,9.16c4.69,10.09,21.91,39.9,67.03,55.51C155.1,483.27,149.24,494.03,142.35,501.06z"/>
			
				<linearGradient id="SVGID_14_" gradientUnits="userSpaceOnUse" x1="-379.8925" y1="32.8712" x2="-322.9042" y2="32.8712" gradientTransform="matrix(1 0 0 -1 646.4113 652)">
				<stop  offset="0" style="stop-color:#4857A3"/>
				<stop  offset="1" style="stop-color:#40509E"/>
			</linearGradient>
			<path class="st18" d="M321.9,616.37c-9.76,0.85-26.71,2.21-40.06,2.8c-8.03,0.35-12.65-0.43-15.31-1.5c0,0.3,0.01,0.58,0.02,0.85
				c0.06,1.41,1.2,2.53,2.63,2.61c25.24,1.41,45.31,0.49,52.46,0.05c1.48-0.09,2.36-1.7,1.6-2.96
				C322.85,617.6,322.39,616.98,321.9,616.37z"/>
			
				<linearGradient id="SVGID_15_" gradientUnits="userSpaceOnUse" x1="-379.8935" y1="44.0407" x2="-324.5119" y2="44.0407" gradientTransform="matrix(1 0 0 -1 646.4113 652)">
				<stop  offset="0" style="stop-color:#232451"/>
				<stop  offset="1" style="stop-color:#2A307B"/>
			</linearGradient>
			<path class="st19" d="M281.84,619.17c13.36-0.59,30.3-1.96,40.06-2.8c-9.6-11.78-40.06-19.71-40.06-19.71h-8.6
				c-5.92,8.53-6.78,16.65-6.71,21.02C269.18,618.74,273.81,619.53,281.84,619.17z"/>
			
				<linearGradient id="SVGID_16_" gradientUnits="userSpaceOnUse" x1="-374.6303" y1="59.6329" x2="-358.5793" y2="59.6329" gradientTransform="matrix(1 0 0 -1 646.4113 652)">
				<stop  offset="0" style="stop-color:#F7BABA"/>
				<stop  offset="1" style="stop-color:#F2908F"/>
			</linearGradient>
			<path class="st20" d="M271.78,582.61l0.8,15.93c0.09,1.73,1.38,3.17,3.11,3.42c1.72,0.25,4.02,0.28,6.46-0.54
				c1.5-0.5,2.62-1.76,2.89-3.31l2.78-15.51H271.78z"/>
			<g>
				
					<linearGradient id="SVGID_17_" gradientUnits="userSpaceOnUse" x1="-481.6057" y1="18.7423" x2="-459.7652" y2="18.7423" gradientTransform="matrix(1 0 0 -1 646.4113 652)">
					<stop  offset="0" style="stop-color:#4857A3"/>
					<stop  offset="1" style="stop-color:#40509E"/>
				</linearGradient>
				<path class="st21" d="M171.92,634.75c-4.23-0.76-6.15-3.61-6.95-6.64c0,0.03-0.01,0.05-0.02,0.08
					c-0.62,3.21,0.82,6.53,3.71,8.11c3.49,1.91,7.3,2.23,10.27,2.08c3.18-0.17,6.09-1.87,7.7-4.59l0.02-0.04
					C183.46,635.79,178.98,636.02,171.92,634.75z"/>
				
					<linearGradient id="SVGID_18_" gradientUnits="userSpaceOnUse" x1="-481.4443" y1="40.4724" x2="-449.3902" y2="40.4724" gradientTransform="matrix(1 0 0 -1 646.4113 652)">
					<stop  offset="0" style="stop-color:#232451"/>
					<stop  offset="1" style="stop-color:#2A307B"/>
				</linearGradient>
				<path class="st22" d="M191.88,587.52h-7.09c-10.81-0.28-17.6,29.18-19.82,40.59c0.8,3.04,2.72,5.88,6.95,6.64
					c7.06,1.27,11.54,1.03,14.73-1.01c5.84-9.93,8.73-24.48,10.13-32.96C198.35,591.13,191.88,587.52,191.88,587.52z"/>
			</g>
			
				<linearGradient id="SVGID_19_" gradientUnits="userSpaceOnUse" x1="-464.7847" y1="68.0039" x2="-445.6031" y2="68.0039" gradientTransform="matrix(1 0 0 -1 646.4113 652)">
				<stop  offset="0" style="stop-color:#F7BABA"/>
				<stop  offset="1" style="stop-color:#F2908F"/>
			</linearGradient>
			<path class="st23" d="M185.69,572.73l-3.94,15.67c-0.48,1.92,0.44,3.91,2.21,4.82c2.21,1.13,5.31,2.32,8.16,1.97
				c1.34-0.16,2.46-1.11,2.9-2.37l5.78-16.49L185.69,572.73z"/>
			
				<linearGradient id="SVGID_20_" gradientUnits="userSpaceOnUse" x1="-309.6173" y1="275.0214" x2="-473.4024" y2="6.7256" gradientTransform="matrix(1 0 0 -1 646.4113 652)">
				<stop  offset="0" style="stop-color:#4857A3"/>
				<stop  offset="1" style="stop-color:#40509E"/>
			</linearGradient>
			<path class="st24" d="M324.3,366.33c0,0-35.21,220.1-34.63,221.31c0,0-9.72,4.42-20.33,0.56c0,0,3.18-117.66,10.64-162.77
				c0,0-60.09,105.16-79.18,157.57c0,0-9.95-1.19-18.19-6.61c0,0,64.71-189.29,81.97-214.5L324.3,366.33z"/>
			
				<linearGradient id="SVGID_21_" gradientUnits="userSpaceOnUse" x1="318.4832" y1="512.3305" x2="307.1261" y2="391.9444" gradientTransform="matrix(1 0 0 -1 0 652)">
				<stop  offset="0" style="stop-color:#4857A3"/>
				<stop  offset="1" style="stop-color:#40509E"/>
			</linearGradient>
			<path class="st25" d="M281.39,424.12c-0.16,0-0.32-0.04-0.47-0.13c-0.41-0.26-0.54-0.8-0.28-1.21l13.16-21.02
				c0.13-0.21,0.33-0.35,0.57-0.4l9.68-1.95c0.47-0.1,0.94,0.21,1.03,0.69c0.09,0.47-0.21,0.94-0.69,1.03l-9.31,1.88l-12.96,20.7
				C281.97,423.98,281.69,424.12,281.39,424.12z"/>
			
				<linearGradient id="SVGID_22_" gradientUnits="userSpaceOnUse" x1="295.1403" y1="403.6096" x2="219.047" y2="229.8441" gradientTransform="matrix(1 0 0 -1 0 652)">
				<stop  offset="0" style="stop-color:#EE7065"/>
				<stop  offset="1" style="stop-color:#F2908F"/>
			</linearGradient>
			<path class="st26" d="M337.23,214.1c-2.38-0.82-4.86-1.31-7.37-1.46c-13.74-0.81-59.01-2.28-96.47,10.1
				c-7.88,2.61-14.27,8.43-17.56,15.99c-10.13,23.25-26.54,76.21,19,102.95c3.5-8.69,7.54-15.67,10.99-20.8
				c-7.33-12.37-9.51-29.27,3.51-51.27c9.49,25.63,13.94,63.02,14.87,79.57c0.31,5.45-0.65,10.89-2.79,15.92l-0.23,0.55
				c-0.46,1.08,0.17,2.31,1.32,2.57c25.64,5.76,52.31,4.19,60.27,3.54c1.42-0.12,2.61-1.13,2.93-2.51
				c12.47-52.53,12.5-88.37,9.44-111.02C346.82,260.82,363.03,223.04,337.23,214.1z"/>
			
				<linearGradient id="SVGID_23_" gradientUnits="userSpaceOnUse" x1="-370.2753" y1="408.2034" x2="-361.9632" y2="451.8421" gradientTransform="matrix(1 0 0 -1 646.4113 652)">
				<stop  offset="0" style="stop-color:#F7BABA"/>
				<stop  offset="1" style="stop-color:#F2908F"/>
			</linearGradient>
			<path class="st27" d="M271.93,182.04c0,0-2.59,27.42-4.88,35.54c-0.35,1.23,0.19,2.53,1.31,3.17c3.88,2.21,13.17,5.83,25.89-0.4
				c2.06-1.01,3.3-3.16,3.2-5.43l-1.12-26.5L271.93,182.04z"/>
			<g>
				
					<linearGradient id="SVGID_24_" gradientUnits="userSpaceOnUse" x1="-347.784" y1="488.2668" x2="-395.2098" y2="451.9789" gradientTransform="matrix(1 0 0 -1 646.4113 652)">
					<stop  offset="0" style="stop-color:#F7BABA"/>
					<stop  offset="1" style="stop-color:#F2908F"/>
				</linearGradient>
				<path class="st28" d="M296.89,146.96c0,0,8.3,19.06,8.85,29.06c0.56,10,2.71,16.49-8.85,18.51
					c-11.57,2.01-21.31-3.75-26.59-13.71c0,0-8.27-15.35-6.41-21.64C265.74,152.89,296.89,146.96,296.89,146.96z"/>
				
					<linearGradient id="SVGID_25_" gradientUnits="userSpaceOnUse" x1="-381.1714" y1="516.9971" x2="-337.0017" y2="460.1287" gradientTransform="matrix(1 0 0 -1 646.4113 652)">
					<stop  offset="0" style="stop-color:#232451"/>
					<stop  offset="1" style="stop-color:#2A307B"/>
				</linearGradient>
				<path class="st29" d="M274.25,173.65l0.66-0.29c0.84-0.37,1.2-1.37,0.77-2.18c-1.63-3.15-4.81-10.37-0.7-12.06
					c5.29-2.17,26.26-6.45,30.78-13.89c4.35-7.15,0.49-16.38-5.29-19.01c-0.39-0.18-0.85-0.04-1.04,0.34l-0.48,0.91
					c-0.33,0.63-1.25,0.53-1.45-0.15l0,0c-0.19-0.65-1.06-0.78-1.41-0.2c-1.39,2.23-5.14,5.83-15.19,7.69
					c-14.27,2.63-23.7,8.41-23.94,18.27c-0.02,0.63-0.68,0.97-1.22,0.65c-1.05-0.64-2.74-0.94-4.99,0.95
					c-3.92,3.29-2.32,11.84,6.27,18.87c0.41,0.33,0.4,0.97-0.04,1.26c-1.56,1.01-3.88,3.43,2.14,6.64
					c6.22,3.33,10.87,3.05,12.66,2.76c0.45-0.07,0.73-0.5,0.63-0.94l-1.91-8.66c-0.11-0.49,0.26-0.96,0.77-0.96L274.25,173.65
					L274.25,173.65z"/>
				
					<linearGradient id="SVGID_26_" gradientUnits="userSpaceOnUse" x1="-353.6651" y1="495.9534" x2="-401.0911" y2="459.6653" gradientTransform="matrix(1 0 0 -1 646.4113 652)">
					<stop  offset="0" style="stop-color:#F7BABA"/>
					<stop  offset="1" style="stop-color:#F2908F"/>
				</linearGradient>
				<path class="st30" d="M274.61,175.48c0,0-3.17-12.17-8.62-8.76c-5.46,3.41,2.83,13.64,7.22,14.1L274.61,175.48z"/>
			</g>
			
				<linearGradient id="SVGID_27_" gradientUnits="userSpaceOnUse" x1="-317.4782" y1="476.8402" x2="-266.3709" y2="638.1121" gradientTransform="matrix(1 0 0 -1 646.4113 652)">
				<stop  offset="0" style="stop-color:#F7BABA"/>
				<stop  offset="1" style="stop-color:#F2908F"/>
			</linearGradient>
			<path class="st31" d="M274.38,360.41l37.44-0.82c0,0-32.65-9.23-34.67-6.71c0,0-20.24-13.3-31.32-32
				c-3.45,5.13-7.49,12.11-10.99,20.8C244.77,347.52,257.83,357.66,274.38,360.41z"/>
			
				<linearGradient id="SVGID_28_" gradientUnits="userSpaceOnUse" x1="-2216.2563" y1="3148.3276" x2="-2165.1489" y2="3309.5996" gradientTransform="matrix(-1 0 0 -1 -2823.4714 652)">
				<stop  offset="0" style="stop-color:#F7BABA"/>
				<stop  offset="1" style="stop-color:#F2908F"/>
			</linearGradient>
			<path class="st32" d="M273.32,353.93c0,0-0.77,14.92,18.81,12.75c10.64-1.18,27.82-11.1,27.82-11.1S275.17,355.46,273.32,353.93z
				"/>
			<g>
				
					<linearGradient id="SVGID_29_" gradientUnits="userSpaceOnUse" x1="2598.2163" y1="130.7611" x2="2536.3804" y2="113.8135" gradientTransform="matrix(-0.9988 -0.0494 0.0494 -0.9988 2858.3843 596.2354)">
					<stop  offset="0" style="stop-color:#232451"/>
					<stop  offset="1" style="stop-color:#2A307B"/>
				</linearGradient>
				<path class="st33" d="M282.76,357.64c0.06,0,0.12,0,0.18,0l76.75-0.08c1.9,0,3.43-1.53,3.43-3.4s-1.55-3.43-3.44-3.4
					l-76.75,0.08c-1.9,0-3.43,1.53-3.43,3.4C279.5,356.06,280.95,357.55,282.76,357.64z"/>
				
					<linearGradient id="SVGID_30_" gradientUnits="userSpaceOnUse" x1="2495.4739" y1="354.1797" x2="2451.8564" y2="308.0788" gradientTransform="matrix(-1 0 0 -1 2849.0757 652)">
					<stop  offset="0" style="stop-color:#232451"/>
					<stop  offset="1" style="stop-color:#2A307B"/>
				</linearGradient>
				<path class="st34" d="M428.69,288.68h-63.92c-4.72,0-9.01,2.69-11.02,6.91l-29.55,62h79.44c3.04,0,5.77-1.84,6.89-4.63
					l22.92-57.37C434.76,292.27,432.29,288.68,428.69,288.68z"/>
				
					<linearGradient id="SVGID_31_" gradientUnits="userSpaceOnUse" x1="2469.0264" y1="342.6563" x2="2449.3098" y2="312.9656" gradientTransform="matrix(-1 0 0 -1 2849.0757 652)">
					<stop  offset="0" style="stop-color:#6CC9F0"/>
					<stop  offset="1" style="stop-color:#3C519F"/>
				</linearGradient>
				<path class="st35" d="M383.66,320.47c-1.39,4.26-0.36,8.39,2.29,9.24c2.65,0.84,5.92-1.93,7.3-6.18
					c1.39-4.26,0.36-8.39-2.29-9.24C388.31,313.45,385.04,316.21,383.66,320.47z"/>
			</g>
			<g>
				
					<linearGradient id="SVGID_32_" gradientUnits="userSpaceOnUse" x1="356.0312" y1="376.9451" x2="279.9381" y2="203.1802" gradientTransform="matrix(1 0 0 -1 0 652)">
					<stop  offset="0" style="stop-color:#EE7065"/>
					<stop  offset="1" style="stop-color:#F2908F"/>
				</linearGradient>
				<path class="st36" d="M415,256.2c-29.8,1.24-44.12-20.57-57.16-33.33c-17.21-16.85-35.43-9.98-35.43-9.98l13.85,45.19
					c26.91,31.47,60.37,23.76,80.72,16.7C418.08,267.42,416.77,261.02,415,256.2z"/>
				
					<linearGradient id="SVGID_33_" gradientUnits="userSpaceOnUse" x1="-744.3807" y1="1314.6027" x2="-676.2369" y2="1345.2673" gradientTransform="matrix(0.9942 0.1073 0.1073 -0.9942 3054.0876 987.1271)">
					<stop  offset="0" style="stop-color:#F7BABA"/>
					<stop  offset="1" style="stop-color:#F2908F"/>
				</linearGradient>
				<path class="st37" d="M458.11,243.15l-10.29,4.18c-12.43,5.84-23.27,8.47-32.82,8.87c1.77,4.82,3.08,11.22,1.99,18.58
					c12.95-4.5,21.43-10.66,21.43-10.66C461.87,253.36,458.11,243.15,458.11,243.15z"/>
			</g>
			
				<linearGradient id="SVGID_34_" gradientUnits="userSpaceOnUse" x1="-742.6625" y1="1311.0311" x2="-674.5156" y2="1341.6971" gradientTransform="matrix(0.9942 0.1073 0.1073 -0.9942 3054.0876 987.1271)">
				<stop  offset="0" style="stop-color:#F7BABA"/>
				<stop  offset="1" style="stop-color:#F2908F"/>
			</linearGradient>
			<path class="st38" d="M485.29,259.95c-0.4-2.16-1.76-4.01-3.7-5.04l-18.88-10.07c0,0-0.02-2.56,4.63-3.8
				c4.65-1.24,4.15-6.36,4.15-6.36s-6.41,2.13-15.82,5.58c-5.38,1.97-8.73,6.13-10.62,9.32l4.36,7.23c11.77,4.97,24.01,7,36.58,6.88
				L485.29,259.95z"/>
			
				<linearGradient id="SVGID_35_" gradientUnits="userSpaceOnUse" x1="326.102" y1="409.5557" x2="335.2052" y2="409.5557" gradientTransform="matrix(1 0 0 -1 0 652)">
				<stop  offset="0" style="stop-color:#E2473D"/>
				<stop  offset="1" style="stop-color:#E9615A"/>
			</linearGradient>
			<path class="st39" d="M326.1,226.3c0,0,6.1,9.61,9.1,32.28L326.1,226.3z"/>
		</g>
	</g>
</g>
</svg>
